STARTFONT 2.3
FONT -FontForge-Bungee Shade-Book-R-Normal--32-320-72-72-P-274-ISO10646-1
SIZE 32 72 72  2
FONTBOUNDINGBOX 82 83 -20 -30
COMMENT "Generated by fontforge, http://fontforge.sourceforge.net"
COMMENT "Copyright 2008 The Bungee Project Authors (david@djr.com)"
STARTPROPERTIES 40
FOUNDRY "FontForge"
FAMILY_NAME "Bungee Shade"
WEIGHT_NAME "Book"
SLANT "R"
SETWIDTH_NAME "Normal"
ADD_STYLE_NAME ""
PIXEL_SIZE 32
POINT_SIZE 320
RESOLUTION_X 72
RESOLUTION_Y 72
SPACING "P"
AVERAGE_WIDTH 274
CHARSET_REGISTRY "ISO10646"
CHARSET_ENCODING "1"
FONTNAME_REGISTRY ""
CHARSET_COLLECTIONS "ISO8859-2 ISO8859-9 ISO8859-4 ISO10646-1"
BITS_PER_PIXEL 2
FONT_NAME "BungeeShade-Regular"
FACE_NAME "Bungee Shade"
COPYRIGHT "Copyright 2008 The Bungee Project Authors (david@djr.com)"
FONT_VERSION "1.000;PS 1.0;hotconv 1.0.72;makeotf.lib2.5.5900"
FONT_ASCENT 28
FONT_DESCENT 4
UNDERLINE_POSITION 0
UNDERLINE_THICKNESS 0
X_HEIGHT 23
CAP_HEIGHT 23
RAW_ASCENT 860
RAW_DESCENT 140
NORM_SPACE 10
RELATIVE_WEIGHT 40
RELATIVE_SETWIDTH 50
SUPERSCRIPT_X 0
SUPERSCRIPT_Y 11
SUPERSCRIPT_SIZE 19
SUBSCRIPT_X 0
SUBSCRIPT_Y 2
SUBSCRIPT_SIZE 19
AVG_LOWERCASE_WIDTH 261
AVG_UPPERCASE_WIDTH 267
ENDPROPERTIES
CHARS 1065
STARTCHAR space
ENCODING 32
SWIDTH 325 0
DWIDTH 10 0
BBX 1 1 0 0
BITMAP
00
ENDCHAR
STARTCHAR exclam
ENCODING 33
SWIDTH 524 0
DWIDTH 17 0
BBX 13 28 2 -4
BITMAP
00555540
02400040
0B400040
2F400040
BF404040
FF404040
FF804040
FF804040
FF804040
FF804040
FF804040
FF804040
FF804040
BF800040
BF800040
BFD55540
BFFFFD00
BFEAA540
7F400040
1F400040
7F404040
FF400040
FF400040
FF800040
FFEAAA40
FFFFF800
FFFFE000
BFFF8000
ENDCHAR
STARTCHAR quotedbl
ENCODING 34
SWIDTH 746 0
DWIDTH 24 0
BBX 24 16 0 8
BITMAP
005555455554
01D0002C0001
07D0003C0001
2FD0103C0101
7FD0103D0104
7FD0103D0104
7FD0103D0104
7FD0107D0104
7FD0107D0104
3FD0007D0004
3FD0007D0004
3FE0007D0004
3FFEABFFEAA4
3FFFFFFFFFD0
3FFFE7FFFE00
2FFF82FFF800
ENDCHAR
STARTCHAR numbersign
ENCODING 35
SWIDTH 850 0
DWIDTH 27 0
BBX 27 28 0 -4
BITMAP
00001555015540
0000A001080040
0002E0012C0040
000BE001B80040
002FD043F81040
003A9042A41054
01F00100001004
07F00100001004
1FF01655555504
1FF00100004004
2FF94105504154
2FFF410FE042E0
1FFF011FD04240
1FEA041A904150
06C00400000010
07800400010010
1F805955565410
7F800400010010
BF800400010010
BFD00400010050
BFFC107F410F40
BFFC007F400D00
BFF800BF001000
2BF800BF001000
07FFAAFFEA8000
0BFFF9FFFE0000
0BFFE1FFF80000
07FF41FFE00000
ENDCHAR
STARTCHAR dollar
ENCODING 36
SWIDTH 750 0
DWIDTH 24 0
BBX 23 34 1 -7
BITMAP
000005554000
000020004000
0001F0004000
000650101540
001400100010
000000100010
008000100010
074015555010
1F4040000010
7F4040000000
BF4101FFFF40
FF4101FFFD00
FF410015A400
FF4040000140
FF8040000010
FFC015500010
FFE000055004
FFFD00001404
FFFFEA500404
BFFFFFF80404
2FFFFFF80404
078000000404
074000000404
1F4000001004
BF4155554010
FF4000100040
FF4000100100
FFEAA0003800
FFFFF0006000
FFFFF0004000
BFFFFFFF4000
002FFFF80000
002FFFE00000
001AAA400000
ENDCHAR
STARTCHAR percent
ENCODING 37
SWIDTH 1131 0
DWIDTH 36 0
BBX 36 28 0 -4
BITMAP
000155540055500000
001400010200100000
009055404E00100000
02C100107E00100000
0FC10004BD04100000
3FC11E04BC10400000
7FC11E04BC10400000
7FC11E04B810400000
7FC11E04B410400000
7FC11E04B011400000
7FC10404B041055540
7FD10010A041500014
7FE05541D042815501
7FF90007D043410041
7FFFFBFFC107041011
2FFFFFFF810B047C11
0FFFFE7F410F047C11
01BFE47F410F047C11
000000BF041F047C11
000000BE042F043811
000000FD042F440011
000001FD003F450041
000002FC007F815501
000002FC00BFE40014
000003FFFFFFFFFFD0
000007FFF8FFFFFF40
000007FFE07FFFF800
000007FF401BFF9000
ENDCHAR
STARTCHAR ampersand
ENCODING 38
SWIDTH 866 0
DWIDTH 28 0
BBX 28 28 0 -4
BITMAP
00001555554000
00004000001000
00020000001000
00090000001000
003C0055501000
00FC0100001000
02FC0400000000
03FC040BFF4000
07FC040FFD0000
07FD0406E00000
07FF0400500000
07FE4100115555
07F405501C0001
03D050003C0001
02C040007C0501
0BC040BFFC0401
2FC040FFFC0401
7FC040FBF80418
7FC04000000410
BFC04000000410
BFC05000001010
BFE00555554040
7FF40000000040
7FFE0000000500
3FFFFEAAAAF400
1FFFFFFFFFD000
07FFFFFFFF0000
01BFFFFFE40000
ENDCHAR
STARTCHAR quotesingle
ENCODING 39
SWIDTH 456 0
DWIDTH 15 0
BBX 13 16 1 8
BITMAP
00555540
02800040
1F800040
7F804040
FF804040
FF804040
FF804040
FF804040
FF804040
BF800040
BF800040
BFC00040
BFFAAA00
BFFFF400
BFFFD000
7FFE4000
ENDCHAR
STARTCHAR parenleft
ENCODING 40
SWIDTH 529 0
DWIDTH 17 0
BBX 17 33 0 -6
BITMAP
0000155500
0001400040
0004000040
0024014040
00E0140040
07D0100040
0FD0401600
2FD0407800
3FD0406000
3FD0404000
7FD0404000
7FD0404000
7FD0404000
7FD0404000
7FD0404000
7FD0404000
7FD0404000
7FD0404000
7FD0404000
7FD0404000
7FD0404000
7FD0404000
7FD0401500
7FD0400040
7FD0100040
7FE0140040
7FF4014040
3FFD000040
3FFF900000
2FFFFFE900
0FFFFFF400
02FFFFC000
006BFE0000
ENDCHAR
STARTCHAR parenright
ENCODING 41
SWIDTH 529 0
DWIDTH 17 0
BBX 17 33 0 -6
BITMAP
0015550000
0090005000
02C0000400
1FC0540100
3FC0010100
7FC0010100
7FD0004100
7FFF404040
7FFF804040
7FFF804040
2FFF804040
00FF804040
00FF804040
00FF804040
00FF804040
00FF804040
00FF804040
00FF804040
00FF804040
00FF804040
00FF804040
00FF804040
00FF404040
00D0004100
01C0010100
0BC0050100
2FC0540500
7FC0000400
7FD0019000
7FFEFF4000
7FFFFC0000
7FFFE00000
3FFA400000
ENDCHAR
STARTCHAR asterisk
ENCODING 42
SWIDTH 818 0
DWIDTH 26 0
BBX 25 23 1 1
BITMAP
00000155500000
00001D00100000
00007D00100000
0002FE04100000
0015FE04115400
00A01B04540400
02D00104000100
0FC00004000100
1F801504150100
2F800059400140
3FFA5015016A00
7FFFF0510BF400
BFFFC04042D000
BFFF4100504000
056D0018101000
0038002D000400
00FD007E001000
02FF80BF418000
0BFFF5FF890000
0BFFFFFFF40000
02FFF1FF800000
007F80FE000000
000A0064000000
ENDCHAR
STARTCHAR plus
ENCODING 43
SWIDTH 834 0
DWIDTH 27 0
BBX 25 24 1 -2
BITMAP
00000155500000
00000500100000
00002D00100000
0000BD00100000
0002FD04100000
0003FD04100000
0003FD04100000
0016A904155500
00800004000040
07C00004000040
1FC05559554040
7FC00004000040
BFC00004000040
BFD00004000100
BFFFFD041FFD00
BFFFFD041FF000
BFFFFD041F8000
6FFFFD001E0000
0003FD00100000
0003FD00100000
0003FFAA900000
0003FFFF400000
0003FFF8000000
0002FFE0000000
ENDCHAR
STARTCHAR comma
ENCODING 44
SWIDTH 484 0
DWIDTH 15 0
BBX 14 17 1 -8
BITMAP
00555540
01400010
0B400010
2F400010
BF415410
FF400410
FF400410
FF800410
FFFFC410
FFD50410
FFC15040
6FC00140
3FD55900
BFFFF400
BFFFC000
BFFE0000
2AA40000
ENDCHAR
STARTCHAR hyphen
ENCODING 45
SWIDTH 520 0
DWIDTH 17 0
BBX 16 11 0 4
BITMAP
00155555
00800001
07C00000
1FC05540
7FC00000
7FC00000
7FC00001
7FFAAAA9
7FFFFFF4
7FFFFFC0
7FFFFE00
ENDCHAR
STARTCHAR period
ENCODING 46
SWIDTH 484 0
DWIDTH 15 0
BBX 14 13 1 -4
BITMAP
00555540
02400010
0B400010
2F404010
FF404010
FF404010
FF400010
FF400010
FF800010
FFFAAA80
FFFFFE00
FFFFF400
BFFFD000
ENDCHAR
STARTCHAR slash
ENCODING 47
SWIDTH 487 0
DWIDTH 16 0
BBX 16 34 0 -6
BITMAP
00005554
00014001
000B4001
002F0001
00BF0101
00FF0104
01FE0104
01FE0104
02FD0404
02FD0404
02FC0404
03FC0404
03FC0410
07F80410
07F80410
0BF41010
0BF41010
0BF01010
0FF01010
0FF01040
1FE01040
1FE01040
2FD04040
2FD04040
2FC04040
3FC04040
3FC04100
7F800100
7F800100
BF800100
BFFFF800
BFFFE000
FFFF4000
6AA90000
ENDCHAR
STARTCHAR zero
ENCODING 48
SWIDTH 827 0
DWIDTH 26 0
BBX 25 28 1 -4
BITMAP
00005555550000
00050000005000
00140000000400
00900155500100
02C01400050100
0F804000010040
3F80406A004040
7F8040FF804040
BF8041FFC04040
FF8041FFC04040
FF8041FFC04040
FF8041BFC04040
FF8041BFC04040
FF8041BFC04040
FF8041BFC04040
FF8041BFC04040
FF8041BFC04040
FF8040BF404040
FF804000004040
FF804000010040
FFC01400050100
BFE00155500100
BFF80000001400
7FFF9000019000
2FFFFFEBFF4000
0FFFFFFFFC0000
02FFFFFFE00000
001BFFE9000000
ENDCHAR
STARTCHAR one
ENCODING 49
SWIDTH 701 0
DWIDTH 22 0
BBX 22 28 0 -4
BITMAP
001555555000
007000001000
02F000001000
0BF000001000
1FF015501000
2FF000101000
2FF400101000
2FFFF0101000
2FFFF0101000
2FFFF0101000
0ABFF0101000
002FF0101000
002FF0101000
002FF0101000
002FF0101000
002FF0101000
002FF0101000
002AA0101550
009000100010
02D000100010
0BD000100010
3FD055555410
7FD000000010
7FD000000010
7FFAAAAAAA80
7FFFFFFFFE00
7FFFFFFFF800
2FFFFFFFE000
ENDCHAR
STARTCHAR two
ENCODING 50
SWIDTH 739 0
DWIDTH 24 0
BBX 23 28 0 -4
BITMAP
000555555500
003400000050
01F400000010
07F400000004
0FF415555004
1FF400000404
1FF400000404
1FFFAAA80404
1FFFFFFC0404
1FFFFF900404
0BFFE4000404
000100001410
001400054010
006001500140
02D014001D00
0BC04006F400
1FC040BFC000
3FC040AA5554
7FC040000004
7FC040000004
7FC040000004
7FC055555504
7FC000000004
7FC000000004
7FFAAAAAAAA0
7FFFFFFFFF80
7FFFFFFFFE00
7FFFFFFFF400
ENDCHAR
STARTCHAR three
ENCODING 51
SWIDTH 737 0
DWIDTH 24 0
BBX 23 28 0 -4
BITMAP
001555555400
00D000000100
03D000000040
1FD000000040
3FD055550040
7FD000004040
7FD000004040
7FFFFFD01040
7FFFFFE01040
7FFF95401040
2FFF00004200
001F00004050
00BF01555004
01FF00000404
02FF00000404
02FFEAA90104
02FFFFFE0104
02FFFFFD0104
01D000000104
01D000000504
07D000000404
2FD055555004
3FD000000010
7FD000000140
7FFAAAAABE00
7FFFFFFFF400
7FFFFFFFD000
2FFFFFF90000
ENDCHAR
STARTCHAR four
ENCODING 52
SWIDTH 809 0
DWIDTH 26 0
BBX 24 28 1 -4
BITMAP
005555005555
028000420001
0B80004F0001
2F80006F0001
BF8040FF0101
BF8040FF0101
BF8040FF0101
BF8040FF0101
BF8040FF0101
BF8040FF0101
BF8040FF0101
BF8040FF0101
BF8040000101
BF8040000101
BF8010000101
BFC005555501
BFD000000101
BFF000000101
7FFD40000101
3FFFFFFF0101
2FFFFFFF0101
0BFFFFFF0001
01AFFFFF0001
000002FF0001
000002FFEAA4
000002FFFFD0
000002FFFF40
000001FFFD00
ENDCHAR
STARTCHAR five
ENCODING 53
SWIDTH 747 0
DWIDTH 24 0
BBX 23 28 1 -4
BITMAP
005555555540
018000000000
0B8000000010
2F8000000010
BF8055555010
BF8040000000
BF8040000040
BF8040FFFF40
BF8040FFFC00
BF8040001500
BF8040000040
BF8040000010
BF8055554010
BF8000001004
BFC000000404
BFEAAAA40404
BFFFFFF80404
BFFFFFF80404
BF8000000404
174000000404
1F4000001010
7F4155554010
FF4000000040
FF8000000500
FFFAAAAAF800
FFFFFFFFE000
FFFFFFFF4000
BFFFFFE80000
ENDCHAR
STARTCHAR six
ENCODING 54
SWIDTH 793 0
DWIDTH 25 0
BBX 24 28 1 -4
BITMAP
000055555540
000500000010
002000000010
009005555010
07C010000010
1F8040000010
3F8040000040
7F8040FFFF00
BF8041FFFC00
FF8040400550
FF8040000014
FF8045555004
FF8090000401
FF8080000101
FF8040BE0101
FF8041FF0101
FF8041FF0101
FF8040FF0101
FF8040140101
FF8040000101
FFC010000401
BFE005555004
BFF800000010
7FFF90000680
3FFFFFEBFE00
1FFFFFFFF400
02FFFFFF9000
002BFFE90000
ENDCHAR
STARTCHAR seven
ENCODING 55
SWIDTH 727 0
DWIDTH 23 0
BBX 23 28 0 -4
BITMAP
005555555550
01C000000004
07C000000004
2FC000000004
7FC055555404
BFC000000404
BFC000000404
BFFAAAA80404
BFFFFFF80404
BFFFFFF80404
7FFFFF900404
000014000404
000040001410
000200054010
001E00540010
007D01000140
01FD00001900
02FD0407F000
03FD04078000
03FD04050000
07FD04040000
07FD00040000
07FD00040000
07FD00040000
07FFAAA40000
07FFFFD00000
07FFFE000000
02FFF8000000
ENDCHAR
STARTCHAR eight
ENCODING 56
SWIDTH 811 0
DWIDTH 26 0
BBX 26 28 0 -4
BITMAP
00000555554000
00004000001000
00050055500400
001C0500050100
00780400014100
02F81000004100
07F8102F804100
0BF8103FC04100
0BFC103FC04100
0BFD041A804500
0BFF0500010800
0BF80195640100
07F01400014040
03D01000004040
07D04000001000
1FD0407FD01010
2FD040BFF01010
3FD040BFF01010
7FD0407FD01010
7FD01000005040
7FE01400014040
7FF00155540040
7FFD0000000500
3FFF9400006400
2FFFFFFEFFD000
0BFFFFFFFF4000
01FFFFFFF80000
001AFFFA400000
ENDCHAR
STARTCHAR nine
ENCODING 57
SWIDTH 793 0
DWIDTH 25 0
BBX 25 28 0 -4
BITMAP
00001555550000
00014000005000
00040000000400
00200155500100
01E01400050100
07D01000010040
1FD0407F404040
2FD040BF804040
3FD040BF804040
7FD0407F804040
7FD04015004040
7FD01000004040
7FE01000014040
7FF00555504040
7FF80000004040
3FFF9001404040
2FFFFFFF804040
1FFFFFFF404040
07FF4000004040
006E0000014100
002E0000050100
01FE0155540100
02FE0000000400
02FE0000019000
02FFEAAAFF4000
02FFFFFFFD0000
02FFFFFFE00000
02FFFFFA400000
ENDCHAR
STARTCHAR colon
ENCODING 58
SWIDTH 484 0
DWIDTH 15 0
BBX 14 25 1 -4
BITMAP
00555540
01400010
0B400010
2F400010
BF404010
FF404010
FF404010
FF400010
FF400010
FF800010
FFFFFF80
FFFFFD00
FFEAA940
6B400010
0F400010
7F404010
FF404010
FF404010
FF400010
FF400010
FF800010
FFFAAA80
FFFFFE00
FFFFF400
BFFFD000
ENDCHAR
STARTCHAR semicolon
ENCODING 59
SWIDTH 484 0
DWIDTH 15 0
BBX 14 29 1 -8
BITMAP
00555540
01400010
0B400010
2F400010
BF404010
FF404010
FF404010
FF400010
FF400010
FF800010
FFFFFF80
FFFFFD00
FFEAA940
BF800010
0B400010
2F400010
BF415410
FF400410
FF400410
FF800410
FFFFC410
FFD50410
FFC15040
6FC00140
3FD55900
BFFFF400
BFFFC000
BFFE0000
2AA40000
ENDCHAR
STARTCHAR less
ENCODING 60
SWIDTH 814 0
DWIDTH 26 0
BBX 23 24 1 -2
BITMAP
000000000014
000000001544
000000054004
000005500004
000150000504
000400015004
002001540004
01D014000064
07D040005BD0
1FD0401BFE00
2FD040FFF800
3FD0405B9000
7FD040005500
7FD014000054
7FF001500004
7FF800055004
3FFF90000504
3FFFFE500004
1FFFFFFE4004
06FFFFFFF944
006FFFFFFFF4
00006FFFFFD0
000001BFFE00
00000001B800
ENDCHAR
STARTCHAR equal
ENCODING 61
SWIDTH 834 0
DWIDTH 27 0
BBX 25 20 1 0
BITMAP
00155555555500
00800000000040
07C00000000040
1FC05555554040
7FC00000000040
BFC00000000040
BFD55555555500
BFFFFFFFFFFD00
BFFFFFFFFFF000
7FFFFFFFFF8000
2AA55555550000
01C00000000040
07C00000000040
2FC05555554040
7FC00000000040
BFC00000000140
BFFAAAAAAAAA00
BFFFFFFFFFF400
BFFFFFFFFFD000
7FFFFFFFFE0000
ENDCHAR
STARTCHAR greater
ENCODING 62
SWIDTH 814 0
DWIDTH 26 0
BBX 23 24 2 -2
BITMAP
00BA40000000
0281B9000000
1F8006E50000
7F800006E400
FF8054001B40
FF8001500090
FF8000055020
FFE400001414
FFFFA4000404
BFFFFF940404
6FFFFFFD0404
01AFFF940404
001BE4001400
00A400055000
028001500000
1F8054000000
7F8000001900
BF800006E000
FF8006BF8000
FF81BFF90000
FFFFFE400000
FFFE50000000
BF9000000000
500000000000
ENDCHAR
STARTCHAR question
ENCODING 63
SWIDTH 756 0
DWIDTH 24 0
BBX 24 28 0 -4
BITMAP
001555555540
01C000000050
07C000000004
1FC000000004
3FC055555001
7FC000000501
7FD000000101
7FFEAAAA0101
7FFFFFFF0101
7FFFFA500101
3FFE00000101
001E00000501
007F01555000
01FF00000000
02FF40000050
02FF40056B40
01FFEAFFFC00
01FF5556E000
00FE00014000
00BE00000000
00FE01000000
02FE00000000
02FE00000000
02FE00010000
02FFEAA90000
02FFFFF40000
02FFFF800000
01FFFE000000
ENDCHAR
STARTCHAR at
ENCODING 64
SWIDTH 967 0
DWIDTH 31 0
BBX 29 34 1 -6
BITMAP
0000015555500000
0000540000054000
0005015555501400
0014140000054500
006141AFFF945100
02C52FFFFFFE0440
0BC4BFFFFFFF8440
2F84FFBFFFFFC440
3F8541540007D440
7F8504000002D440
BF8564155542D440
BF85E0500042D440
FF85E042F042D440
FF85E043F042D440
FF85E043F042D440
FF85E043F042D440
FF85E043F042D440
FF85E043F042D440
FF85E043F042C440
FF85E04000428440
FF85F04000401440
FF85F41555554100
FF84FD0000000400
FF84FFA55556A000
BFC47FFFFFFF8000
BFD51BFFFFFD0000
BFE1405AAAA50000
7FF8140000010000
3FFF415555510000
2FFFF94000010000
0BFFFFFFFFFD0000
02FFFFFFFFE00000
006FFFFFFF800000
0001AAAAAA000000
ENDCHAR
STARTCHAR A
ENCODING 65
SWIDTH 830 0
DWIDTH 27 0
BBX 25 28 1 -4
BITMAP
00005555550000
00014000004000
00070000004000
001E0000001000
003D0155401000
00BC0500101000
01F80400040400
02F4042D040400
03E0103E040100
07D0107F010100
0BC040BF010100
1F8040FF404040
2F804055404040
3F404000004040
7F410000004040
BF415555558040
FF410000004040
FF410000004040
FF4101AA804040
FF4102FFC04040
FF4102FFC04040
FF4002FFC00040
FF40017FC00040
FF80017FD00040
FFFAA87FFAAA00
FFFFE07FFFF800
FFFF407FFFD000
BFFD003FFF4000
ENDCHAR
STARTCHAR B
ENCODING 66
SWIDTH 825 0
DWIDTH 26 0
BBX 25 28 1 -4
BITMAP
00555555550000
01C00000005000
0BC00000001000
2FC00000000400
7FC05555500400
BFC04000040400
BFC04055040400
BFC040FF040400
BFC040FF040400
BFC040FE040400
BFC04000042000
BFC04000041400
BFC05555550100
BFC04000004040
BFC04000004040
BFC040FFD05040
BFC040FFD01040
BFC040FFD01040
BFC040AA801040
BFC04000004040
BFC04000004040
BFC05555550040
BFC00000000100
BFC00000001400
BFFAAAAAABE000
BFFFFFFFFF4000
BFFFFFFFFD0000
7FFFFFFF900000
ENDCHAR
STARTCHAR C
ENCODING 67
SWIDTH 728 0
DWIDTH 23 0
BBX 22 28 1 -4
BITMAP
000055555550
000500000010
002000000010
009000000010
02C005555010
0F8050000010
3F8040000010
7F80406AAA80
BF8040FFFE00
BF8041FFF400
FF8041FFD000
FF8041000000
FF8041000000
FF8041000000
FF8041000000
FF8041000000
FF8040400000
FF8040555540
FF8040000010
FF8040000010
FFC050000010
BFE005555010
BFF400000010
7FFE40000010
2FFFFFAAAA80
0FFFFFFFFE00
07FFFFFFF400
006FFFFFD000
ENDCHAR
STARTCHAR D
ENCODING 68
SWIDTH 846 0
DWIDTH 27 0
BBX 25 28 1 -4
BITMAP
00555555554000
01C00000001400
0BC00000000100
2FC00000000040
7FC05555540040
BFC04000014040
BFC04000004040
BFC040AA804040
BFC040FFD01040
BFC040FFD01040
BFC040FFD01040
BFC040BFD01040
BFC0407FD01040
BFC0407FD01040
BFC0407FD01040
BFC0407FD01040
BFC0407FD01040
BFC0406A801040
BFC04000004040
BFC04000004040
BFC04000014040
BFC05555540100
BFC00000000500
BFC00000006400
BFFAAAAABF8000
BFFFFFFFFE0000
BFFFFFFFF40000
7FFFFFFE400000
ENDCHAR
STARTCHAR E
ENCODING 69
SWIDTH 754 0
DWIDTH 24 0
BBX 23 28 1 -4
BITMAP
005555555550
01C000000004
0BC000000004
2FC000000004
7FC055555404
BFC040000004
BFC040000010
BFC040FFFFD0
BFC040FFFF40
BFC040555900
BFC040000100
BFC040000100
BFC055554100
BFC040000100
BFC040000100
BFC040FFF800
BFC040FFD000
BFC040AA9550
BFC040000004
BFC040000004
BFC040000004
BFC055555404
BFC000000004
BFC000000004
BFFAAAAAAA90
BFFFFFFFFF40
BFFFFFFFFD00
7FFFFFFFE000
ENDCHAR
STARTCHAR F
ENCODING 70
SWIDTH 718 0
DWIDTH 23 0
BBX 22 28 1 -4
BITMAP
005555555550
01C000000010
0BC000000010
2FC000000010
7FC055555410
BFC040000010
BFC040000010
BFC040FFFF80
BFC040FFFD00
BFC040FFF400
BFC040555400
BFC040000000
BFC040000100
BFC055550100
BFC040000100
BFC040000100
BFC040000400
BFC040FFF000
BFC040FF8000
BFC040FE0000
BFC040A80000
BFC040400000
BFC000400000
BFC000400000
BFFAAA000000
BFFFF8000000
BFFFD0000000
7FFF40000000
ENDCHAR
STARTCHAR G
ENCODING 71
SWIDTH 808 0
DWIDTH 26 0
BBX 24 28 1 -4
BITMAP
000055555550
000500000010
002000000010
009000000010
03C005555410
0F8010000010
3F8040000010
7F80406AAA80
BF8040FFFE00
BF8041FFF800
FF8041FFD000
FF8041005555
FF8041014001
FF80410B4001
FF80412F4001
FF8041BF4101
FF8041FF4101
FF8040FF4101
FF8040150101
FF8040000101
FFC010000101
BFE005555501
BFF400000001
7FFE40000001
2FFFFFAAAAA9
0FFFFFFFFFE0
07FFFFFFFF80
006FFFFFFE00
ENDCHAR
STARTCHAR H
ENCODING 72
SWIDTH 859 0
DWIDTH 27 0
BBX 25 28 1 -4
BITMAP
00555540155540
01C00040A00040
0BC00042E00040
2FC0004FE00040
7FC0406FE01040
BFC0407FE01040
BFC0407FE01040
BFC0407FE01040
BFC0406A901040
BFC04000001040
BFC04000001040
BFC04000001040
BFC05555555040
BFC04000001040
BFC04000001040
BFC04000001040
BFC040FFE01040
BFC040FFE01040
BFC040FFE01040
BFC040BFE01040
BFC0407FE01040
BFC0007FE00040
BFC0007FE00040
BFC0007FE00040
BFFAAA3FFEAA40
BFFFF83FFFFC00
BFFFD03FFFE000
7FFF402FFF8000
ENDCHAR
STARTCHAR I
ENCODING 73
SWIDTH 705 0
DWIDTH 23 0
BBX 21 28 1 -4
BITMAP
005555555540
024000000040
0F4000000040
7F4000000040
FF4155554040
FF4000400040
FF9500401540
FFFF8040FD00
FFFF8040F400
FFFF80409000
6AFF80404000
00BF80404000
00BF80404000
00BF80404000
00BF80404000
00BF80404000
00BF80404000
00AA40405500
014000400040
0B4000400040
2F4000400040
BF4155554040
FF4000000040
FF4000000040
FFEAAAAAAA00
FFFFFFFFF800
FFFFFFFFD000
BFFFFFFF4000
ENDCHAR
STARTCHAR J
ENCODING 74
SWIDTH 788 0
DWIDTH 25 0
BBX 24 28 0 -4
BITMAP
000000005555
000000024001
0000000F4001
0000007F4001
000000FF4101
000000FF4101
000000FF4101
000000FF4101
000000FF4101
000000FF4101
000000FF4101
001555FF4101
008000FF4101
07C000FF4101
1FC000FF4101
7FC040FF4101
7FC040FF4101
7FC040FF0101
7FC040140101
7FC050000101
7FD014000401
7FF001555004
7FFD00000010
3FFF90000680
1FFFFFFBFE00
0BFFFFFFF800
01FFFFFFD000
001AFFE90000
ENDCHAR
STARTCHAR K
ENCODING 75
SWIDTH 846 0
DWIDTH 27 0
BBX 25 28 1 -4
BITMAP
00555500155540
01C00040800040
0BC00043400100
2FC0004F000100
7FC0407D010400
BFC040FC040400
BFC040F8040400
BFC040F4101000
BFC040F0101000
BFC04050101400
BFC04000400100
BFC04000400040
BFC05555550040
BFC04000004040
BFC04000004040
BFC04055404040
BFC040FFD01040
BFC040FFD01040
BFC040FFD01040
BFC040BFD01040
BFC0407FD01040
BFC0007FD00040
BFC0007FD00040
BFC0007FE00040
BFFAAA3FFAAA40
BFFFF83FFFF800
BFFFD03FFFE000
7FFF402FFF8000
ENDCHAR
STARTCHAR L
ENCODING 76
SWIDTH 795 0
DWIDTH 25 0
BBX 24 28 1 -4
BITMAP
005555400000
01C000400000
0BC000400000
2FC040400000
7FC040400000
BFC040400000
BFC040400000
BFC040400000
BFC040400000
BFC040400000
BFC040400000
BFC040405555
BFC040418001
BFC040478001
BFC0406F8001
BFC040BF8101
BFC040FF8101
BFC040FF8101
BFC040554101
BFC040000101
BFC040000101
BFC055555501
BFC000000001
BFC000000001
BFFAAAAAAAA8
BFFFFFFFFFE0
BFFFFFFFFF80
7FFFFFFFFD00
ENDCHAR
STARTCHAR M
ENCODING 77
SWIDTH 949 0
DWIDTH 30 0
BBX 28 28 1 -4
BITMAP
00555540005555
01C00040020001
0BC000100D0001
2FC00010380001
7FC05404F40501
BFC04402E01101
BFC04102D04101
BFC04041810101
BFC04010010101
BFC04010040101
BFC04004100101
BFC04001400101
BFC04080014101
BFC040C0024101
BFC040E0074101
BFC040F41F4101
BFC040FFFF4101
BFC040FFFF4101
BFC040FDFF4101
BFC040E0FF4101
BFC04040FF4101
BFC00040FF4001
BFC00040FF4001
BFC00000FF8001
BFFAA900FFFAA8
BFFFF400FFFFE0
BFFFD000FFFF80
7FFE0000BFFE00
ENDCHAR
STARTCHAR N
ENCODING 78
SWIDTH 853 0
DWIDTH 27 0
BBX 25 28 1 -4
BITMAP
00555400155540
01C00100900040
0BC00042D00040
2FC00007D00040
7FC0500FD01040
BFC05407D01040
BFC04402D01040
BFC04100901040
BFC04040101040
BFC04010001040
BFC04004001040
BFC04001001040
BFC04000401040
BFC04080501040
BFC040E0141040
BFC040F4041040
BFC040FD015040
BFC040FF005040
BFC040FFC01040
BFC040FFD01040
BFC040FFD01040
BFC000FFD00040
BFC000BFD00040
BFC0007FE00040
BFFAAA3FFEAA00
BFFFF43FFFF800
BFFFD03FFFE000
7FFE002FFF4000
ENDCHAR
STARTCHAR O
ENCODING 79
SWIDTH 837 0
DWIDTH 27 0
BBX 25 28 1 -4
BITMAP
00005555554000
00050000005400
00140000000500
00900155500100
02C01400050040
0F804000004040
3F80406A404040
7F8040FFC04040
BF8041FFD04040
FF8041FFD04040
FF8041BFD04040
FF80417FD04040
FF80417FD04040
FF80417FD04040
FF80417FD04040
FF80417FD04040
FF80417FC04040
FF8040BF804040
FF804000004040
FF804000004040
FFC01400050040
BFE00155500100
BFF80000000400
7FFF900001A000
2FFFFFEAFF4000
0FFFFFFFFD0000
02FFFFFFE00000
001AFFF9000000
ENDCHAR
STARTCHAR P
ENCODING 80
SWIDTH 782 0
DWIDTH 25 0
BBX 24 28 1 -4
BITMAP
005555555500
01C000000050
0BC000000004
2FC000000004
7FC055555001
BFC040000501
BFC040000101
BFC040FF0101
BFC040FF4041
BFC040FF4041
BFC040FF4041
BFC040BE0101
BFC040000101
BFC040000501
BFC055555004
BFC040000004
BFC040000010
BFC040000580
BFC040FFFD00
BFC040FFF400
BFC040FFD000
BFC040A90000
BFC000400000
BFC000400000
BFFAAA000000
BFFFF8000000
BFFFD0000000
7FFF40000000
ENDCHAR
STARTCHAR Q
ENCODING 81
SWIDTH 837 0
DWIDTH 27 0
BBX 25 31 1 -7
BITMAP
00005555554000
00054000005400
00140000000500
00900155500100
02C01400050040
0B804000004040
2F804000004040
7F8040BF804040
BF8041FFC04040
FF8041FFD04040
FF8041FFD04040
FF8041BFD04040
FF80417FD04040
FF80417FD04040
FF80417FD04040
FF80417FD04040
FF80417FD04040
FF80407FC04040
FF80406A404040
FF804000004040
FFC01400050040
BFE00155500100
BFF80004000400
7FFF500401A000
3FFFF8000F8000
1FFFFC000D0000
07FFFC00040000
006FFFFFD00000
000BFFFF400000
000BFFFC000000
0006AAA0000000
ENDCHAR
STARTCHAR R
ENCODING 82
SWIDTH 843 0
DWIDTH 27 0
BBX 26 28 1 -4
BITMAP
00555555554000
01C00000001000
0BC00000000400
2FC00000000400
7FC05555500400
BFC04000040100
BFC04000040100
BFC040FE010100
BFC040FF010100
BFC040FF010400
BFC040FE010400
BFC04000041400
BFC04000040100
BFC05555550040
BFC04000004040
BFC04000001010
BFC04000001010
BFC040FFE01010
BFC040FFE01010
BFC040FFE01010
BFC040BFE01010
BFC0006FE01010
BFC0006FE00010
BFC0006FF00010
BFFAAA2FFEAA80
BFFFF82FFFFD00
BFFFD02FFFF400
7FFE401FFF8000
ENDCHAR
STARTCHAR S
ENCODING 83
SWIDTH 750 0
DWIDTH 24 0
BBX 23 28 1 -4
BITMAP
000155555540
000400000010
005000000010
018000000010
078015555010
2F4040000010
7F4040000000
BF4101FFFF40
FF4101FFFD00
FF410015A400
FF4040000140
FF8040000010
FFC015500010
FFE000055004
FFF900001404
FFFFE9500404
BFFFFFF80404
2FFFFFF80404
078000000404
074000000404
1F4000001004
BF4155554010
FF4000000040
FF4000000600
FFEAAAAAF800
FFFFFFFFE000
FFFFFFFF4000
BFFFFFE80000
ENDCHAR
STARTCHAR T
ENCODING 84
SWIDTH 756 0
DWIDTH 24 0
BBX 24 28 0 -4
BITMAP
005555555555
028000000001
0B8000000001
2F8000000001
BF8155555541
FF8000040001
FF8000040001
FFFAA4040AA8
FFFFF4040FE0
FFFFF4040F80
BFFFF4040E00
000FF4040400
000FF4040400
000FF4040400
000FF4040400
000FF4040400
000FF4040400
000FF4040400
000FF4040400
000FF4040400
000FF4040400
000FF4000400
000FF4000400
000FF8001000
000FFFAA9000
000FFFFF4000
000FFFFC0000
000BFFE00000
ENDCHAR
STARTCHAR U
ENCODING 85
SWIDTH 846 0
DWIDTH 27 0
BBX 25 28 1 -4
BITMAP
00555500155540
02800040900040
0B800047D00040
2F80405FD00040
BF80407FD04040
BF80407FD04040
BF80407FD04040
BF80407FD04040
BF80407FD04040
BF80407FD04040
BF80407FD04040
BF80407FD04040
BF80407FD04040
BF80407FD04040
BF80407FD04040
BF80407FD04040
BF80407FD04040
BF80407FC04040
BF804005004040
BFC01000004040
BFD01400050040
BFE00155500100
7FF90000000400
3FFF900001A000
2FFFFFFAFF4000
0BFFFFFFFD0000
01FFFFFFE00000
001AFFF9000000
ENDCHAR
STARTCHAR V
ENCODING 86
SWIDTH 830 0
DWIDTH 27 0
BBX 25 28 1 -4
BITMAP
00555500555540
02400041C00040
0F400047C00040
7F40405FC04040
FF4040BFC04040
FF4040BFC04040
FF4040BFC04040
FF4040BFC04040
FF4040BFC04040
FF4040BFC04040
FF4040BFC04040
FF4040BFC04040
FF8040BF804040
FFC0407F404100
FFD0403F010100
FFE0103E010100
BFF0102D010400
7FF40408040400
3FF80400040400
2FFD0400101000
1FFE0100101000
0FFF0055404000
07FF4000004000
03FF8000004000
02FFFAAAA90000
01FFFFFFF40000
00FFFFFF800000
007FFFFE000000
ENDCHAR
STARTCHAR W
ENCODING 87
SWIDTH 931 0
DWIDTH 30 0
BBX 28 28 1 -4
BITMAP
00555500005555
02800100024001
0B8001001F4001
3F8041007F4101
BF804100FF4101
FF804101FF4101
FF804101FF4101
FF804101FF4101
FF804105BF4101
FF8041600B4101
FF8041D0074101
FF8041C0034101
FF804180014101
FF804141404101
FF804004100101
FF804010040101
FF804010040101
FFC04040010101
BFD04042810104
BFE04103C04104
BFF01107D04404
7FF4140BE01410
3FF8000FF00010
2FFC001FF40010
1FFFAABFFFAA40
0FFFFE2FFFFD00
0BFFF81FFFF000
03FFE00BFF8000
ENDCHAR
STARTCHAR X
ENCODING 88
SWIDTH 837 0
DWIDTH 27 0
BBX 25 28 1 -4
BITMAP
00555500155540
02800100900040
0B800102D00040
2F80010BD00040
BF80406FC04040
FF80407FC04040
FF80407F404040
FFC0502E010100
BFE01008010100
BFF40400040400
BFFC0100100400
3FFE0100101000
1FFF4055404000
0BFE0100101000
03F80500100400
01F00400040500
02D01019010100
07C0403F004040
0F8040BF804040
2F8041FFC04040
7F8041FFD04040
BF8001FFD00040
BF8001BFD00040
FF80017FD00040
FFFAA97FFAAA00
FFFFF47FFFF800
BFFF807FFFE000
BFFE003FFF4000
ENDCHAR
STARTCHAR Y
ENCODING 89
SWIDTH 805 0
DWIDTH 26 0
BBX 25 28 0 -4
BITMAP
00155540155540
01C00040600040
07C00042E00040
1FC0404BE01040
7FC0406FE01040
7FC0406FE01040
7FC0406FE01040
7FC0406FE01040
7FC0406FD01040
7FD0102F804040
7FD0100F404040
7FF00405010040
7FF80100040100
3FFD0100040400
2FFF0040101400
1FFF8015401000
0BFFE004004000
02FFF404010000
00FFFC04010000
007FFD04040000
002FFD04040000
000FFD00040000
0007FD00040000
0007FD00040000
0007FFAAA40000
0007FFFFC00000
0007FFFE000000
0002FFF8000000
ENDCHAR
STARTCHAR Z
ENCODING 90
SWIDTH 760 0
DWIDTH 24 0
BBX 24 28 0 -4
BITMAP
001555555554
006000000004
02E000000004
0BE000000004
2FE015555404
2FE000000104
2FF000000504
2FFEAA900404
2FFFFF801004
2FFFFE004010
1FFFFC014040
000074010100
0001D0040400
000780100400
000E00401000
002C01404000
00B401010000
01D004015554
07D010000001
0FC010000001
2FC040000001
7FC015555501
7FC000000001
7FD000000001
7FFAAAAAAAA8
7FFFFFFFFFE0
7FFFFFFFFF40
3FFFFFFFFD00
ENDCHAR
STARTCHAR bracketleft
ENCODING 91
SWIDTH 529 0
DWIDTH 17 0
BBX 17 33 0 -6
BITMAP
0015555500
0090000040
02D0000040
0FD0554040
3FD0400040
7FD0400040
7FD0405600
7FD0407800
7FD0406000
7FD0404000
7FD0404000
7FD0404000
7FD0404000
7FD0404000
7FD0404000
7FD0404000
7FD0404000
7FD0404000
7FD0404000
7FD0404000
7FD0404000
7FD0404000
7FD0405500
7FD0400040
7FD0400040
7FD0400040
7FD0554040
7FD0000040
7FD0000000
7FFEAAA900
7FFFFFF400
7FFFFFC000
2FFFFE0000
ENDCHAR
STARTCHAR backslash
ENCODING 92
SWIDTH 487 0
DWIDTH 16 0
BBX 16 34 0 -6
BITMAP
00555400
01800100
0B800100
2F800100
BFC04100
FFC04040
BFD04040
BFD04040
BFD04040
7FE01040
7FE01040
3FF01040
3FF01010
2FF41010
2FF41010
2FF41010
1FF80410
1FF80410
0FFC0410
0FFC0404
0BFD0404
0BFD0404
0BFD0404
07FE0104
07FE0104
03FF0104
03FF0101
02FF4001
02FF4001
02FF8001
01FFFFF8
01FFFFD0
00FFFF40
00AAA900
ENDCHAR
STARTCHAR bracketright
ENCODING 93
SWIDTH 529 0
DWIDTH 17 0
BBX 17 33 0 -6
BITMAP
0015555500
0090000100
02C0000040
1FC0554040
3FC0004040
7FC0004040
7FD0004040
7FFF804040
7FFF804040
7FFF804040
2FFF804040
00FF804040
00FF804040
00FF804040
00FF804040
00FF804040
00FF804040
00FF804040
00FF804040
00FF804040
00FF804040
00FF804040
00FF804040
00D0004040
01C0004040
0BC0004040
2FC0554040
7FC0000040
7FD0000100
7FFEAAA900
7FFFFFF400
7FFFFFC000
3FFFFE0000
ENDCHAR
STARTCHAR asciicircum
ENCODING 94
SWIDTH 814 0
DWIDTH 26 0
BBX 25 22 0 2
BITMAP
00000555540000
00001000010000
00009000004000
0002C055404000
000F8100104000
002F4100101000
007F0100041000
00BE040D041000
00FD041D040400
01FC041E040400
02F8042F010400
03F8103F410400
07F4107F810100
0BF010BF804100
0BE040BFC04100
0FD000FFD00040
1FC001BFE00040
2FC001BFF00040
3FFFF87FFFFE00
7FFFE03FFFF800
7FFF402FFFD000
2FF9001BFE4000
ENDCHAR
STARTCHAR underscore
ENCODING 95
SWIDTH 834 0
DWIDTH 27 0
BBX 25 11 1 -7
BITMAP
00155555555500
00800000000040
07C00000000040
1FC05555554040
7FC00000000040
BFC00000000040
BFC00000000140
BFFAAAAAAAA900
BFFFFFFFFFF400
BFFFFFFFFFD000
7FFFFFFFFE0000
ENDCHAR
STARTCHAR grave
ENCODING 96
SWIDTH 600 0
DWIDTH 19 0
BBX 19 11 0 20
BITMAP
0055554000
02C0001550
0BC0000004
2FC0555404
7FC0000004
7FE5400004
7FFFFEA544
7FFFFFFFE0
7FFFFFFF40
16AFFFFD00
000016A400
ENDCHAR
STARTCHAR a
ENCODING 97
SWIDTH 830 0
DWIDTH 27 0
BBX 25 28 1 -4
BITMAP
00005555550000
00014000004000
00070000004000
001E0000001000
003D0155401000
00BC0500101000
01F80400040400
02F4042D040400
03E0103E040100
07D0107F010100
0BC040BF010100
1F8040FF404040
2F804055404040
3F404000004040
7F410000004040
BF415555558040
FF410000004040
FF410000004040
FF4101AA804040
FF4102FFC04040
FF4102FFC04040
FF4002FFC00040
FF40017FC00040
FF80017FD00040
FFFAA87FFAAA00
FFFFE07FFFF800
FFFF407FFFD000
BFFD003FFF4000
ENDCHAR
STARTCHAR b
ENCODING 98
SWIDTH 825 0
DWIDTH 26 0
BBX 25 28 1 -4
BITMAP
00555555550000
01C00000005000
0BC00000001000
2FC00000000400
7FC05555500400
BFC04000040400
BFC04055040400
BFC040FF040400
BFC040FF040400
BFC040FE040400
BFC04000042000
BFC04000041400
BFC05555550100
BFC04000004040
BFC04000004040
BFC040FFD05040
BFC040FFD01040
BFC040FFD01040
BFC040AA801040
BFC04000004040
BFC04000004040
BFC05555550040
BFC00000000100
BFC00000001400
BFFAAAAAABE000
BFFFFFFFFF4000
BFFFFFFFFD0000
7FFFFFFF900000
ENDCHAR
STARTCHAR c
ENCODING 99
SWIDTH 728 0
DWIDTH 23 0
BBX 22 28 1 -4
BITMAP
000055555550
000500000010
002000000010
009000000010
02C005555010
0F8050000010
3F8040000010
7F80406AAA80
BF8040FFFE00
BF8041FFF400
FF8041FFD000
FF8041000000
FF8041000000
FF8041000000
FF8041000000
FF8041000000
FF8040400000
FF8040555540
FF8040000010
FF8040000010
FFC050000010
BFE005555010
BFF400000010
7FFE40000010
2FFFFFAAAA80
0FFFFFFFFE00
07FFFFFFF400
006FFFFFD000
ENDCHAR
STARTCHAR d
ENCODING 100
SWIDTH 846 0
DWIDTH 27 0
BBX 25 28 1 -4
BITMAP
00555555554000
01C00000001400
0BC00000000100
2FC00000000040
7FC05555540040
BFC04000014040
BFC04000004040
BFC040AA804040
BFC040FFD01040
BFC040FFD01040
BFC040FFD01040
BFC040BFD01040
BFC0407FD01040
BFC0407FD01040
BFC0407FD01040
BFC0407FD01040
BFC0407FD01040
BFC0406A801040
BFC04000004040
BFC04000004040
BFC04000014040
BFC05555540100
BFC00000000500
BFC00000006400
BFFAAAAABF8000
BFFFFFFFFE0000
BFFFFFFFF40000
7FFFFFFE400000
ENDCHAR
STARTCHAR e
ENCODING 101
SWIDTH 754 0
DWIDTH 24 0
BBX 23 28 1 -4
BITMAP
005555555550
01C000000004
0BC000000004
2FC000000004
7FC055555404
BFC040000004
BFC040000010
BFC040FFFFD0
BFC040FFFF40
BFC040555900
BFC040000100
BFC040000100
BFC055554100
BFC040000100
BFC040000100
BFC040FFF800
BFC040FFD000
BFC040AA9550
BFC040000004
BFC040000004
BFC040000004
BFC055555404
BFC000000004
BFC000000004
BFFAAAAAAA90
BFFFFFFFFF40
BFFFFFFFFD00
7FFFFFFFE000
ENDCHAR
STARTCHAR f
ENCODING 102
SWIDTH 718 0
DWIDTH 23 0
BBX 22 28 1 -4
BITMAP
005555555550
01C000000010
0BC000000010
2FC000000010
7FC055555410
BFC040000010
BFC040000010
BFC040FFFF80
BFC040FFFD00
BFC040FFF400
BFC040555400
BFC040000000
BFC040000100
BFC055550100
BFC040000100
BFC040000100
BFC040000400
BFC040FFF000
BFC040FF8000
BFC040FE0000
BFC040A80000
BFC040400000
BFC000400000
BFC000400000
BFFAAA000000
BFFFF8000000
BFFFD0000000
7FFF40000000
ENDCHAR
STARTCHAR g
ENCODING 103
SWIDTH 808 0
DWIDTH 26 0
BBX 24 28 1 -4
BITMAP
000055555550
000500000010
002000000010
009000000010
03C005555410
0F8010000010
3F8040000010
7F80406AAA80
BF8040FFFE00
BF8041FFF800
FF8041FFD000
FF8041005555
FF8041014001
FF80410B4001
FF80412F4001
FF8041BF4101
FF8041FF4101
FF8040FF4101
FF8040150101
FF8040000101
FFC010000101
BFE005555501
BFF400000001
7FFE40000001
2FFFFFAAAAA9
0FFFFFFFFFE0
07FFFFFFFF80
006FFFFFFE00
ENDCHAR
STARTCHAR h
ENCODING 104
SWIDTH 859 0
DWIDTH 27 0
BBX 25 28 1 -4
BITMAP
00555540155540
01C00040A00040
0BC00042E00040
2FC0004FE00040
7FC0406FE01040
BFC0407FE01040
BFC0407FE01040
BFC0407FE01040
BFC0406A901040
BFC04000001040
BFC04000001040
BFC04000001040
BFC05555555040
BFC04000001040
BFC04000001040
BFC04000001040
BFC040FFE01040
BFC040FFE01040
BFC040FFE01040
BFC040BFE01040
BFC0407FE01040
BFC0007FE00040
BFC0007FE00040
BFC0007FE00040
BFFAAA3FFEAA40
BFFFF83FFFFC00
BFFFD03FFFE000
7FFF402FFF8000
ENDCHAR
STARTCHAR i
ENCODING 105
SWIDTH 705 0
DWIDTH 23 0
BBX 21 28 1 -4
BITMAP
005555555540
024000000040
0F4000000040
7F4000000040
FF4155554040
FF4000400040
FF9500401540
FFFF8040FD00
FFFF8040F400
FFFF80409000
6AFF80404000
00BF80404000
00BF80404000
00BF80404000
00BF80404000
00BF80404000
00BF80404000
00AA40405500
014000400040
0B4000400040
2F4000400040
BF4155554040
FF4000000040
FF4000000040
FFEAAAAAAA00
FFFFFFFFF800
FFFFFFFFD000
BFFFFFFF4000
ENDCHAR
STARTCHAR j
ENCODING 106
SWIDTH 788 0
DWIDTH 25 0
BBX 24 28 0 -4
BITMAP
000000005555
000000024001
0000000F4001
0000007F4001
000000FF4101
000000FF4101
000000FF4101
000000FF4101
000000FF4101
000000FF4101
000000FF4101
001555FF4101
008000FF4101
07C000FF4101
1FC000FF4101
7FC040FF4101
7FC040FF4101
7FC040FF0101
7FC040140101
7FC050000101
7FD014000401
7FF001555004
7FFD00000010
3FFF90000680
1FFFFFFBFE00
0BFFFFFFF800
01FFFFFFD000
001AFFE90000
ENDCHAR
STARTCHAR k
ENCODING 107
SWIDTH 846 0
DWIDTH 27 0
BBX 25 28 1 -4
BITMAP
00555500155540
01C00040800040
0BC00043400100
2FC0004F000100
7FC0407D010400
BFC040FC040400
BFC040F8040400
BFC040F4101000
BFC040F0101000
BFC04050101400
BFC04000400100
BFC04000400040
BFC05555550040
BFC04000004040
BFC04000004040
BFC04055404040
BFC040FFD01040
BFC040FFD01040
BFC040FFD01040
BFC040BFD01040
BFC0407FD01040
BFC0007FD00040
BFC0007FD00040
BFC0007FE00040
BFFAAA3FFAAA40
BFFFF83FFFF800
BFFFD03FFFE000
7FFF402FFF8000
ENDCHAR
STARTCHAR l
ENCODING 108
SWIDTH 795 0
DWIDTH 25 0
BBX 24 28 1 -4
BITMAP
005555400000
01C000400000
0BC000400000
2FC040400000
7FC040400000
BFC040400000
BFC040400000
BFC040400000
BFC040400000
BFC040400000
BFC040400000
BFC040405555
BFC040418001
BFC040478001
BFC0406F8001
BFC040BF8101
BFC040FF8101
BFC040FF8101
BFC040554101
BFC040000101
BFC040000101
BFC055555501
BFC000000001
BFC000000001
BFFAAAAAAAA8
BFFFFFFFFFE0
BFFFFFFFFF80
7FFFFFFFFD00
ENDCHAR
STARTCHAR m
ENCODING 109
SWIDTH 949 0
DWIDTH 30 0
BBX 28 28 1 -4
BITMAP
00555540005555
01C00040020001
0BC000100D0001
2FC00010380001
7FC05404F40501
BFC04402E01101
BFC04102D04101
BFC04041810101
BFC04010010101
BFC04010040101
BFC04004100101
BFC04001400101
BFC04080014101
BFC040C0024101
BFC040E0074101
BFC040F41F4101
BFC040FFFF4101
BFC040FFFF4101
BFC040FDFF4101
BFC040E0FF4101
BFC04040FF4101
BFC00040FF4001
BFC00040FF4001
BFC00000FF8001
BFFAA900FFFAA8
BFFFF400FFFFE0
BFFFD000FFFF80
7FFE0000BFFE00
ENDCHAR
STARTCHAR n
ENCODING 110
SWIDTH 853 0
DWIDTH 27 0
BBX 25 28 1 -4
BITMAP
00555400155540
01C00100900040
0BC00042D00040
2FC00007D00040
7FC0500FD01040
BFC05407D01040
BFC04402D01040
BFC04100901040
BFC04040101040
BFC04010001040
BFC04004001040
BFC04001001040
BFC04000401040
BFC04080501040
BFC040E0141040
BFC040F4041040
BFC040FD015040
BFC040FF005040
BFC040FFC01040
BFC040FFD01040
BFC040FFD01040
BFC000FFD00040
BFC000BFD00040
BFC0007FE00040
BFFAAA3FFEAA00
BFFFF43FFFF800
BFFFD03FFFE000
7FFE002FFF4000
ENDCHAR
STARTCHAR o
ENCODING 111
SWIDTH 837 0
DWIDTH 27 0
BBX 25 28 1 -4
BITMAP
00005555554000
00050000005400
00140000000500
00900155500100
02C01400050040
0F804000004040
3F80406A404040
7F8040FFC04040
BF8041FFD04040
FF8041FFD04040
FF8041BFD04040
FF80417FD04040
FF80417FD04040
FF80417FD04040
FF80417FD04040
FF80417FD04040
FF80417FC04040
FF8040BF804040
FF804000004040
FF804000004040
FFC01400050040
BFE00155500100
BFF80000000400
7FFF900001A000
2FFFFFEAFF4000
0FFFFFFFFD0000
02FFFFFFE00000
001AFFF9000000
ENDCHAR
STARTCHAR p
ENCODING 112
SWIDTH 782 0
DWIDTH 25 0
BBX 24 28 1 -4
BITMAP
005555555500
01C000000050
0BC000000004
2FC000000004
7FC055555001
BFC040000501
BFC040000101
BFC040FF0101
BFC040FF4041
BFC040FF4041
BFC040FF4041
BFC040BE0101
BFC040000101
BFC040000501
BFC055555004
BFC040000004
BFC040000010
BFC040000580
BFC040FFFD00
BFC040FFF400
BFC040FFD000
BFC040A90000
BFC000400000
BFC000400000
BFFAAA000000
BFFFF8000000
BFFFD0000000
7FFF40000000
ENDCHAR
STARTCHAR q
ENCODING 113
SWIDTH 837 0
DWIDTH 27 0
BBX 25 31 1 -7
BITMAP
00005555554000
00054000005400
00140000000500
00900155500100
02C01400050040
0B804000004040
2F804000004040
7F8040BF804040
BF8041FFC04040
FF8041FFD04040
FF8041FFD04040
FF8041BFD04040
FF80417FD04040
FF80417FD04040
FF80417FD04040
FF80417FD04040
FF80417FD04040
FF80407FC04040
FF80406A404040
FF804000004040
FFC01400050040
BFE00155500100
BFF80004000400
7FFF500401A000
3FFFF8000F8000
1FFFFC000D0000
07FFFC00040000
006FFFFFD00000
000BFFFF400000
000BFFFC000000
0006AAA0000000
ENDCHAR
STARTCHAR r
ENCODING 114
SWIDTH 843 0
DWIDTH 27 0
BBX 26 28 1 -4
BITMAP
00555555554000
01C00000001000
0BC00000000400
2FC00000000400
7FC05555500400
BFC04000040100
BFC04000040100
BFC040FE010100
BFC040FF010100
BFC040FF010400
BFC040FE010400
BFC04000041400
BFC04000040100
BFC05555550040
BFC04000004040
BFC04000001010
BFC04000001010
BFC040FFE01010
BFC040FFE01010
BFC040FFE01010
BFC040BFE01010
BFC0006FE01010
BFC0006FE00010
BFC0006FF00010
BFFAAA2FFEAA80
BFFFF82FFFFD00
BFFFD02FFFF400
7FFE401FFF8000
ENDCHAR
STARTCHAR s
ENCODING 115
SWIDTH 750 0
DWIDTH 24 0
BBX 23 28 1 -4
BITMAP
000155555540
000400000010
005000000010
018000000010
078015555010
2F4040000010
7F4040000000
BF4101FFFF40
FF4101FFFD00
FF410015A400
FF4040000140
FF8040000010
FFC015500010
FFE000055004
FFF900001404
FFFFE9500404
BFFFFFF80404
2FFFFFF80404
078000000404
074000000404
1F4000001004
BF4155554010
FF4000000040
FF4000000600
FFEAAAAAF800
FFFFFFFFE000
FFFFFFFF4000
BFFFFFE80000
ENDCHAR
STARTCHAR t
ENCODING 116
SWIDTH 756 0
DWIDTH 24 0
BBX 24 28 0 -4
BITMAP
005555555555
028000000001
0B8000000001
2F8000000001
BF8155555541
FF8000040001
FF8000040001
FFFAA4040AA8
FFFFF4040FE0
FFFFF4040F80
BFFFF4040E00
000FF4040400
000FF4040400
000FF4040400
000FF4040400
000FF4040400
000FF4040400
000FF4040400
000FF4040400
000FF4040400
000FF4040400
000FF4000400
000FF4000400
000FF8001000
000FFFAA9000
000FFFFF4000
000FFFFC0000
000BFFE00000
ENDCHAR
STARTCHAR u
ENCODING 117
SWIDTH 846 0
DWIDTH 27 0
BBX 25 28 1 -4
BITMAP
00555500155540
02800040900040
0B800047D00040
2F80405FD00040
BF80407FD04040
BF80407FD04040
BF80407FD04040
BF80407FD04040
BF80407FD04040
BF80407FD04040
BF80407FD04040
BF80407FD04040
BF80407FD04040
BF80407FD04040
BF80407FD04040
BF80407FD04040
BF80407FD04040
BF80407FC04040
BF804005004040
BFC01000004040
BFD01400050040
BFE00155500100
7FF90000000400
3FFF900001A000
2FFFFFFAFF4000
0BFFFFFFFD0000
01FFFFFFE00000
001AFFF9000000
ENDCHAR
STARTCHAR v
ENCODING 118
SWIDTH 830 0
DWIDTH 27 0
BBX 25 28 1 -4
BITMAP
00555500555540
02400041C00040
0F400047C00040
7F40405FC04040
FF4040BFC04040
FF4040BFC04040
FF4040BFC04040
FF4040BFC04040
FF4040BFC04040
FF4040BFC04040
FF4040BFC04040
FF4040BFC04040
FF8040BF804040
FFC0407F404100
FFD0403F010100
FFE0103E010100
BFF0102D010400
7FF40408040400
3FF80400040400
2FFD0400101000
1FFE0100101000
0FFF0055404000
07FF4000004000
03FF8000004000
02FFFAAAA90000
01FFFFFFF40000
00FFFFFF800000
007FFFFE000000
ENDCHAR
STARTCHAR w
ENCODING 119
SWIDTH 931 0
DWIDTH 30 0
BBX 28 28 1 -4
BITMAP
00555500005555
02800100024001
0B8001001F4001
3F8041007F4101
BF804100FF4101
FF804101FF4101
FF804101FF4101
FF804101FF4101
FF804105BF4101
FF8041600B4101
FF8041D0074101
FF8041C0034101
FF804180014101
FF804141404101
FF804004100101
FF804010040101
FF804010040101
FFC04040010101
BFD04042810104
BFE04103C04104
BFF01107D04404
7FF4140BE01410
3FF8000FF00010
2FFC001FF40010
1FFFAABFFFAA40
0FFFFE2FFFFD00
0BFFF81FFFF000
03FFE00BFF8000
ENDCHAR
STARTCHAR x
ENCODING 120
SWIDTH 837 0
DWIDTH 27 0
BBX 25 28 1 -4
BITMAP
00555500155540
02800100900040
0B800102D00040
2F80010BD00040
BF80406FC04040
FF80407FC04040
FF80407F404040
FFC0502E010100
BFE01008010100
BFF40400040400
BFFC0100100400
3FFE0100101000
1FFF4055404000
0BFE0100101000
03F80500100400
01F00400040500
02D01019010100
07C0403F004040
0F8040BF804040
2F8041FFC04040
7F8041FFD04040
BF8001FFD00040
BF8001BFD00040
FF80017FD00040
FFFAA97FFAAA00
FFFFF47FFFF800
BFFF807FFFE000
BFFE003FFF4000
ENDCHAR
STARTCHAR y
ENCODING 121
SWIDTH 805 0
DWIDTH 26 0
BBX 25 28 0 -4
BITMAP
00155540155540
01C00040600040
07C00042E00040
1FC0404BE01040
7FC0406FE01040
7FC0406FE01040
7FC0406FE01040
7FC0406FE01040
7FC0406FD01040
7FD0102F804040
7FD0100F404040
7FF00405010040
7FF80100040100
3FFD0100040400
2FFF0040101400
1FFF8015401000
0BFFE004004000
02FFF404010000
00FFFC04010000
007FFD04040000
002FFD04040000
000FFD00040000
0007FD00040000
0007FD00040000
0007FFAAA40000
0007FFFFC00000
0007FFFE000000
0002FFF8000000
ENDCHAR
STARTCHAR z
ENCODING 122
SWIDTH 760 0
DWIDTH 24 0
BBX 24 28 0 -4
BITMAP
001555555554
006000000004
02E000000004
0BE000000004
2FE015555404
2FE000000104
2FF000000504
2FFEAA900404
2FFFFF801004
2FFFFE004010
1FFFFC014040
000074010100
0001D0040400
000780100400
000E00401000
002C01404000
00B401010000
01D004015554
07D010000001
0FC010000001
2FC040000001
7FC015555501
7FC000000001
7FD000000001
7FFAAAAAAAA8
7FFFFFFFFFE0
7FFFFFFFFF40
3FFFFFFFFD00
ENDCHAR
STARTCHAR braceleft
ENCODING 123
SWIDTH 555 0
DWIDTH 18 0
BBX 17 33 0 -6
BITMAP
0000055540
0000500040
0001000040
0009015040
0028050040
01F8040040
03F4040580
0BF4041E00
0BF4041800
0FF4041000
0FF4041000
0FE0041000
0F80501000
0F40401000
1F41038000
7F40415000
FF80401000
FFD0101000
FFF4041000
FFF4041000
BFF4041000
2FF4041000
0FF4040540
0FF4040040
0FF8040040
0FFC050040
0FFD005040
0FFF400040
0BFFE40040
07FFFFFA40
02FFFFFC00
00BFFFE000
001AFF8000
ENDCHAR
STARTCHAR bar
ENCODING 124
SWIDTH 447 0
DWIDTH 14 0
BBX 12 34 1 -6
BITMAP
001555
018001
078001
1F8001
7F8041
BF8041
BF8041
BF8041
BF8041
BF8041
BF8041
BF8041
BF8041
BF8041
BF8041
BF8041
BF8041
BF8041
BF8041
BF8041
BF8041
BF8041
BF8041
BF8041
BF8041
BF8041
BF8041
BF8001
BF8001
BFC001
BFFFFC
BFFFE0
BFFF80
6AA900
ENDCHAR
STARTCHAR braceright
ENCODING 125
SWIDTH 555 0
DWIDTH 18 0
BBX 18 33 0 -6
BITMAP
0015540000
0090005000
02C0001400
1FC0500400
3FC0050100
7FC0010100
7FD0010100
7FFF010100
7FFF410100
7FFF410100
2FFF410100
01FF410140
01FF404050
01FF401010
01FFE41010
01FFE81010
00FF401010
00BF404010
002F410140
00BF410100
00FF410100
01FF410100
01FF010100
01D0010100
01C0010100
0BC0050100
2FC0500400
7FC0001400
7FD0018000
7FFEFE0000
7FFFF80000
7FFFD00000
3FF9000000
ENDCHAR
STARTCHAR asciitilde
ENCODING 126
SWIDTH 834 0
DWIDTH 27 0
BBX 25 11 1 5
BITMAP
00015550000500
00140005555100
00800000000040
07C05554000040
1FC00001554040
7FC00000000100
BFC06950000500
BFFFFFFFEAB400
BFFFFFFFFFD000
BFFFFFFFFF0000
7E556AFFE40000
ENDCHAR
STARTCHAR uni00A0
ENCODING 160
SWIDTH 325 0
DWIDTH 10 0
BBX 1 1 0 0
BITMAP
00
ENDCHAR
STARTCHAR exclamdown
ENCODING 161
SWIDTH 523 0
DWIDTH 17 0
BBX 13 28 2 -4
BITMAP
00555540
02400040
0F400040
7F400040
FF404040
FF400040
FF800040
FFFFFE00
FFFFFD00
FFC00040
BF800040
0B800040
3F804040
BF804040
BF804040
BF804040
BF804040
BF804040
BF804040
FF404040
FF404040
FF400040
FF400040
FF400040
FFEAAA40
FFFFF800
FFFFE000
BFFF8000
ENDCHAR
STARTCHAR cent
ENCODING 162
SWIDTH 728 0
DWIDTH 23 0
BBX 22 31 1 -5
BITMAP
000001555000
000018001000
000078001000
0001F8000540
000640040010
001400040010
009005555010
02C010000010
0B8040000010
2F8040000010
7F8040BFFF80
BF8040FFFD00
BF8041FFF400
FF8041EA9000
FF8041000000
FF8041000000
FF8040400000
FF8040555540
FF8040000010
FF8040000010
FFC010000010
BFD005555010
BFF400040010
7FFE00040010
3FFFF8000A40
1FFFF8001E00
07FFFC001400
00BFFFFF9000
000BFFFF0000
000BFFF80000
0007FFE00000
ENDCHAR
STARTCHAR sterling
ENCODING 163
SWIDTH 795 0
DWIDTH 25 0
BBX 25 28 0 -4
BITMAP
00001555554000
00014000001000
00050000001000
00180000001000
00B40155501000
02F00400001000
0BF01000000000
0FF0101AAA4000
1FF0102FFD0000
1FF0103FF00000
2F801001800000
2F401000000000
3F416540000000
FF401000155540
FF401001A00040
FF901016E00040
FFF0103FE00040
FFF0103FE04040
FFF01000004040
6FF01000004040
2FF01000004040
2FF01555554040
2FF00000000040
2FF00000000040
2FFEAAAAAAAA00
2FFFFFFFFFF800
2FFFFFFFFFE000
1FFFFFFFFF4000
ENDCHAR
STARTCHAR currency
ENCODING 164
SWIDTH 921 0
DWIDTH 29 0
BBX 29 28 0 -4
BITMAP
0001500000015400
0009040000090500
0024015555640140
0090004000000040
02E0100000004040
0BF4040555010100
2FFD015000540400
7FFF410000101000
2FFF810154041000
0BFF8107FD041000
02FF810BFD041000
00FF810BFD041000
00FF810BFD041000
00FF810BFD041000
00FF810BFD041000
00FF8107F8041000
00FF410000101000
00FD015000540400
00F4040555010100
00E0100000004040
02D0004000000040
0BF401FEAFF40100
2FFC07FFFFFD0500
3FFF5FFFFFFF5400
3FFFFFFFBFFFC000
0FFE00000FFE0000
03F8000003F80000
0090000000900000
ENDCHAR
STARTCHAR yen
ENCODING 165
SWIDTH 803 0
DWIDTH 26 0
BBX 25 28 0 -4
BITMAP
00155540155540
01C00040600040
07C00041E00040
1FC0004BE00040
7FC0405FE01040
7FC0406FE01040
7FC0406FE01040
7FD0406FE01040
7FD0103FD04040
7FF0101F804040
7FF8040A010100
7FFD0000000400
3FFF0000000400
1FFF8000001000
0BFE9000005400
03F80004000100
01F80004000100
01F80555550100
07F80004000100
0BFC0004000100
0BFFFD0407F400
0BFFFD0007D000
0BFFFD00074000
06AFFD00040000
0003FFAAA40000
0003FFFF800000
0003FFFE000000
0002FFF4000000
ENDCHAR
STARTCHAR brokenbar
ENCODING 166
SWIDTH 447 0
DWIDTH 14 0
BBX 12 34 1 -6
BITMAP
001555
018001
078001
1F8001
7F8041
BF8041
BF8041
BF8041
BF8041
BF8041
BF8041
BF8001
BF8001
BFC001
BFFAA9
BFFFE0
BFEA95
7F8001
078001
1F8001
7F8041
BF8041
BF8041
BF8041
BF8041
BF8041
BF8041
BF8001
BF8001
BFC001
BFFFFC
BFFFE0
BFFF80
6AA900
ENDCHAR
STARTCHAR section
ENCODING 167
SWIDTH 750 0
DWIDTH 24 0
BBX 23 28 1 -4
BITMAP
000055555540
000500000010
002000000010
00C005555010
078050000010
1F4040000040
3F4101FFFF40
BF4101AABD00
FF4100000500
FF4155554040
FF4100001010
FF4100400410
FF8102FC0104
FFC041FD0104
FFD050000104
FFF405555504
BFFE00000104
7FFFFAA80104
3FFFFFF80104
1FC000000404
038000001410
1F8055554010
7F8000000040
BF8000000600
BFFAAAABF800
BFFFFFFFD000
BFFFFFFF4000
7FFFFFA40000
ENDCHAR
STARTCHAR dieresis
ENCODING 168
SWIDTH 600 0
DWIDTH 19 0
BBX 21 11 -1 20
BITMAP
001555155500
009001600040
02D001D00040
0FD041D04040
3FD001D00040
7FD001D00040
7FD001E00100
7FFFFFFFFD00
7FFFFFFFF400
7FFFBFFF8000
2AA91AAA0000
ENDCHAR
STARTCHAR copyright
ENCODING 169
SWIDTH 967 0
DWIDTH 31 0
BBX 29 34 1 -6
BITMAP
0000015555500000
0000540000054000
0005015555501400
0014540000054500
006141AFFF905100
02C52FFFFFFE0440
0BC4BFFFFFFF8440
2F84FF40000BC440
3F854500000BD440
7F851805550BD440
BF85B410000BD440
BF85F440AABFD440
FF85F441FFFFD440
FF85F441FE7FD440
FF85F441F43FD440
FF85F441003FD440
FF85F441003FD440
FF85F441003FD440
FF85F440556FD440
FF85F440000BD440
FF85F810000BD440
FF85FC05550BD440
FF85FE00000BD440
FF84FFE5555FC440
FFC4BFFFFFFF8440
BFD52FFFFF7E1440
BFE141AFFD545100
7FF8540000050400
3FFF415555505000
2FFFF940005B8000
0FFFFFFFFFFD0000
02FFFFFFFFF40000
006FFFFFFF800000
0001AAAA94000000
ENDCHAR
STARTCHAR ordfeminine
ENCODING 170
SWIDTH 620 0
DWIDTH 20 0
BBX 20 28 0 -4
BITMAP
0001555540
0009000040
002C000010
00B8055010
02F4100410
07F0000404
0BE0428104
0FD043C104
1FC107D041
2FC1054041
3FC1000041
7F81555541
7F81000041
BF81055041
BF810FE041
BF800FE001
BFC00FE001
BFD56FF555
BFFFEFFFF4
BFEA6AAA94
7FC0000001
0B81555541
2F80000001
7FC0000001
BFFAAAAAA8
BFFFFFFFE0
BFFFFFFF40
7FFFFFFD00
ENDCHAR
STARTCHAR guillemotleft
ENCODING 171
SWIDTH 912 0
DWIDTH 29 0
BBX 28 21 0 -1
BITMAP
00000001000004
00000154400155
00005400405401
00050000450001
00140040600041
00A01500901501
02D04000D04001
0FD0401BC04019
2FD041FFC042E0
3FD040BFC04190
3FD04002C04005
7FD05000D05001
7FE00540A00541
3FF40000B40001
3FFE4000BE4001
3FFFF900BFF901
1FFFFFF9FFFFE9
0BFFFFFFFFFFF8
00BFFFF5BFFFD0
0005BF8006BF40
00000500000400
ENDCHAR
STARTCHAR logicalnot
ENCODING 172
SWIDTH 834 0
DWIDTH 27 0
BBX 25 18 1 -2
BITMAP
00155555555500
01800000000040
07C00000000040
2FC05555554040
7FC00000004040
BFC00000004040
BFFFFFFFE04040
BFFFFFFFE04040
BFFFFFFFE04040
7FFFFFFFE04040
0000002FE04040
0000002FE00040
0000002FE00040
0000002FE00140
0000002FFEA900
0000002FFFF400
0000002FFFD000
0000001FFE0000
ENDCHAR
STARTCHAR uni00AD
ENCODING 173
SWIDTH 520 0
DWIDTH 17 0
BBX 16 11 0 4
BITMAP
00155555
00800001
07C00000
1FC05540
7FC00000
7FC00000
7FC00001
7FFAAAA9
7FFFFFF4
7FFFFFC0
7FFFFE00
ENDCHAR
STARTCHAR registered
ENCODING 174
SWIDTH 660 0
DWIDTH 21 0
BBX 19 21 1 3
BITMAP
0006AAAA40
0019AFF960
0097FFFF54
079A000B94
1F5A1543D4
7F5A1613D4
BF5A1713D4
FF5A1017D4
FF5A2551D4
FF5A1144D4
FF5A17C4D4
FF5A17C4D4
FF9A5BD5D4
FF97FFFF54
FFD6BFFA44
FFF5555560
BFFFAAAB80
7FFFFFFD00
1FFFFFF400
06FFFF8000
0005500000
ENDCHAR
STARTCHAR macron
ENCODING 175
SWIDTH 600 0
DWIDTH 19 0
BBX 19 10 0 20
BITMAP
0015555550
0080000004
07C0000004
1FC0555404
7FC0000004
7FD0000004
7FFFFFFFE0
7FFFFFFF40
7FFFFFFD00
2AAAAAA400
ENDCHAR
STARTCHAR degree
ENCODING 176
SWIDTH 583 0
DWIDTH 19 0
BBX 18 18 0 6
BITMAP
0001555500
0014000050
0090555010
02D1400410
0BC1000110
2FC10F8110
7FC11FC110
7FC11FC110
7FC10FC110
7FC1054110
7FD1400410
7FD0555010
7FF4000040
3FFF955A00
3FFFFFF800
1FFFFFD000
02FFFE4000
0015400000
ENDCHAR
STARTCHAR plusminus
ENCODING 177
SWIDTH 834 0
DWIDTH 27 0
BBX 25 28 1 -4
BITMAP
00000155500000
00000900100000
00002D00100000
0000BD00100000
0002FD04100000
0003FD04100000
0003FD04100000
0016A904155500
00800004000040
07C00004000040
1FC05559554040
7FC00004000040
BFC00004000040
BFE55404155600
BFFFFD041FFD00
BFFFFD041FF400
BFFFFD041F8000
7FFFFD001E0000
0016A900155500
01800000000040
07C00000000040
2FC05555554040
7FC00000000040
BFC00000000140
BFFAAAAAAAAA00
BFFFFFFFFFF400
BFFFFFFFFFD000
7FFFFFFFFE0000
ENDCHAR
STARTCHAR twosuperior
ENCODING 178
SWIDTH 585 0
DWIDTH 19 0
BBX 18 21 0 3
BITMAP
0015555500
00B0000040
02E0555010
0FE0000410
2FF5550410
2FFFFF4410
2FFFF90410
2FFE001410
0AB4054010
0090500140
02C1001900
0FC106F400
2FC10A9550
7FC1000010
7FC1555410
7FC0000010
7FC0000010
7FFFFFFFD0
7FFFFFFE00
7FFFFFF800
6AAAAA9000
ENDCHAR
STARTCHAR threesuperior
ENCODING 179
SWIDTH 584 0
DWIDTH 19 0
BBX 19 21 0 3
BITMAP
0065555400
01D0000100
07D1554040
2FD0001040
7FD0001040
7FFFFC1040
7FFFA81040
7FFD001140
15FC155010
02FC000410
07FD000110
07FFFF8104
07FFFF8104
07D0000510
07D1555410
1FD0000010
3FD0000140
7FFFFFFD00
7FFFFFF400
7FFFFFD000
2AAAA90000
ENDCHAR
STARTCHAR acute
ENCODING 180
SWIDTH 600 0
DWIDTH 19 0
BBX 19 11 0 20
BITMAP
0000055554
0015500004
0080000004
07C0555404
1FC0000004
7FC0000154
7FD16AFFD0
7FFFFFFE00
7FFFFFF800
7FFFEA5000
2A50000000
ENDCHAR
STARTCHAR mu
ENCODING 181
SWIDTH 813 0
DWIDTH 26 0
BBX 24 26 1 -7
BITMAP
005555005555
018001428001
0780004B8001
2F80407F8041
BF8040FF8041
BF8040FF8041
BF8040FF8041
BF8040FF8041
BF8040FF8041
BF8040FF8041
BF8040FF8041
BF8040FF8041
BF8040FF4041
BF8080590101
BF8080000101
BF8054000401
BF8041555004
BF8040000024
BF80004016D0
BF8000FFFE00
BF8000FFF800
BFD556FFD000
BFFFFFF90000
BFFFE0000000
BFFF40000000
155500000000
ENDCHAR
STARTCHAR paragraph
ENCODING 182
SWIDTH 782 0
DWIDTH 25 0
BBX 24 28 0 -4
BITMAP
000055555555
000500000001
002000000001
00A000000001
02C005555541
0FC050000041
2F8040000041
7F8100000041
7F8100000041
BF8100000041
BF8100000041
BF8100000041
BFC040000041
BFC050000041
BFD005555541
BFF000400041
7FFD00400041
7FFFD0404041
2FFFE041D041
0FFFE041D041
02FFE041D041
002FE001D001
002FE001D001
002FE001D001
002FFEABFAA8
002FFFFFFFE0
002FFFBFFF40
001FFE2FFD00
ENDCHAR
STARTCHAR periodcentered
ENCODING 183
SWIDTH 464 0
DWIDTH 15 0
BBX 15 13 0 3
BITMAP
00155550
00900004
07C00004
1FC01004
7FC01004
7FC01004
7FC00004
7FC00004
7FD00010
7FFAAA90
7FFFFF40
7FFFFD00
3FFFE000
ENDCHAR
STARTCHAR cedilla
ENCODING 184
SWIDTH 600 0
DWIDTH 19 0
BBX 14 14 2 -8
BITMAP
00005000
00020540
000E0010
007D0410
01FC0410
02F41010
03F01040
07E00040
0BD00040
0FD00100
2FFFF900
3FFFE000
7FFF8000
3FFD0000
ENDCHAR
STARTCHAR onesuperior
ENCODING 185
SWIDTH 557 0
DWIDTH 18 0
BBX 18 21 0 3
BITMAP
0015555400
00A0000400
02E0550400
1FE0010400
2FE0010400
2FFF810400
2FFF810400
2FFF810400
1AFF810400
00BF810400
00BF810400
00BF810400
00BA410540
01D0010010
07D1555410
1FD0000010
3FD0000010
7FFFFFFF80
7FFFFFFD00
7FFFFFF400
2AAAAA8000
ENDCHAR
STARTCHAR ordmasculine
ENCODING 186
SWIDTH 625 0
DWIDTH 20 0
BBX 20 28 0 -4
BITMAP
0001555540
0004000014
0060000004
01D0155401
0BC0400101
2FC107E041
3FC10BF041
7FC10BF041
BFC10BF041
BFC10BF041
BFC10BF041
BFC10BF041
BFC107E041
BFC1000041
BFC0400101
BFD0155404
7FF4000014
7FFE500590
3FFFFFFF40
2FEAAAA954
07C0000001
07C1555541
2FC0000001
7FC0000001
BFFAAAAAA8
BFFFFFFFE0
7FFFFFFF40
7FFFFFFD00
ENDCHAR
STARTCHAR guillemotright
ENCODING 187
SWIDTH 912 0
DWIDTH 29 0
BBX 28 21 1 -1
BITMAP
00140000500000
01869002465000
0780164B001640
2F80006F000060
BF81400B014004
BF801503001404
FF800103400101
FFE40042E40101
FFFFD042FF8101
BFFE8042FE4101
7FD00042900101
07800503400501
0B815007015004
2F80000F000014
BF8000BF000190
FF806FFF006E00
FFDBF9FF9BF800
FFFFE1FFFFE000
FFFE41FFFE0000
BE4001FE400000
10000050000000
ENDCHAR
STARTCHAR onequarter
ENCODING 188
SWIDTH 1303 0
DWIDTH 42 0
BBX 41 28 0 -4
BITMAP
0015555000155400000000
00A0000400800100000000
02E0000402C00100000000
0BE055040B800400000000
2FE001042F810400000000
2FF001047F410400000000
2FFF81047F410400000000
2FFF8104BF010555415540
2FFF8104BF010D00490040
05FF8104FE041D007D0040
00BF8104FE042D107D1040
00BF8105FD042D107D1040
00BF8105FC043D107D1040
00BA4106BC043D107D1040
01D0010038107D107D1040
07D1555438107D10141040
1FD000003410BD04001040
3FD000003410BD01555040
7FFFFFFFF010FE00001040
7FFFFFFFF040FF80001040
7FFFFFEFE041FFFFA91040
2AAAAA9FE001FFFFFD1040
0000001FD002FFFFFD0040
0000002FD0016FFFFD0040
0000002FFAA80003FFAA40
0000003FFFD00003FFFD00
0000003FFF400003FFE000
0000002FFD000002FF8000
ENDCHAR
STARTCHAR onehalf
ENCODING 189
SWIDTH 1260 0
DWIDTH 40 0
BBX 40 28 0 -4
BITMAP
00155550001554000000
00A00004008001000000
02E0000402C001000000
0BE055040B8004000000
2FE001042F8104000000
2FF001047F4104000000
2FFF81047F4104000000
2FFF8104BF0105555540
2FFF8104BF000D000014
00FF8104FE041D055504
00BF8104FE042D000041
00BF8105FD042E000041
00BF8105FC043FFFE041
00BA4106BC043FFF9041
01D0010038107FE40101
07D1555438106B405004
2FD00000341049140014
7FD00000341068100180
7FFFFFFFF010F810BE00
7FFFFFFFF040F810A954
7FFFFFEFE041F8100001
1555555FE001F8155541
0000001FD002F8000001
0000002FD003F8000001
0000002FFAAFFFAAAAA8
0000003FFFEFFFFFFFE0
0000003FFF4FFFFFFF40
0000002FFD0BFFFFFD00
ENDCHAR
STARTCHAR threequarters
ENCODING 190
SWIDTH 1313 0
DWIDTH 42 0
BBX 42 28 0 -4
BITMAP
0015555400155500000000
00D0000100900100000000
07D0000042D00100000000
1FD155404BC00100000000
3FD000105FC04100000000
7FFAA8107F810400000000
7FFFFD107F810400000000
7FFD00107F410555415540
3FFC0011BF410A004A0010
15FC00402F010E047E0410
02FD00001E041E047E0410
07FFFF811E041E047E0410
07FFFF810D042E047E0410
07D000010D042E047E0410
07D000051C043E043E0410
07D155541C043E04190410
2FD0000038107E04000410
3FD00001F8107E01555410
7FFFFFFFF410BF00000410
7FFFFFEBF410BF90000410
7FFFFF8BF010FFFFAA0410
2AAAA90FF000FFFFFE0410
0000000FE001FFFFFE0010
0000001FE0016FFFFE0050
0000002FFEA80002FFEA80
0000002FFFE00002FFFD00
0000002FFF800002FFF400
0000002FFD000002FFD000
ENDCHAR
STARTCHAR questiondown
ENCODING 191
SWIDTH 756 0
DWIDTH 24 0
BBX 24 28 0 -4
BITMAP
000000555540
000002800040
00000B800040
00002F800040
0000BF804040
0000FF800040
0000FF800040
0000FFD55540
0000FFFEA500
0000E5400040
000000000040
000000000040
005001555040
02D015000040
0BC010000040
2FC04016AE00
3FC040BFF800
7FC0406AA554
7FC040000001
7FD010000001
7FD010000001
7FF005555501
7FF800000001
7FFF40000001
3FFFFEAAAAA8
1FFFFFFFFFD0
07FFFFFFFF40
00AFFFFFFD00
ENDCHAR
STARTCHAR Agrave
ENCODING 192
SWIDTH 830 0
DWIDTH 27 0
BBX 25 35 1 -4
BITMAP
00015555000000
000A0000554000
002E0000001000
01FE0155501000
02FE0000001000
02FF9400001000
02FFFFFA945000
02FFFFFFFF4000
02FF8000014000
00AF4000004000
000B0000004000
002E0155401000
00BC0500101000
01F80400040400
02F4042D040400
03F0103E040400
07E0107F010100
0BD040BF010100
1FC040FF404100
2F804055404040
3F404000004040
7F410000004040
BF415555558040
FF410000004040
FF410000004040
FF4101AA804040
FF4102FFC04040
FF4102FFC04040
FF4002FFC00040
FF40017FC00040
FF80017FD00040
FFFAA87FFAAA00
FFFFE07FFFF800
FFFF407FFFD000
BFFD003FFF4000
ENDCHAR
STARTCHAR Aacute
ENCODING 193
SWIDTH 830 0
DWIDTH 27 0
BBX 25 36 1 -4
BITMAP
000000015A8000
00005ABEA55000
0002A540001000
000E0005501000
007E0150001000
01FE0000000000
02FE0000150000
02FE15ABFC0000
02FFD555550000
02FF4000004000
02FF0000004000
02FE0000001000
006D0155401000
00BC0500101000
01F80400040400
02F4042D040400
03E0103E040100
07D0107F010100
0BC040BF010100
1F8040FF404040
2F804055404040
3F404000004040
7F410000004040
BF415555558040
FF410000004040
FF410000004040
FF4101AA804040
FF4102FFC04040
FF4102FFC04040
FF4002FFC00040
FF40017FC00040
FF80017FD00040
FFFAA87FFAAA00
FFFFE07FFFF800
FFFF407FFFD000
BFFD003FFF4000
ENDCHAR
STARTCHAR Acircumflex
ENCODING 194
SWIDTH 830 0
DWIDTH 27 0
BBX 25 36 1 -4
BITMAP
00000015000000
00000500540000
00005000014000
00020055001000
001E0100501000
007E0000001000
01FE0059001000
02FE1BFFE91000
02FFFFFFFF8000
02FF8000014000
02FF4000004000
02FF0000004000
006E0155401000
00BC0500101000
01F80400040400
02F4042D040400
03F0103E040400
07E0107F010100
0BD040BF010100
1FC040FF404100
2F804055404040
3F404000004040
7F410000004040
BF415555558040
FF410000004040
FF410000004040
FF4101AA804040
FF4102FFC04040
FF4102FFC04040
FF4002FFC00040
FF40017FC00040
FF80017FD00040
FFFAA87FFAAA00
FFFFE07FFFF800
FFFF407FFFD000
BFFD003FFF4000
ENDCHAR
STARTCHAR Atilde
ENCODING 195
SWIDTH 830 0
DWIDTH 27 0
BBX 25 35 1 -4
BITMAP
00001554014000
00014001541000
000A0000001000
002E0554001000
00BE0001501000
02FE0000001000
02FE5A95014000
02FFFFFFFE0000
02FF9000014000
02FF4000004000
02EF0000004000
002E0155401000
00BC0500101000
01F80400040400
02F4042D040400
03F0103E040400
07E0107F010100
0BD040BF010100
1FC040FF404100
2F804055404040
3F404000004040
7F410000004040
BF415555558040
FF410000004040
FF410000004040
FF4101AA804040
FF4102FFC04040
FF4102FFC04040
FF4002FFC00040
FF40017FC00040
FF80017FD00040
FFFAA87FFAAA00
FFFFE07FFFF800
FFFF407FFFD000
BFFD003FFF4000
ENDCHAR
STARTCHAR Adieresis
ENCODING 196
SWIDTH 830 0
DWIDTH 27 0
BBX 25 35 1 -4
BITMAP
00015551555000
00080019001000
007C002C001000
01FC042C041000
07FC002C001000
0BFC002C001000
0BFC002D001000
0BFFFFFFFFC000
0BFFD555554000
0BFF4000004000
07FF0000004000
002E0155401000
00BD0500101000
01F80400040400
02F4042D040400
03F0103E040400
07E0107F010100
0BD040BF010100
1FC040FF404100
2F804055404040
3F804000004040
7F410000004040
BF415555558040
FF410000004040
FF410000004040
FF4101AA804040
FF4102FFC04040
FF4102FFC04040
FF4002FFC00040
FF40017FC00040
FF80017FD00040
FFFAA87FFAAA00
FFFFE07FFFF800
FFFF407FFFD000
BFFD003FFF4000
ENDCHAR
STARTCHAR Aring
ENCODING 197
SWIDTH 830 0
DWIDTH 27 0
BBX 25 36 1 -4
BITMAP
00000155500000
00005000050000
00014000004000
00060155501000
002D0400141000
00BD042A041000
02FD047F441000
03FD047F441000
03FE047E041000
03FF0400144000
03FF4155504000
03FE0000001000
02FD0155401000
01FC0500101000
01F80400040400
02F4042D040400
03F0103E040400
0BE0107F010100
0FD040BF010100
1FC040FF404100
2F804055404040
3F404000004040
7F410000004040
BF415555558040
FF410000004040
FF410000004040
FF4101AA804040
FF4102FFC04040
FF4102FFC04040
FF4002FFC00040
FF40017FC00040
FF80017FD00040
FFFAA87FFAAA00
FFFFE07FFFF800
FFFF407FFFD000
BFFD003FFF4000
ENDCHAR
STARTCHAR AE
ENCODING 198
SWIDTH 1105 0
DWIDTH 35 0
BBX 34 28 1 -4
BITMAP
000055555555555550
000240000000000010
000B00000000000010
003D00000000000010
00FC01555555555010
01F804000040000010
02F404000040000010
03F0102F8040FFFF40
07E0103F8040FFFD00
0BD0107F8040555400
1FC040BF8040000400
2F8040FF8040000400
3F8040AA4055550400
7F4100000040000400
BF4100000040000400
BF4155555540AAA000
FF4100000040FF8000
FF4100000040AA5540
FF4102AA8040000010
FF4102FF8040000010
FF4102FF8040000010
FF4102FF8055555010
FF4001BF8000000010
FF8001BFC000000010
FFFAA8BFFAAAAAAA40
FFFFE0BFFFFFFFFD00
FFFF40BFFFFFFFF400
BFFD007FFFFFFFD000
ENDCHAR
STARTCHAR Ccedilla
ENCODING 199
SWIDTH 728 0
DWIDTH 23 0
BBX 22 31 1 -7
BITMAP
000055555550
000500000010
002000000010
009005555010
07C050000010
1F8040000010
3F80406AAA80
7F8040FFFE00
BF8041FFF800
FF8041FFD000
FF8041000000
FF8041000000
FF8041000000
FF8041000000
FF8041000000
FF8041000000
FF8040400000
FF8040555540
FF8040000010
FFC050000010
BFD005555010
BFF400010010
7FFE40040010
3FFFF8041A90
1FFFF8002F00
07FFF4003800
006FF0009000
000BFFFE4000
000FFFF80000
001FFFE00000
001FFF400000
ENDCHAR
STARTCHAR Egrave
ENCODING 200
SWIDTH 754 0
DWIDTH 24 0
BBX 23 36 1 -4
BITMAP
000695000000
00295AFE9400
00B400015A00
03F415500100
0FF400054100
0FF400000100
0FFD50000100
0FFFFFE95000
0FD555555550
0BC000000004
03C000000004
1FC000000004
7FC055555404
BFC040000004
BFC040000010
BFC040FFFFD0
BFC040FFFF40
BFC040555900
BFC040000100
BFC040000100
BFC055554100
BFC040000100
BFC040000100
BFC040FFF800
BFC040FFD000
BFC040AA9550
BFC040000004
BFC040000004
BFC040000004
BFC055555404
BFC000000004
BFC000000004
BFFAAAAAAA90
BFFFFFFFFF40
BFFFFFFFFD00
7FFFFFFFE000
ENDCHAR
STARTCHAR Eacute
ENCODING 201
SWIDTH 754 0
DWIDTH 24 0
BBX 23 36 1 -4
BITMAP
000000015A80
00005AFEA580
0006A5000040
001D00155040
007D05400040
02FD00000000
03FD00001500
03FE15AFF800
03D555555550
03C000000004
0BC000000004
2FC000000004
7FC055555404
BFC040000004
BFC040000010
BFC040FFFFD0
BFC040FFFF40
BFC040555900
BFC040000100
BFC040000100
BFC055554100
BFC040000100
BFC040000100
BFC040FFF800
BFC040FFD000
BFC040AA9550
BFC040000004
BFC040000004
BFC040000004
BFC055555404
BFC000000004
BFC000000004
BFFAAAAAAA90
BFFFFFFFFF40
BFFFFFFFFD00
7FFFFFFFE000
ENDCHAR
STARTCHAR Ecircumflex
ENCODING 202
SWIDTH 754 0
DWIDTH 24 0
BBX 23 36 1 -4
BITMAP
000000540000
000014015000
000100000500
001801550040
007804004040
01F800000040
07F806FE4040
0BFEBFFFF900
0BD555555550
0BC000000004
0BC000000004
0FC000000004
7FC055555404
BFC040000004
BFC040000010
BFC040FFFFD0
BFC040FFFF40
BFC040555900
BFC040000100
BFC040000100
BFC055554100
BFC040000100
BFC040000100
BFC040FFF800
BFC040FFD000
BFC040AA9550
BFC040000004
BFC040000004
BFC040000004
BFC055555404
BFC000000004
BFC000000004
BFFAAAAAAA90
BFFFFFFFFF40
BFFFFFFFFD00
7FFFFFFFE000
ENDCHAR
STARTCHAR Edieresis
ENCODING 203
SWIDTH 754 0
DWIDTH 24 0
BBX 23 35 1 -4
BITMAP
000555455540
002400580010
00B400380010
02F410381010
0BF400380010
0FF400380010
0FF800780040
0FFFFFFFFFF0
0FD555555554
0FC000000004
0FC000000004
2FC055555404
7FC040000004
BFC040000000
BFC040FFFFD0
BFC040FFFF40
BFC040555900
BFC040000100
BFC040000100
BFC055554100
BFC040000100
BFC040000100
BFC040FFF800
BFC040FFD000
BFC040AA9550
BFC040000004
BFC040000004
BFC040000004
BFC055555404
BFC000000004
BFC000000004
BFFAAAAAAA90
BFFFFFFFFF40
BFFFFFFFFD00
7FFFFFFFE000
ENDCHAR
STARTCHAR Igrave
ENCODING 204
SWIDTH 705 0
DWIDTH 23 0
BBX 21 36 1 -4
BITMAP
001A94000000
00756BFA9400
02E000056900
0BE015400100
2FE000150100
2FE000000100
2FF940000100
2FFFFFA94000
2F9555555540
2F4000000040
0B4000000040
2F4000000040
BF4155554040
FF4000400040
FF9500401540
FFFF8040FD00
FFFF8040F400
FFFF80409000
6AFF80404000
00BF80404000
00BF80404000
00BF80404000
00BF80404000
00BF80404000
00BF80404000
00AA40405500
014000400040
0B4000400040
2F4000400040
BF4155554040
FF4000000040
FF4000000040
FFEAAAAAAA00
FFFFFFFFF800
FFFFFFFFD000
BFFFFFFF4000
ENDCHAR
STARTCHAR Iacute
ENCODING 205
SWIDTH 705 0
DWIDTH 23 0
BBX 21 36 1 -4
BITMAP
00000015A800
0005ABEA5500
002A54000100
00E000550100
07E015000100
1FE000000000
2FE000015000
2FE15ABFC000
2F9555555540
2F4000000040
2F4000000040
2F4000000040
7F4155554040
FF4000400040
FF9500401540
FFFF8040FD00
FFFF8040F400
FFFF80409000
6AFF80404000
00BF80404000
00BF80404000
00BF80404000
00BF80404000
00BF80404000
00BF80404000
00AA40405500
014000400040
0B4000400040
2F4000400040
BF4155554040
FF4000000040
FF4000000040
FFEAAAAAAA00
FFFFFFFFF800
FFFFFFFFD000
BFFFFFFF4000
ENDCHAR
STARTCHAR Icircumflex
ENCODING 206
SWIDTH 705 0
DWIDTH 23 0
BBX 21 36 1 -4
BITMAP
000005500000
000050054000
000400001400
006005540100
01E010010100
07E000000100
1FE01BE90100
2FFAFFFFE400
2F9555555540
2F4000000040
2F4000000040
2F4000000040
7F4155554040
FF4000400040
FF9500401540
FFFF8040FD00
FFFF8040F400
FFFF80409000
6AFF80404000
00BF80404000
00BF80404000
00BF80404000
00BF80404000
00BF80404000
00BF80404000
00AA40405500
014000400040
0B4000400040
2F4000400040
BF4155554040
FF4000000040
FF4000000040
FFEAAAAAAA00
FFFFFFFFF800
FFFFFFFFD000
BFFFFFFF4000
ENDCHAR
STARTCHAR Idieresis
ENCODING 207
SWIDTH 705 0
DWIDTH 23 0
BBX 21 35 1 -4
BITMAP
001555155500
008001900100
07C002C00100
1FC042C04100
7FC002C00100
BFC002C00100
BFC002D00100
BFFFFFFFFF40
BF9555555580
BF4000000040
7F4000000040
7F4155554040
FF4000400040
FF9500401540
FFFF8040FD00
FFFF8040F400
FFFF80409000
6AFF80404000
00BF80404000
00BF80404000
00BF80404000
00BF80404000
00BF80404000
00BF80404000
00AA40405500
014000400040
0B4000400040
2F4000400040
BF4155554040
FF4000000040
FF4000000040
FFEAAAAAAA00
FFFFFFFFF800
FFFFFFFFD000
BFFFFFFF4000
ENDCHAR
STARTCHAR Eth
ENCODING 208
SWIDTH 856 0
DWIDTH 27 0
BBX 27 28 0 -4
BITMAP
00055555555400
00340000000100
01F40000000040
07F40000000010
0FF41555550010
1FF41000005004
1FF41000001004
1FF4101AA40404
1FF4102FF80404
1FF4102FF80404
1F801001F80404
1F401000F80404
2F416540F80404
FF401000F80404
FF401001F80404
FF901016F80404
FFF4102FF80404
FFF4101BF40404
FFF41000000404
6FF41000001410
1FF41000005010
1FF41555550010
1FF40000000040
1FF40000001900
1FFEAAAAAFF400
1FFFFFFFFFD000
1FFFFFFFFE0000
0BFFFFFFA40000
ENDCHAR
STARTCHAR Ntilde
ENCODING 209
SWIDTH 853 0
DWIDTH 27 0
BBX 25 35 1 -4
BITMAP
00001555015000
00014000541000
00070000001000
002F0154001000
00BF0001501000
01FF0000000000
01FF5AA5010000
01D55BFFF55540
01C002FFD00040
07C000BFD00040
1FC0002FD00040
7FC0500FD01040
BFC05407D01040
BFC04402D01040
BFC04100901040
BFC04040101040
BFC04010001040
BFC04004001040
BFC04001001040
BFC04000401040
BFC04080501040
BFC040E0141040
BFC040F4041040
BFC040FD015040
BFC040FF005040
BFC040FFC01040
BFC040FFD01040
BFC040FFD01040
BFC000FFD00040
BFC000BFD00040
BFC0007FE00040
BFFAAA3FFEAA00
BFFFF43FFFF800
BFFFD03FFFE000
7FFE002FFF4000
ENDCHAR
STARTCHAR Ograve
ENCODING 210
SWIDTH 837 0
DWIDTH 27 0
BBX 25 36 1 -4
BITMAP
00005500000000
000656AA950000
001E0000569000
007E0150001000
01FE0005501000
02FE0000001000
02FF9400001000
02FFFFFA940000
02FFE400064000
01FD0000001400
00100000000100
00900155500100
02801400050040
1F804000004040
3F80406A404040
7F8040FFC04040
BF8041FFD04040
FF8041FFD04040
FF8041BFD04040
FF80417FD04040
FF80417FD04040
FF80417FD04040
FF80417FD04040
FF80417FD04040
FF80417FC04040
FF8040BF804040
FF804000004040
FF804000004040
FFC01400050040
BFE00155500100
BFF80000000400
7FFF900001A000
2FFFFFEAFF4000
0FFFFFFFFD0000
02FFFFFFE00000
001AFFE9000000
ENDCHAR
STARTCHAR Oacute
ENCODING 211
SWIDTH 837 0
DWIDTH 27 0
BBX 25 36 1 -4
BITMAP
00000000158000
000016AAA55000
0002A540001000
000A0001501000
002E0154001000
01FE0000001000
02FE0000050000
02FF15ABFD0000
02FFE400054000
02FD0000001400
02E00000000100
01D00155500100
02801400050040
0F804000004040
3F80406A404040
7F8040FFC04040
BF8041FFD04040
FF8041FFD04040
FF8041BFD04040
FF80417FD04040
FF80417FD04040
FF80417FD04040
FF80417FD04040
FF80417FD04040
FF80417FC04040
FF8040BF804040
FF804000004040
FF804000004040
FFC01400050040
BFE00155500100
BFF80000000400
7FFF900001A000
2FFFFFEAFF4000
0FFFFFFFFD0000
02FFFFFFE00000
001AFFE9000000
ENDCHAR
STARTCHAR Ocircumflex
ENCODING 212
SWIDTH 837 0
DWIDTH 27 0
BBX 25 36 1 -4
BITMAP
00000015000000
00000500540000
00004000014000
00060055401000
001E0100101000
00BE0000001000
01FE01BF901000
02FFAFFFFE9000
02FFE540568000
02FD0000001400
02F00000000100
01D00155500100
02C01400050040
0F804000004040
3F80406A404040
7F8040FFC04040
BF8041FFD04040
FF8041FFD04040
FF8041BFD04040
FF80417FD04040
FF80417FD04040
FF80417FD04040
FF80417FD04040
FF80417FD04040
FF80417FC04040
FF8040BF804040
FF804000004040
FF804000004040
FFC01400050040
BFE00155500100
BFF80000000400
7FFF900001A000
2FFFFFEAFF4000
0FFFFFFFFD0000
02FFFFFFE00000
001AFFE9000000
ENDCHAR
STARTCHAR Otilde
ENCODING 213
SWIDTH 837 0
DWIDTH 27 0
BBX 25 35 1 -4
BITMAP
00001554014000
00014000541000
000A0000001000
002E0154001000
00BE0001501000
02FE0000001000
02FF5AA5014000
02FFFEAAAE0000
02FE4000005000
02F40000000500
01D00155500100
02C01400050040
0F804000004040
3F80406A404040
7F8040FFC04040
BF8041FFD04040
FF8041FFD04040
FF8041BFD04040
FF80417FD04040
FF80417FD04040
FF80417FD04040
FF80417FD04040
FF80417FD04040
FF80417FC04040
FF8040BF804040
FF804000004040
FF804000004040
FFC01400050040
BFE00155500100
BFF80000000400
7FFF900001A000
2FFFFFEAFF8000
0FFFFFFFFD0000
02FFFFFFE00000
001AFFF9000000
ENDCHAR
STARTCHAR Odieresis
ENCODING 214
SWIDTH 837 0
DWIDTH 27 0
BBX 25 35 1 -4
BITMAP
00015551555000
000C0019001000
007C001D001000
01FC041D041000
07FC001D001000
07FC001D001000
07FD002D001000
07FFFFFBFFD000
07FF9000015000
07F80000000400
01E00155500100
02C01400050040
0F804000004040
3F80406A404040
7F8040FFC04040
BF8041FFD04040
FF8041FFD04040
FF8041BFD04040
FF80417FD04040
FF80417FD04040
FF80417FD04040
FF80417FD04040
FF80417FD04040
FF80417FC04040
FF8040BF804040
FF804000004040
FF804000004040
FFC01400050040
BFE00155500100
BFF80000000800
7FFF900001A000
2FFFFFEAFF8000
0FFFFFFFFD0000
02FFFFFFE40000
001AFFF9000000
ENDCHAR
STARTCHAR multiply
ENCODING 215
SWIDTH 834 0
DWIDTH 27 0
BBX 23 23 2 -1
BITMAP
000040000400
000510001140
001404008050
009001020010
028000580004
0B8010201004
2FE014005010
BFF805014040
FFFE01450100
7FFF80540400
1FFF80540400
07FE01450100
01F805014040
00A014005010
018010201004
078000B80004
1FD002FE0014
7FF40BFF8050
FFFD1FFFE140
BFFF47FFFD00
2FFD01FFE000
0BF4007F8000
0280001E0000
ENDCHAR
STARTCHAR Oslash
ENCODING 216
SWIDTH 837 0
DWIDTH 27 0
BBX 25 32 1 -6
BITMAP
00000000155400
00000000800100
00005555400400
00054000000400
00140000040500
00900155540100
02C014001A0040
0F804000104040
3F8101B8504040
7F8102F4401040
BF8103E0401040
FF8103D1001040
FF8103C1101040
FF810384201040
FF810304A01040
FF810214E01040
FF810011E01040
FF810012E01040
FF810047E01040
FF81004BD01040
FF804105004040
FF808100004040
FFC02500050040
BFD00555500100
BFF40400000400
7FF8000001A000
3FF400AABF4000
1FF401FFFD0000
0BFFFFFFE00000
0FFFFFF9000000
1FFF8000000000
1FFE0000000000
ENDCHAR
STARTCHAR Ugrave
ENCODING 217
SWIDTH 846 0
DWIDTH 27 0
BBX 25 36 1 -4
BITMAP
0001A540000000
000756BFA90000
002E0000568000
00BE0554001000
02FE0001501000
03FE0000001000
03FF9400001000
03FFFFFA940000
02D555FFE55540
028000FFD00040
0B8000BFD00040
2F80405FD00040
BF80407FD04040
BF80407FD04040
BF80407FD04040
BF80407FD04040
BF80407FD04040
BF80407FD04040
BF80407FD04040
BF80407FD04040
BF80407FD04040
BF80407FD04040
BF80407FD04040
BF80407FD04040
BF80407FD04040
BF80407FC04040
BF804005004040
BFC01000004040
BFD01400050040
BFE00155500100
7FF90000000400
3FFF900001A000
2FFFFFFAFF4000
0BFFFFFFFD0000
01FFFFFFE00000
001AFFF9000000
ENDCHAR
STARTCHAR Uacute
ENCODING 218
SWIDTH 846 0
DWIDTH 27 0
BBX 25 36 1 -4
BITMAP
00000000569000
000016BFA96000
0001E540001000
00074005541000
002F4150001000
00BF4000000000
01FF4000054000
01FF456BFE0000
01D555FFE55540
028000FFD00040
0B800047D00040
2F80405FD00040
BF80407FD04040
BF80407FD04040
BF80407FD04040
BF80407FD04040
BF80407FD04040
BF80407FD04040
BF80407FD04040
BF80407FD04040
BF80407FD04040
BF80407FD04040
BF80407FD04040
BF80407FD04040
BF80407FD04040
BF80407FC04040
BF804005004040
BFC01000004040
BFD01400050040
BFE00155500100
7FF90000000400
3FFF900001A000
2FFFFFFAFF4000
0BFFFFFFFD0000
01FFFFFFE00000
001AFFF9000000
ENDCHAR
STARTCHAR Ucircumflex
ENCODING 219
SWIDTH 846 0
DWIDTH 27 0
BBX 25 36 1 -4
BITMAP
00000015400000
00000540150000
00005000015000
00070055401000
001F0100101000
00BF0000001000
01FF01BF901000
02FFAFFFFE4000
02D555FFE55540
028000FFD00040
0B80005BD00040
2F80405FD04040
BF80407FD04040
BF80407FD04040
BF80407FD04040
BF80407FD04040
BF80407FD04040
BF80407FD04040
BF80407FD04040
BF80407FD04040
BF80407FD04040
BF80407FD04040
BF80407FD04040
BF80407FD04040
BF80407FD04040
BF80407F804040
BF804000004040
BFC01000004040
BFD01400050040
BFE00155500100
7FF90000000400
3FFF900001A000
2FFFFFFAFF4000
0BFFFFFFFD0000
01FFFFFFE00000
001AFFF9000000
ENDCHAR
STARTCHAR Udieresis
ENCODING 220
SWIDTH 846 0
DWIDTH 27 0
BBX 25 35 1 -4
BITMAP
00015551555000
00090019000400
003C001D000400
01FC041D040400
03FC001D000400
07FC001D000400
07FD002E001000
07FFFFFFFFFF40
07D555FFE55580
078000FFD00040
1F8000AFD00040
7F80405FD04040
BF80407FD04040
BF80407FD04040
BF80407FD04040
BF80407FD04040
BF80407FD04040
BF80407FD04040
BF80407FD04040
BF80407FD04040
BF80407FD04040
BF80407FD04040
BF80407FD04040
BF80407FD04040
BF80407FC04040
BF804015004040
BFC05000004040
BFD01400050040
BFE00155500100
7FF80000000400
3FFF900001A000
2FFFFFFAFF4000
0BFFFFFFFD0000
01FFFFFFE00000
001AFFF9000000
ENDCHAR
STARTCHAR Yacute
ENCODING 221
SWIDTH 805 0
DWIDTH 26 0
BBX 25 36 0 -4
BITMAP
0000000056A000
000016AFA95400
0000A940000400
00078001540400
001F8150000400
007F8000000000
00FF8000054000
00FF856AFE0000
00E555FFF55540
01C000BFE00040
07C00052E00040
1FC0404BE01040
7FC0406FE01040
7FC0406FE01040
7FC0406FE01040
7FC0406FE01040
7FC0406FD01040
7FD0102F804040
7FD0100F404040
7FF00405010040
7FF80100040100
3FFD0100040400
2FFF0040101400
1FFF8015401000
0BFFE004004000
02FFF404010000
00FFFC04010000
007FFD04040000
002FFD04040000
000FFD00040000
0007FD00040000
0007FD00040000
0007FFAAA40000
0007FFFFC00000
0007FFFE000000
0002FFF8000000
ENDCHAR
STARTCHAR Thorn
ENCODING 222
SWIDTH 792 0
DWIDTH 25 0
BBX 24 28 1 -4
BITMAP
005555000000
01C000400000
0BC000400000
2FC000400000
7FC040555500
BFC040000050
BFC040000004
BFC055555004
BFC040000401
BFC040000101
BFC040BE0101
BFC040FF4101
BFC040FF4101
BFC040FF4101
BFC040FF0101
BFC040000101
BFC040000101
BFC040000401
BFC055555004
BFC040000010
BFC040000580
BFC000FFFE00
BFC000FFF400
BFC000FFD000
BFFAAAA90000
BFFFF8000000
BFFFD0000000
7FFF40000000
ENDCHAR
STARTCHAR germandbls
ENCODING 223
SWIDTH 859 0
DWIDTH 27 0
BBX 27 28 1 -4
BITMAP
00555555554000
01C00000001000
0BC00000000400
2FC00000000400
7FC05555500400
BFC04000040400
BFC04000040400
BFC04068040400
BFC040FD040400
BFC040FC040400
BFC040F8100500
BFC040F8100040
BFC040F4154010
BFC040F4001010
BFC040F4000410
BFC040FFF40404
BFC040FFF80404
BFC040FFF40404
BFC040F4000404
BFC040F0000410
BFC040F0001010
BFC040F0154010
BFC000F0000040
BFC000F4000600
BFFAABFEAAF800
BFFFFFFFFFD000
BFFFEFFFFF4000
7FFF4FFFE40000
ENDCHAR
STARTCHAR agrave
ENCODING 224
SWIDTH 830 0
DWIDTH 27 0
BBX 25 35 1 -4
BITMAP
00015555000000
000A0000554000
002E0000001000
01FE0155501000
02FE0000001000
02FF9400001000
02FFFFFA945000
02FFFFFFFF4000
02FF8000014000
00AF4000004000
000B0000004000
002E0155401000
00BC0500101000
01F80400040400
02F4042D040400
03F0103E040400
07E0107F010100
0BD040BF010100
1FC040FF404100
2F804055404040
3F404000004040
7F410000004040
BF415555558040
FF410000004040
FF410000004040
FF4101AA804040
FF4102FFC04040
FF4102FFC04040
FF4002FFC00040
FF40017FC00040
FF80017FD00040
FFFAA87FFAAA00
FFFFE07FFFF800
FFFF407FFFD000
BFFD003FFF4000
ENDCHAR
STARTCHAR aacute
ENCODING 225
SWIDTH 830 0
DWIDTH 27 0
BBX 25 36 1 -4
BITMAP
000000015A8000
00005ABEA55000
0002A540001000
000E0005501000
007E0150001000
01FE0000000000
02FE0000150000
02FE15ABFC0000
02FFD555550000
02FF4000004000
02FF0000004000
02FE0000001000
006D0155401000
00BC0500101000
01F80400040400
02F4042D040400
03E0103E040100
07D0107F010100
0BC040BF010100
1F8040FF404040
2F804055404040
3F404000004040
7F410000004040
BF415555558040
FF410000004040
FF410000004040
FF4101AA804040
FF4102FFC04040
FF4102FFC04040
FF4002FFC00040
FF40017FC00040
FF80017FD00040
FFFAA87FFAAA00
FFFFE07FFFF800
FFFF407FFFD000
BFFD003FFF4000
ENDCHAR
STARTCHAR acircumflex
ENCODING 226
SWIDTH 830 0
DWIDTH 27 0
BBX 25 36 1 -4
BITMAP
00000015000000
00000500540000
00005000014000
00020055001000
001E0100501000
007E0000001000
01FE0059001000
02FE1BFFE91000
02FFFFFFFF8000
02FF8000014000
02FF4000004000
02FF0000004000
006E0155401000
00BC0500101000
01F80400040400
02F4042D040400
03F0103E040400
07E0107F010100
0BD040BF010100
1FC040FF404100
2F804055404040
3F404000004040
7F410000004040
BF415555558040
FF410000004040
FF410000004040
FF4101AA804040
FF4102FFC04040
FF4102FFC04040
FF4002FFC00040
FF40017FC00040
FF80017FD00040
FFFAA87FFAAA00
FFFFE07FFFF800
FFFF407FFFD000
BFFD003FFF4000
ENDCHAR
STARTCHAR atilde
ENCODING 227
SWIDTH 830 0
DWIDTH 27 0
BBX 25 35 1 -4
BITMAP
00001554014000
00014001541000
000A0000001000
002E0554001000
00BE0001501000
02FE0000001000
02FE5A95014000
02FFFFFFFE0000
02FF9000014000
02FF4000004000
02EF0000004000
002E0155401000
00BC0500101000
01F80400040400
02F4042D040400
03F0103E040400
07E0107F010100
0BD040BF010100
1FC040FF404100
2F804055404040
3F404000004040
7F410000004040
BF415555558040
FF410000004040
FF410000004040
FF4101AA804040
FF4102FFC04040
FF4102FFC04040
FF4002FFC00040
FF40017FC00040
FF80017FD00040
FFFAA87FFAAA00
FFFFE07FFFF800
FFFF407FFFD000
BFFD003FFF4000
ENDCHAR
STARTCHAR adieresis
ENCODING 228
SWIDTH 830 0
DWIDTH 27 0
BBX 25 35 1 -4
BITMAP
00015551555000
00080019001000
007C002C001000
01FC042C041000
07FC002C001000
0BFC002C001000
0BFC002D001000
0BFFFFFFFFC000
0BFFD555554000
0BFF4000004000
07FF0000004000
002E0155401000
00BD0500101000
01F80400040400
02F4042D040400
03F0103E040400
07E0107F010100
0BD040BF010100
1FC040FF404100
2F804055404040
3F804000004040
7F410000004040
BF415555558040
FF410000004040
FF410000004040
FF4101AA804040
FF4102FFC04040
FF4102FFC04040
FF4002FFC00040
FF40017FC00040
FF80017FD00040
FFFAA87FFAAA00
FFFFE07FFFF800
FFFF407FFFD000
BFFD003FFF4000
ENDCHAR
STARTCHAR aring
ENCODING 229
SWIDTH 830 0
DWIDTH 27 0
BBX 25 36 1 -4
BITMAP
00000155500000
00005000050000
00014000004000
00060155501000
002D0400141000
00BD042A041000
02FD047F441000
03FD047F441000
03FE047E041000
03FF0400144000
03FF4155504000
03FE0000001000
02FD0155401000
01FC0500101000
01F80400040400
02F4042D040400
03F0103E040400
0BE0107F010100
0FD040BF010100
1FC040FF404100
2F804055404040
3F404000004040
7F410000004040
BF415555558040
FF410000004040
FF410000004040
FF4101AA804040
FF4102FFC04040
FF4102FFC04040
FF4002FFC00040
FF40017FC00040
FF80017FD00040
FFFAA87FFAAA00
FFFFE07FFFF800
FFFF407FFFD000
BFFD003FFF4000
ENDCHAR
STARTCHAR ae
ENCODING 230
SWIDTH 1105 0
DWIDTH 35 0
BBX 34 28 1 -4
BITMAP
000055555555555550
000240000000000010
000B00000000000010
003D00000000000010
00FC01555555555010
01F804000040000010
02F404000040000010
03F0102F8040FFFF40
07E0103F8040FFFD00
0BD0107F8040555400
1FC040BF8040000400
2F8040FF8040000400
3F8040AA4055550400
7F4100000040000400
BF4100000040000400
BF4155555540AAA000
FF4100000040FF8000
FF4100000040AA5540
FF4102AA8040000010
FF4102FF8040000010
FF4102FF8040000010
FF4102FF8055555010
FF4001BF8000000010
FF8001BFC000000010
FFFAA8BFFAAAAAAA40
FFFFE0BFFFFFFFFD00
FFFF40BFFFFFFFF400
BFFD007FFFFFFFD000
ENDCHAR
STARTCHAR ccedilla
ENCODING 231
SWIDTH 728 0
DWIDTH 23 0
BBX 22 31 1 -7
BITMAP
000055555550
000500000010
002000000010
009005555010
07C050000010
1F8040000010
3F80406AAA80
7F8040FFFE00
BF8041FFF800
FF8041FFD000
FF8041000000
FF8041000000
FF8041000000
FF8041000000
FF8041000000
FF8041000000
FF8040400000
FF8040555540
FF8040000010
FFC050000010
BFD005555010
BFF400010010
7FFE40040010
3FFFF8041A90
1FFFF8002F00
07FFF4003800
006FF0009000
000BFFFE4000
000FFFF80000
001FFFE00000
001FFF400000
ENDCHAR
STARTCHAR egrave
ENCODING 232
SWIDTH 754 0
DWIDTH 24 0
BBX 23 36 1 -4
BITMAP
000695000000
00295AFE9400
00B400015A00
03F415500100
0FF400054100
0FF400000100
0FFD50000100
0FFFFFE95000
0FD555555550
0BC000000004
03C000000004
1FC000000004
7FC055555404
BFC040000004
BFC040000010
BFC040FFFFD0
BFC040FFFF40
BFC040555900
BFC040000100
BFC040000100
BFC055554100
BFC040000100
BFC040000100
BFC040FFF800
BFC040FFD000
BFC040AA9550
BFC040000004
BFC040000004
BFC040000004
BFC055555404
BFC000000004
BFC000000004
BFFAAAAAAA90
BFFFFFFFFF40
BFFFFFFFFD00
7FFFFFFFE000
ENDCHAR
STARTCHAR eacute
ENCODING 233
SWIDTH 754 0
DWIDTH 24 0
BBX 23 36 1 -4
BITMAP
000000015A80
00005AFEA580
0006A5000040
001D00155040
007D05400040
02FD00000000
03FD00001500
03FE15AFF800
03D555555550
03C000000004
0BC000000004
2FC000000004
7FC055555404
BFC040000004
BFC040000010
BFC040FFFFD0
BFC040FFFF40
BFC040555900
BFC040000100
BFC040000100
BFC055554100
BFC040000100
BFC040000100
BFC040FFF800
BFC040FFD000
BFC040AA9550
BFC040000004
BFC040000004
BFC040000004
BFC055555404
BFC000000004
BFC000000004
BFFAAAAAAA90
BFFFFFFFFF40
BFFFFFFFFD00
7FFFFFFFE000
ENDCHAR
STARTCHAR ecircumflex
ENCODING 234
SWIDTH 754 0
DWIDTH 24 0
BBX 23 36 1 -4
BITMAP
000000540000
000014015000
000100000500
001801550040
007804004040
01F800000040
07F806FE4040
0BFEBFFFF900
0BD555555550
0BC000000004
0BC000000004
0FC000000004
7FC055555404
BFC040000004
BFC040000010
BFC040FFFFD0
BFC040FFFF40
BFC040555900
BFC040000100
BFC040000100
BFC055554100
BFC040000100
BFC040000100
BFC040FFF800
BFC040FFD000
BFC040AA9550
BFC040000004
BFC040000004
BFC040000004
BFC055555404
BFC000000004
BFC000000004
BFFAAAAAAA90
BFFFFFFFFF40
BFFFFFFFFD00
7FFFFFFFE000
ENDCHAR
STARTCHAR edieresis
ENCODING 235
SWIDTH 754 0
DWIDTH 24 0
BBX 23 35 1 -4
BITMAP
000555455540
002400580010
00B400380010
02F410381010
0BF400380010
0FF400380010
0FF800780040
0FFFFFFFFFF0
0FD555555554
0FC000000004
0FC000000004
2FC055555404
7FC040000004
BFC040000000
BFC040FFFFD0
BFC040FFFF40
BFC040555900
BFC040000100
BFC040000100
BFC055554100
BFC040000100
BFC040000100
BFC040FFF800
BFC040FFD000
BFC040AA9550
BFC040000004
BFC040000004
BFC040000004
BFC055555404
BFC000000004
BFC000000004
BFFAAAAAAA90
BFFFFFFFFF40
BFFFFFFFFD00
7FFFFFFFE000
ENDCHAR
STARTCHAR igrave
ENCODING 236
SWIDTH 705 0
DWIDTH 23 0
BBX 21 36 1 -4
BITMAP
001A94000000
00756BFA9400
02E000056900
0BE015400100
2FE000150100
2FE000000100
2FF940000100
2FFFFFA94000
2F9555555540
2F4000000040
0B4000000040
2F4000000040
BF4155554040
FF4000400040
FF9500401540
FFFF8040FD00
FFFF8040F400
FFFF80409000
6AFF80404000
00BF80404000
00BF80404000
00BF80404000
00BF80404000
00BF80404000
00BF80404000
00AA40405500
014000400040
0B4000400040
2F4000400040
BF4155554040
FF4000000040
FF4000000040
FFEAAAAAAA00
FFFFFFFFF800
FFFFFFFFD000
BFFFFFFF4000
ENDCHAR
STARTCHAR iacute
ENCODING 237
SWIDTH 705 0
DWIDTH 23 0
BBX 21 36 1 -4
BITMAP
00000015A800
0005ABEA5500
002A54000100
00E000550100
07E015000100
1FE000000000
2FE000015000
2FE15ABFC000
2F9555555540
2F4000000040
2F4000000040
2F4000000040
7F4155554040
FF4000400040
FF9500401540
FFFF8040FD00
FFFF8040F400
FFFF80409000
6AFF80404000
00BF80404000
00BF80404000
00BF80404000
00BF80404000
00BF80404000
00BF80404000
00AA40405500
014000400040
0B4000400040
2F4000400040
BF4155554040
FF4000000040
FF4000000040
FFEAAAAAAA00
FFFFFFFFF800
FFFFFFFFD000
BFFFFFFF4000
ENDCHAR
STARTCHAR icircumflex
ENCODING 238
SWIDTH 705 0
DWIDTH 23 0
BBX 21 36 1 -4
BITMAP
000005500000
000050054000
000400001400
006005540100
01E010010100
07E000000100
1FE01BE90100
2FFAFFFFE400
2F9555555540
2F4000000040
2F4000000040
2F4000000040
7F4155554040
FF4000400040
FF9500401540
FFFF8040FD00
FFFF8040F400
FFFF80409000
6AFF80404000
00BF80404000
00BF80404000
00BF80404000
00BF80404000
00BF80404000
00BF80404000
00AA40405500
014000400040
0B4000400040
2F4000400040
BF4155554040
FF4000000040
FF4000000040
FFEAAAAAAA00
FFFFFFFFF800
FFFFFFFFD000
BFFFFFFF4000
ENDCHAR
STARTCHAR idieresis
ENCODING 239
SWIDTH 705 0
DWIDTH 23 0
BBX 21 35 1 -4
BITMAP
001555155500
008001900100
07C002C00100
1FC042C04100
7FC002C00100
BFC002C00100
BFC002D00100
BFFFFFFFFF40
BF9555555580
BF4000000040
7F4000000040
7F4155554040
FF4000400040
FF9500401540
FFFF8040FD00
FFFF8040F400
FFFF80409000
6AFF80404000
00BF80404000
00BF80404000
00BF80404000
00BF80404000
00BF80404000
00BF80404000
00AA40405500
014000400040
0B4000400040
2F4000400040
BF4155554040
FF4000000040
FF4000000040
FFEAAAAAAA00
FFFFFFFFF800
FFFFFFFFD000
BFFFFFFF4000
ENDCHAR
STARTCHAR eth
ENCODING 240
SWIDTH 856 0
DWIDTH 27 0
BBX 27 28 0 -4
BITMAP
00055555555400
00340000000100
01F40000000040
07F40000000010
0FF41555550010
1FF41000005004
1FF41000001004
1FF4101AA40404
1FF4102FF80404
1FF4102FF80404
1F801001F80404
1F401000F80404
2F416540F80404
FF401000F80404
FF401001F80404
FF901016F80404
FFF4102FF80404
FFF4101BF40404
FFF41000000404
6FF41000001410
1FF41000005010
1FF41555550010
1FF40000000040
1FF40000001900
1FFEAAAAAFF400
1FFFFFFFFFD000
1FFFFFFFFE0000
0BFFFFFFA40000
ENDCHAR
STARTCHAR ntilde
ENCODING 241
SWIDTH 853 0
DWIDTH 27 0
BBX 25 35 1 -4
BITMAP
00001555015000
00014000541000
00070000001000
002F0154001000
00BF0001501000
01FF0000000000
01FF5AA5010000
01D55BFFF55540
01C002FFD00040
07C000BFD00040
1FC0002FD00040
7FC0500FD01040
BFC05407D01040
BFC04402D01040
BFC04100901040
BFC04040101040
BFC04010001040
BFC04004001040
BFC04001001040
BFC04000401040
BFC04080501040
BFC040E0141040
BFC040F4041040
BFC040FD015040
BFC040FF005040
BFC040FFC01040
BFC040FFD01040
BFC040FFD01040
BFC000FFD00040
BFC000BFD00040
BFC0007FE00040
BFFAAA3FFEAA00
BFFFF43FFFF800
BFFFD03FFFE000
7FFE002FFF4000
ENDCHAR
STARTCHAR ograve
ENCODING 242
SWIDTH 837 0
DWIDTH 27 0
BBX 25 36 1 -4
BITMAP
00005500000000
000656AA950000
001E0000569000
007E0150001000
01FE0005501000
02FE0000001000
02FF9400001000
02FFFFFA940000
02FFE400064000
01FD0000001400
00100000000100
00900155500100
02801400050040
1F804000004040
3F80406A404040
7F8040FFC04040
BF8041FFD04040
FF8041FFD04040
FF8041BFD04040
FF80417FD04040
FF80417FD04040
FF80417FD04040
FF80417FD04040
FF80417FD04040
FF80417FC04040
FF8040BF804040
FF804000004040
FF804000004040
FFC01400050040
BFE00155500100
BFF80000000400
7FFF900001A000
2FFFFFEAFF4000
0FFFFFFFFD0000
02FFFFFFE00000
001AFFE9000000
ENDCHAR
STARTCHAR oacute
ENCODING 243
SWIDTH 837 0
DWIDTH 27 0
BBX 25 36 1 -4
BITMAP
00000000158000
000016AAA55000
0002A540001000
000A0001501000
002E0154001000
01FE0000001000
02FE0000050000
02FF15ABFD0000
02FFE400054000
02FD0000001400
02E00000000100
01D00155500100
02801400050040
0F804000004040
3F80406A404040
7F8040FFC04040
BF8041FFD04040
FF8041FFD04040
FF8041BFD04040
FF80417FD04040
FF80417FD04040
FF80417FD04040
FF80417FD04040
FF80417FD04040
FF80417FC04040
FF8040BF804040
FF804000004040
FF804000004040
FFC01400050040
BFE00155500100
BFF80000000400
7FFF900001A000
2FFFFFEAFF4000
0FFFFFFFFD0000
02FFFFFFE00000
001AFFE9000000
ENDCHAR
STARTCHAR ocircumflex
ENCODING 244
SWIDTH 837 0
DWIDTH 27 0
BBX 25 36 1 -4
BITMAP
00000015000000
00000500540000
00004000014000
00060055401000
001E0100101000
00BE0000001000
01FE01BF901000
02FFAFFFFE9000
02FFE540568000
02FD0000001400
02F00000000100
01D00155500100
02C01400050040
0F804000004040
3F80406A404040
7F8040FFC04040
BF8041FFD04040
FF8041FFD04040
FF8041BFD04040
FF80417FD04040
FF80417FD04040
FF80417FD04040
FF80417FD04040
FF80417FD04040
FF80417FC04040
FF8040BF804040
FF804000004040
FF804000004040
FFC01400050040
BFE00155500100
BFF80000000400
7FFF900001A000
2FFFFFEAFF4000
0FFFFFFFFD0000
02FFFFFFE00000
001AFFE9000000
ENDCHAR
STARTCHAR otilde
ENCODING 245
SWIDTH 837 0
DWIDTH 27 0
BBX 25 35 1 -4
BITMAP
00001554014000
00014000541000
000A0000001000
002E0154001000
00BE0001501000
02FE0000001000
02FF5AA5014000
02FFFEAAAE0000
02FE4000005000
02F40000000500
01D00155500100
02C01400050040
0F804000004040
3F80406A404040
7F8040FFC04040
BF8041FFD04040
FF8041FFD04040
FF8041BFD04040
FF80417FD04040
FF80417FD04040
FF80417FD04040
FF80417FD04040
FF80417FD04040
FF80417FC04040
FF8040BF804040
FF804000004040
FF804000004040
FFC01400050040
BFE00155500100
BFF80000000400
7FFF900001A000
2FFFFFEAFF8000
0FFFFFFFFD0000
02FFFFFFE00000
001AFFF9000000
ENDCHAR
STARTCHAR odieresis
ENCODING 246
SWIDTH 837 0
DWIDTH 27 0
BBX 25 35 1 -4
BITMAP
00015551555000
000C0019001000
007C001D001000
01FC041D041000
07FC001D001000
07FC001D001000
07FD002D001000
07FFFFFBFFD000
07FF9000015000
07F80000000400
01E00155500100
02C01400050040
0F804000004040
3F80406A404040
7F8040FFC04040
BF8041FFD04040
FF8041FFD04040
FF8041BFD04040
FF80417FD04040
FF80417FD04040
FF80417FD04040
FF80417FD04040
FF80417FD04040
FF80417FC04040
FF8040BF804040
FF804000004040
FF804000004040
FFC01400050040
BFE00155500100
BFF80000000800
7FFF900001A000
2FFFFFEAFF8000
0FFFFFFFFD0000
02FFFFFFE40000
001AFFF9000000
ENDCHAR
STARTCHAR divide
ENCODING 247
SWIDTH 834 0
DWIDTH 27 0
BBX 25 25 1 -2
BITMAP
00000155500000
00001800040000
00007800040000
0001F804040000
0007F800040000
000BF800040000
000BF800040000
000BFEAAA00000
001AAAAA955500
01C00000000040
07C05555554040
2FC00000000040
7FC00000000040
BFD00000000000
BFFFFFFFFFF800
BFFFFD555FD000
7FFFF8000A0000
0002F804040000
000BF800040000
000BF800040000
000BF800040000
000BFFAA900000
000BFFFF400000
000BFFFD000000
0007FFF4000000
ENDCHAR
STARTCHAR oslash
ENCODING 248
SWIDTH 837 0
DWIDTH 27 0
BBX 25 32 1 -6
BITMAP
00000000155400
00000000800100
00005555400400
00054000000400
00140000040500
00900155540100
02C014001A0040
0F804000104040
3F8101B8504040
7F8102F4401040
BF8103E0401040
FF8103D1001040
FF8103C1101040
FF810384201040
FF810304A01040
FF810214E01040
FF810011E01040
FF810012E01040
FF810047E01040
FF81004BD01040
FF804105004040
FF808100004040
FFC02500050040
BFD00555500100
BFF40400000400
7FF8000001A000
3FF400AABF4000
1FF401FFFD0000
0BFFFFFFE00000
0FFFFFF9000000
1FFF8000000000
1FFE0000000000
ENDCHAR
STARTCHAR ugrave
ENCODING 249
SWIDTH 846 0
DWIDTH 27 0
BBX 25 36 1 -4
BITMAP
0001A540000000
000756BFA90000
002E0000568000
00BE0554001000
02FE0001501000
03FE0000001000
03FF9400001000
03FFFFFA940000
02D555FFE55540
028000FFD00040
0B8000BFD00040
2F80405FD00040
BF80407FD04040
BF80407FD04040
BF80407FD04040
BF80407FD04040
BF80407FD04040
BF80407FD04040
BF80407FD04040
BF80407FD04040
BF80407FD04040
BF80407FD04040
BF80407FD04040
BF80407FD04040
BF80407FD04040
BF80407FC04040
BF804005004040
BFC01000004040
BFD01400050040
BFE00155500100
7FF90000000400
3FFF900001A000
2FFFFFFAFF4000
0BFFFFFFFD0000
01FFFFFFE00000
001AFFF9000000
ENDCHAR
STARTCHAR uacute
ENCODING 250
SWIDTH 846 0
DWIDTH 27 0
BBX 25 36 1 -4
BITMAP
00000000569000
000016BFA96000
0001E540001000
00074005541000
002F4150001000
00BF4000000000
01FF4000054000
01FF456BFE0000
01D555FFE55540
028000FFD00040
0B800047D00040
2F80405FD00040
BF80407FD04040
BF80407FD04040
BF80407FD04040
BF80407FD04040
BF80407FD04040
BF80407FD04040
BF80407FD04040
BF80407FD04040
BF80407FD04040
BF80407FD04040
BF80407FD04040
BF80407FD04040
BF80407FD04040
BF80407FC04040
BF804005004040
BFC01000004040
BFD01400050040
BFE00155500100
7FF90000000400
3FFF900001A000
2FFFFFFAFF4000
0BFFFFFFFD0000
01FFFFFFE00000
001AFFF9000000
ENDCHAR
STARTCHAR ucircumflex
ENCODING 251
SWIDTH 846 0
DWIDTH 27 0
BBX 25 36 1 -4
BITMAP
00000015400000
00000540150000
00005000015000
00070055401000
001F0100101000
00BF0000001000
01FF01BF901000
02FFAFFFFE4000
02D555FFE55540
028000FFD00040
0B80005BD00040
2F80405FD04040
BF80407FD04040
BF80407FD04040
BF80407FD04040
BF80407FD04040
BF80407FD04040
BF80407FD04040
BF80407FD04040
BF80407FD04040
BF80407FD04040
BF80407FD04040
BF80407FD04040
BF80407FD04040
BF80407FD04040
BF80407F804040
BF804000004040
BFC01000004040
BFD01400050040
BFE00155500100
7FF90000000400
3FFF900001A000
2FFFFFFAFF4000
0BFFFFFFFD0000
01FFFFFFE00000
001AFFF9000000
ENDCHAR
STARTCHAR udieresis
ENCODING 252
SWIDTH 846 0
DWIDTH 27 0
BBX 25 35 1 -4
BITMAP
00015551555000
00090019000400
003C001D000400
01FC041D040400
03FC001D000400
07FC001D000400
07FD002E001000
07FFFFFFFFFF40
07D555FFE55580
078000FFD00040
1F8000AFD00040
7F80405FD04040
BF80407FD04040
BF80407FD04040
BF80407FD04040
BF80407FD04040
BF80407FD04040
BF80407FD04040
BF80407FD04040
BF80407FD04040
BF80407FD04040
BF80407FD04040
BF80407FD04040
BF80407FD04040
BF80407FC04040
BF804015004040
BFC05000004040
BFD01400050040
BFE00155500100
7FF80000000400
3FFF900001A000
2FFFFFFAFF4000
0BFFFFFFFD0000
01FFFFFFE00000
001AFFF9000000
ENDCHAR
STARTCHAR yacute
ENCODING 253
SWIDTH 805 0
DWIDTH 26 0
BBX 25 36 0 -4
BITMAP
0000000056A000
000016AFA95400
0000A940000400
00078001540400
001F8150000400
007F8000000000
00FF8000054000
00FF856AFE0000
00E555FFF55540
01C000BFE00040
07C00052E00040
1FC0404BE01040
7FC0406FE01040
7FC0406FE01040
7FC0406FE01040
7FC0406FE01040
7FC0406FD01040
7FD0102F804040
7FD0100F404040
7FF00405010040
7FF80100040100
3FFD0100040400
2FFF0040101400
1FFF8015401000
0BFFE004004000
02FFF404010000
00FFFC04010000
007FFD04040000
002FFD04040000
000FFD00040000
0007FD00040000
0007FD00040000
0007FFAAA40000
0007FFFFC00000
0007FFFE000000
0002FFF8000000
ENDCHAR
STARTCHAR thorn
ENCODING 254
SWIDTH 792 0
DWIDTH 25 0
BBX 24 28 1 -4
BITMAP
005555000000
01C000400000
0BC000400000
2FC000400000
7FC040555500
BFC040000050
BFC040000004
BFC055555004
BFC040000401
BFC040000101
BFC040BE0101
BFC040FF4101
BFC040FF4101
BFC040FF4101
BFC040FF0101
BFC040000101
BFC040000101
BFC040000401
BFC055555004
BFC040000010
BFC040000580
BFC000FFFE00
BFC000FFF400
BFC000FFD000
BFFAAAA90000
BFFFF8000000
BFFFD0000000
7FFF40000000
ENDCHAR
STARTCHAR ydieresis
ENCODING 255
SWIDTH 805 0
DWIDTH 26 0
BBX 25 35 0 -4
BITMAP
00015550555000
0006000A000400
002D000E000400
00BD040E010400
02FD000E000400
03FD000E000400
03FE001F001000
03FFFFFFFFFF80
03E555FFF55580
03C000BFE00040
0BC000ABE00040
2FC0405FE01040
7FC0406FE01040
7FC0406FE01040
7FC0406FE01040
7FC0406FE01040
7FD0403FC05040
7FD0101F404040
7FE00405010000
7FF40500040000
7FFD0100040000
3FFF0040100000
1FFF8015401000
0BFFD004004000
03FFF404010000
01FFFC04010000
007FFD04040000
002FFD04040000
000FFD00040000
0007FD00040000
0007FD00040000
0007FFAAA40000
0007FFFFC00000
0007FFFE000000
0002FFF8000000
ENDCHAR
STARTCHAR Amacron
ENCODING 256
SWIDTH 830 0
DWIDTH 27 0
BBX 25 34 1 -4
BITMAP
00015555554000
00060000001000
001E0000001000
00BE0155501000
02FE0000001000
02FE0000005000
02FFFFFFFF4000
02FFD555550000
02FF4000004000
01FF0000004000
002E0155401000
00BD0500101000
01F80400040400
02F4042D040400
03F0103E040400
07E0107F010100
0BD040BF010100
1FC040FF404100
2F804055404040
3F804000004040
7F410000004040
BF415555558040
FF410000004040
FF410000004040
FF4101AA804040
FF4102FFC04040
FF4102FFC04040
FF4002FFC00040
FF40017FC00040
FF80017FD00040
FFFAA87FFAAA00
FFFFE07FFFF800
FFFF407FFFD000
BFFD003FFF4000
ENDCHAR
STARTCHAR amacron
ENCODING 257
SWIDTH 830 0
DWIDTH 27 0
BBX 25 34 1 -4
BITMAP
00015555554000
00060000001000
001E0000001000
00BE0155501000
02FE0000001000
02FE0000005000
02FFFFFFFF4000
02FFD555550000
02FF4000004000
01FF0000004000
002E0155401000
00BD0500101000
01F80400040400
02F4042D040400
03F0103E040400
07E0107F010100
0BD040BF010100
1FC040FF404100
2F804055404040
3F804000004040
7F410000004040
BF415555558040
FF410000004040
FF410000004040
FF4101AA804040
FF4102FFC04040
FF4102FFC04040
FF4002FFC00040
FF40017FC00040
FF80017FD00040
FFFAA87FFAAA00
FFFFE07FFFF800
FFFF407FFFD000
BFFD003FFF4000
ENDCHAR
STARTCHAR Abreve
ENCODING 258
SWIDTH 830 0
DWIDTH 27 0
BBX 25 36 1 -4
BITMAP
00015540554000
00050042401000
002D005F401000
00BD0415041000
02FE0400141000
03FF0155500000
03FF8000000000
03FFF500140000
03FFFFFFFE0000
01FF9000018000
00BF4000008000
001F0000005000
002E0155402000
00BC0500101000
01F80400040400
02F4042D040800
03F0103E040500
07E0107F010200
0BD040BF010100
1FC040FF404140
2F804055404040
3F404000004040
7F410000004040
BF415555558040
FF410000004040
FF410000004040
FF4101AA804040
FF4102FFC04040
FF4102FFC04040
FF4002FFC00040
FF40017FC00040
FF80017FD00040
FFFAA87FFAAA00
FFFFE07FFFF800
FFFF407FFFD000
BFFD003FFF4000
ENDCHAR
STARTCHAR abreve
ENCODING 259
SWIDTH 830 0
DWIDTH 27 0
BBX 25 36 1 -4
BITMAP
00015540554000
00050042401000
002D005F401000
00BD0415041000
02FE0400141000
03FF0155500000
03FF8000000000
03FFF500140000
03FFFFFFFE0000
01FF9000018000
00BF4000008000
001F0000005000
002E0155402000
00BC0500101000
01F80400040400
02F4042D040800
03F0103E040500
07E0107F010200
0BD040BF010100
1FC040FF404140
2F804055404040
3F404000004040
7F410000004040
BF415555558040
FF410000004040
FF410000004040
FF4101AA804040
FF4102FFC04040
FF4102FFC04040
FF4002FFC00040
FF40017FC00040
FF80017FD00040
FFFAA87FFAAA00
FFFFE07FFFF800
FFFF407FFFD000
BFFD003FFF4000
ENDCHAR
STARTCHAR Aogonek
ENCODING 260
SWIDTH 830 0
DWIDTH 27 0
BBX 25 34 1 -10
BITMAP
00005555550000
00014000004000
00070000004000
001E0000001000
003D0155401000
00BC0500101000
01F80400040400
02F4042D040400
03E0103E040100
07D0107F010100
0BC040BF010100
1F8040FF404040
2F804055404040
3F404000004040
7F410000004040
BF415555558040
FF410000004040
FF410000004040
FF4101AA804040
FF4102FFC04040
FF4102FFC04040
FF4002FFC14040
FF40017FC10040
FF80017F810040
FFFAA87F810500
FFFFE07F410500
FFFF407F410040
BFFD00BF414040
000000BF800040
000000FFD00040
000000FFFFFE00
000000FFFFF800
000000BFFFE000
0000001FFF4000
ENDCHAR
STARTCHAR aogonek
ENCODING 261
SWIDTH 830 0
DWIDTH 27 0
BBX 25 34 1 -10
BITMAP
00005555550000
00014000004000
00070000004000
001E0000001000
003D0155401000
00BC0500101000
01F80400040400
02F4042D040400
03E0103E040100
07D0107F010100
0BC040BF010100
1F8040FF404040
2F804055404040
3F404000004040
7F410000004040
BF415555558040
FF410000004040
FF410000004040
FF4101AA804040
FF4102FFC04040
FF4102FFC04040
FF4002FFC14040
FF40017FC10040
FF80017F810040
FFFAA87F810500
FFFFE07F410500
FFFF407F410040
BFFD00BF414040
000000BF800040
000000FFD00040
000000FFFFFE00
000000FFFFF800
000000BFFFE000
0000001FFF4000
ENDCHAR
STARTCHAR Cacute
ENCODING 262
SWIDTH 728 0
DWIDTH 23 0
BBX 22 36 1 -4
BITMAP
000000005A90
00005ABFA560
0001A5400010
000B00055010
002F01500010
00FF00000000
01FF00000500
01FF45ABFD00
01FFE5555550
01FD00000010
01F000000010
01D000000010
008005555010
038050000010
1F8040000010
3F80406AAA80
7F8040FFFE00
BF8041FFF400
FF8041FFD000
FF8041000000
FF8041000000
FF8041000000
FF8041000000
FF8041000000
FF8040400000
FF8040555540
FF8040000010
FF8040000010
FFC050000010
BFE005555010
BFF400000010
7FFE40000010
3FFFFFAAAA80
1FFFFFFFFE00
07FFFFFFF400
006FFFFFD000
ENDCHAR
STARTCHAR cacute
ENCODING 263
SWIDTH 728 0
DWIDTH 23 0
BBX 22 36 1 -4
BITMAP
000000005A90
00005ABFA560
0001A5400010
000B00055010
002F01500010
00FF00000000
01FF00000500
01FF45ABFD00
01FFE5555550
01FD00000010
01F000000010
01D000000010
008005555010
038050000010
1F8040000010
3F80406AAA80
7F8040FFFE00
BF8041FFF400
FF8041FFD000
FF8041000000
FF8041000000
FF8041000000
FF8041000000
FF8041000000
FF8040400000
FF8040555540
FF8040000010
FF8040000010
FFC050000010
BFE005555010
BFF400000010
7FFE40000010
3FFFFFAAAA80
1FFFFFFFFE00
07FFFFFFF400
006FFFFFD000
ENDCHAR
STARTCHAR Ccircumflex
ENCODING 264
SWIDTH 728 0
DWIDTH 23 0
BBX 22 36 1 -4
BITMAP
000000550000
000015005400
000100000140
000801550040
002C04004040
00FC00000040
03FC06BE4040
07FEBFFFF940
07FFE5555550
07FD00000010
07F000000010
07D000000010
018005555010
078050000010
1F8040000010
3F80406AAA80
7F8040FFFE00
BF8041FFF400
FF8041FFD000
FF8041000000
FF8041000000
FF8041000000
FF8041000000
FF8041000000
FF8040400000
FF8040555540
FF8040000010
FF8040000010
FFC050000010
BFE005555010
BFF400000010
7FFE40000010
3FFFFFAAAA80
1FFFFFFFFE00
07FFFFFFF400
006FFFFFD000
ENDCHAR
STARTCHAR ccircumflex
ENCODING 265
SWIDTH 728 0
DWIDTH 23 0
BBX 22 36 1 -4
BITMAP
000000550000
000015005400
000100000140
000801550040
002C04004040
00FC00000040
03FC06BE4040
07FEBFFFF940
07FFE5555550
07FD00000010
07F000000010
07D000000010
018005555010
078050000010
1F8040000010
3F80406AAA80
7F8040FFFE00
BF8041FFF400
FF8041FFD000
FF8041000000
FF8041000000
FF8041000000
FF8041000000
FF8041000000
FF8040400000
FF8040555540
FF8040000010
FF8040000010
FFC050000010
BFE005555010
BFF400000010
7FFE40000010
3FFFFFAAAA80
1FFFFFFFFE00
07FFFFFFF400
006FFFFFD000
ENDCHAR
STARTCHAR Cdotaccent
ENCODING 266
SWIDTH 728 0
DWIDTH 23 0
BBX 22 35 1 -4
BITMAP
000005555000
000024001000
0000B4001000
0002F4041000
000FF4041000
000FF4001000
000FF8001000
000FE5555550
000D00000010
000000000010
000000000010
008005555010
078050000010
1F8040000010
3F80406AAA80
7F8040FFFE00
BF8041FFF400
FF8041FFD000
FF8041000000
FF8041000000
FF8041000000
FF8041000000
FF8041000000
FF8040400000
FF8040555540
FF8040000010
FF8040000010
FFC050000010
BFE005555010
BFF400000010
7FFE40000010
3FFFFFAAAA80
1FFFFFFFFE00
07FFFFFFF400
006FFFFFD000
ENDCHAR
STARTCHAR cdotaccent
ENCODING 267
SWIDTH 728 0
DWIDTH 23 0
BBX 22 35 1 -4
BITMAP
000005555000
000024001000
0000B4001000
0002F4041000
000FF4041000
000FF4001000
000FF8001000
000FE5555550
000D00000010
000000000010
000000000010
008005555010
078050000010
1F8040000010
3F80406AAA80
7F8040FFFE00
BF8041FFF400
FF8041FFD000
FF8041000000
FF8041000000
FF8041000000
FF8041000000
FF8041000000
FF8040400000
FF8040555540
FF8040000010
FF8040000010
FFC050000010
BFE005555010
BFF400000010
7FFE40000010
3FFFFFAAAA80
1FFFFFFFFE00
07FFFFFFF400
006FFFFFD000
ENDCHAR
STARTCHAR Ccaron
ENCODING 268
SWIDTH 728 0
DWIDTH 23 0
BBX 22 36 1 -4
BITMAP
000140000000
000D65005540
007C01550040
01FC00000040
07FC05005040
07FD00550000
07FF90000400
07FFFE41A000
07FFE5555550
02FD00000010
002000000010
005000000010
01C005555010
078050000010
1F8040000010
3F80406AAA80
BF8040FFFE00
BF8041FFF400
FF8041FFD000
FF8041000000
FF8041000000
FF8041000000
FF8041000000
FF8041000000
FF8040400000
FF8040555540
FF8040000010
FF8040000010
FFC050000010
BFE005555010
BFF400000010
7FFE40000010
2FFFFFAAAA80
1FFFFFFFFE00
07FFFFFFF400
006FFFFFD000
ENDCHAR
STARTCHAR ccaron
ENCODING 269
SWIDTH 728 0
DWIDTH 23 0
BBX 22 36 1 -4
BITMAP
000140000000
000D65005540
007C01550040
01FC00000040
07FC05005040
07FD00550000
07FF90000400
07FFFE41A000
07FFE5555550
02FD00000010
002000000010
005000000010
01C005555010
078050000010
1F8040000010
3F80406AAA80
BF8040FFFE00
BF8041FFF400
FF8041FFD000
FF8041000000
FF8041000000
FF8041000000
FF8041000000
FF8041000000
FF8040400000
FF8040555540
FF8040000010
FF8040000010
FFC050000010
BFE005555010
BFF400000010
7FFE40000010
2FFFFFAAAA80
1FFFFFFFFE00
07FFFFFFF400
006FFFFFD000
ENDCHAR
STARTCHAR Dcaron
ENCODING 270
SWIDTH 846 0
DWIDTH 27 0
BBX 25 36 1 -4
BITMAP
00005000004000
00075940155000
001F0055401000
00BF0000001000
01FF0140101000
02FF0015400000
02FFE400010000
02FFFF90680000
01D55555555000
01C00000000400
07C00000000100
1FC00000000040
7FC05555540040
BFC04000014040
BFC04000004040
BFC040AA804040
BFC040FFD01040
BFC040FFD01040
BFC040FFD01040
BFC040BFD01040
BFC0407FD01040
BFC0407FD01040
BFC0407FD01040
BFC0407FD01040
BFC0407FD01040
BFC0406A801040
BFC04000004040
BFC04000004040
BFC04000014040
BFC05555540100
BFC00000000400
BFC00000006000
BFFAAAAABF8000
BFFFFFFFFE0000
BFFFFFFFF40000
7FFFFFFE400000
ENDCHAR
STARTCHAR dcaron
ENCODING 271
SWIDTH 846 0
DWIDTH 27 0
BBX 25 36 1 -4
BITMAP
00005000004000
00075940155000
001F0055401000
00BF0000001000
01FF0140101000
02FF0015400000
02FFE400010000
02FFFF90680000
01D55555555000
01C00000000400
07C00000000100
1FC00000000040
7FC05555540040
BFC04000014040
BFC04000004040
BFC040AA804040
BFC040FFD01040
BFC040FFD01040
BFC040FFD01040
BFC040BFD01040
BFC0407FD01040
BFC0407FD01040
BFC0407FD01040
BFC0407FD01040
BFC0407FD01040
BFC0406A801040
BFC04000004040
BFC04000004040
BFC04000014040
BFC05555540100
BFC00000000400
BFC00000006000
BFFAAAAABF8000
BFFFFFFFFE0000
BFFFFFFFF40000
7FFFFFFE400000
ENDCHAR
STARTCHAR Dcroat
ENCODING 272
SWIDTH 856 0
DWIDTH 27 0
BBX 27 28 0 -4
BITMAP
00055555555400
00340000000100
01F40000000040
07F40000000010
0FF41555550010
1FF41000005004
1FF41000001004
1FF4101AA40404
1FF4102FF80404
1FF4102FF80404
1F801001F80404
1F401000F80404
2F416540F80404
FF401000F80404
FF401001F80404
FF901016F80404
FFF4102FF80404
FFF4101BF40404
FFF41000000404
6FF41000001410
1FF41000005010
1FF41555550010
1FF40000000040
1FF40000001900
1FFEAAAAAFF400
1FFFFFFFFFD000
1FFFFFFFFE0000
0BFFFFFFA40000
ENDCHAR
STARTCHAR dcroat
ENCODING 273
SWIDTH 856 0
DWIDTH 27 0
BBX 27 28 0 -4
BITMAP
00055555555400
00340000000100
01F40000000040
07F40000000010
0FF41555550010
1FF41000005004
1FF41000001004
1FF4101AA40404
1FF4102FF80404
1FF4102FF80404
1F801001F80404
1F401000F80404
2F416540F80404
FF401000F80404
FF401001F80404
FF901016F80404
FFF4102FF80404
FFF4101BF40404
FFF41000000404
6FF41000001410
1FF41000005010
1FF41555550010
1FF40000000040
1FF40000001900
1FFEAAAAAFF400
1FFFFFFFFFD000
1FFFFFFFFE0000
0BFFFFFFA40000
ENDCHAR
STARTCHAR Emacron
ENCODING 274
SWIDTH 754 0
DWIDTH 24 0
BBX 23 34 1 -4
BITMAP
000155555500
001800000040
007800000040
02F805554040
07F800000040
0BFC00000100
0BD555555550
0BC000000004
0BC000000004
0BC000000004
3FC055555404
BFC040000004
BFC040000010
BFC040FFFFD0
BFC040FFFF40
BFC040555900
BFC040000100
BFC040000100
BFC055554100
BFC040000100
BFC040000100
BFC040FFF800
BFC040FFD000
BFC040AA9550
BFC040000004
BFC040000004
BFC040000004
BFC055555404
BFC000000004
BFC000000004
BFFAAAAAAA90
BFFFFFFFFF40
BFFFFFFFFD00
7FFFFFFFE000
ENDCHAR
STARTCHAR emacron
ENCODING 275
SWIDTH 754 0
DWIDTH 24 0
BBX 23 34 1 -4
BITMAP
000155555500
001800000040
007800000040
02F805554040
07F800000040
0BFC00000100
0BD555555550
0BC000000004
0BC000000004
0BC000000004
3FC055555404
BFC040000004
BFC040000010
BFC040FFFFD0
BFC040FFFF40
BFC040555900
BFC040000100
BFC040000100
BFC055554100
BFC040000100
BFC040000100
BFC040FFF800
BFC040FFD000
BFC040AA9550
BFC040000004
BFC040000004
BFC040000004
BFC055555404
BFC000000004
BFC000000004
BFFAAAAAAA90
BFFFFFFFFF40
BFFFFFFFFD00
7FFFFFFFE000
ENDCHAR
STARTCHAR Ebreve
ENCODING 276
SWIDTH 754 0
DWIDTH 24 0
BBX 23 36 1 -4
BITMAP
000155015540
001800460040
007C006E0040
01FC10140440
07FC14001040
0BFD01554000
0BFF40000000
07FFE4005000
07D555555550
02C000000004
03C000000004
1FC000000004
7FC055555404
BFC040000004
BFC040000010
BFC040FFFFD0
BFC040FFFF40
BFC040555900
BFC040000100
BFC040000100
BFC055554100
BFC040000100
BFC040000100
BFC040FFF800
BFC040FFD000
BFC040AA9550
BFC040000004
BFC040000004
BFC040000004
BFC055555404
BFC000000004
BFC000000004
BFFAAAAAAA90
BFFFFFFFFF40
BFFFFFFFFD00
7FFFFFFFE000
ENDCHAR
STARTCHAR ebreve
ENCODING 277
SWIDTH 754 0
DWIDTH 24 0
BBX 23 36 1 -4
BITMAP
000155015540
001800460040
007C006E0040
01FC10140440
07FC14001040
0BFD01554000
0BFF40000000
07FFE4005000
07D555555550
02C000000004
03C000000004
1FC000000004
7FC055555404
BFC040000004
BFC040000010
BFC040FFFFD0
BFC040FFFF40
BFC040555900
BFC040000100
BFC040000100
BFC055554100
BFC040000100
BFC040000100
BFC040FFF800
BFC040FFD000
BFC040AA9550
BFC040000004
BFC040000004
BFC040000004
BFC055555404
BFC000000004
BFC000000004
BFFAAAAAAA90
BFFFFFFFFF40
BFFFFFFFFD00
7FFFFFFFE000
ENDCHAR
STARTCHAR Edotaccent
ENCODING 278
SWIDTH 754 0
DWIDTH 24 0
BBX 23 35 1 -4
BITMAP
000015554000
000090004000
0007D0004000
001FD0104000
003FD0104000
003FD0004000
003FE0004000
005555555550
01C000000004
0BC000000004
2FC000000004
7FC055555404
BFC040000004
BFC040000010
BFC040FFFFD0
BFC040FFFF40
BFC040555900
BFC040000100
BFC040000100
BFC055554100
BFC040000100
BFC040000100
BFC040FFF800
BFC040FFD000
BFC040AA9550
BFC040000004
BFC040000004
BFC040000004
BFC055555404
BFC000000004
BFC000000004
BFFAAAAAAA90
BFFFFFFFFF40
BFFFFFFFFD00
7FFFFFFFE000
ENDCHAR
STARTCHAR edotaccent
ENCODING 279
SWIDTH 754 0
DWIDTH 24 0
BBX 23 35 1 -4
BITMAP
000015554000
000090004000
0007D0004000
001FD0104000
003FD0104000
003FD0004000
003FE0004000
005555555550
01C000000004
0BC000000004
2FC000000004
7FC055555404
BFC040000004
BFC040000010
BFC040FFFFD0
BFC040FFFF40
BFC040555900
BFC040000100
BFC040000100
BFC055554100
BFC040000100
BFC040000100
BFC040FFF800
BFC040FFD000
BFC040AA9550
BFC040000004
BFC040000004
BFC040000004
BFC055555404
BFC000000004
BFC000000004
BFFAAAAAAA90
BFFFFFFFFF40
BFFFFFFFFD00
7FFFFFFFE000
ENDCHAR
STARTCHAR Eogonek
ENCODING 280
SWIDTH 754 0
DWIDTH 24 0
BBX 23 34 1 -10
BITMAP
005555555550
01C000000004
0BC000000004
2FC000000004
7FC055555404
BFC040000004
BFC040000010
BFC040FFFFD0
BFC040FFFF40
BFC040555900
BFC040000100
BFC040000100
BFC055554100
BFC040000100
BFC040000100
BFC040FFF800
BFC040FFD000
BFC040AA9550
BFC040000004
BFC040000004
BFC040000004
BFC055555404
BFC000001004
BFC000001004
BFFAAAA41190
BFFFFFF44190
BFFFFFF04004
7FFFFFF01404
00000FF40004
00001FFD0004
00001FFFFFE0
00001FFFFF40
00000FFFFD00
000006FFF400
ENDCHAR
STARTCHAR eogonek
ENCODING 281
SWIDTH 754 0
DWIDTH 24 0
BBX 23 34 1 -10
BITMAP
005555555550
01C000000004
0BC000000004
2FC000000004
7FC055555404
BFC040000004
BFC040000010
BFC040FFFFD0
BFC040FFFF40
BFC040555900
BFC040000100
BFC040000100
BFC055554100
BFC040000100
BFC040000100
BFC040FFF800
BFC040FFD000
BFC040AA9550
BFC040000004
BFC040000004
BFC040000004
BFC055555404
BFC000001004
BFC000001004
BFFAAAA41190
BFFFFFF44190
BFFFFFF04004
7FFFFFF01404
00000FF40004
00001FFD0004
00001FFFFFE0
00001FFFFF40
00000FFFFD00
000006FFF400
ENDCHAR
STARTCHAR Ecaron
ENCODING 282
SWIDTH 754 0
DWIDTH 24 0
BBX 23 36 1 -4
BITMAP
000140000000
001D65005540
007C01550040
02FC00000040
07FC05004040
07FC00550000
07FF90000400
07FFFE41A000
07D555555550
02C000000004
07C000000004
1FC000000004
7FC055555404
BFC040000004
BFC040000010
BFC040FFFFD0
BFC040FFFF40
BFC040555900
BFC040000100
BFC040000100
BFC055554100
BFC040000100
BFC040000100
BFC040FFF800
BFC040FFD000
BFC040AA9550
BFC040000004
BFC040000004
BFC040000004
BFC055555404
BFC000000004
BFC000000004
BFFAAAAAAA90
BFFFFFFFFF40
BFFFFFFFFD00
7FFFFFFFE000
ENDCHAR
STARTCHAR ecaron
ENCODING 283
SWIDTH 754 0
DWIDTH 24 0
BBX 23 36 1 -4
BITMAP
000140000000
001D65005540
007C01550040
02FC00000040
07FC05004040
07FC00550000
07FF90000400
07FFFE41A000
07D555555550
02C000000004
07C000000004
1FC000000004
7FC055555404
BFC040000004
BFC040000010
BFC040FFFFD0
BFC040FFFF40
BFC040555900
BFC040000100
BFC040000100
BFC055554100
BFC040000100
BFC040000100
BFC040FFF800
BFC040FFD000
BFC040AA9550
BFC040000004
BFC040000004
BFC040000004
BFC055555404
BFC000000004
BFC000000004
BFFAAAAAAA90
BFFFFFFFFF40
BFFFFFFFFD00
7FFFFFFFE000
ENDCHAR
STARTCHAR Gcircumflex
ENCODING 284
SWIDTH 808 0
DWIDTH 26 0
BBX 24 36 1 -4
BITMAP
000000154000
000005401400
000050000150
000140154010
000B01401410
002F00000010
00BF001A4010
01FF56FFF910
01FFFFFFFFD0
01FF90000010
01F800000010
01E000000010
00C005555410
038010000010
1F8040000010
3F80406AAA90
7F8040FFFE00
BF8041FFF800
FF8041FFD000
FF8041005555
FF8041014001
FF80410B4001
FF80412F4001
FF8041BF4101
FF8041FF4101
FF8040FF4101
FF8040150101
FF8040000101
FFC010000101
BFE005555501
BFF400000001
7FFE40000001
3FFFFFAAAAA9
1FFFFFFFFFE0
07FFFFFFFF80
006FFFFFFE00
ENDCHAR
STARTCHAR gcircumflex
ENCODING 285
SWIDTH 808 0
DWIDTH 26 0
BBX 24 36 1 -4
BITMAP
000000154000
000005401400
000050000150
000140154010
000B01401410
002F00000010
00BF001A4010
01FF56FFF910
01FFFFFFFFD0
01FF90000010
01F800000010
01E000000010
00C005555410
038010000010
1F8040000010
3F80406AAA90
7F8040FFFE00
BF8041FFF800
FF8041FFD000
FF8041005555
FF8041014001
FF80410B4001
FF80412F4001
FF8041BF4101
FF8041FF4101
FF8040FF4101
FF8040150101
FF8040000101
FFC010000101
BFE005555501
BFF400000001
7FFE40000001
3FFFFFAAAAA9
1FFFFFFFFFE0
07FFFFFFFF80
006FFFFFFE00
ENDCHAR
STARTCHAR Gbreve
ENCODING 286
SWIDTH 808 0
DWIDTH 26 0
BBX 24 36 1 -4
BITMAP
000055405550
000600418010
001E001B4010
007E04050510
01FF05000410
02FF01555000
02FF80000000
02FFF9001400
02FFE5555550
00FD00000010
006000000010
005000000010
01C005555410
078010000010
1F8040000010
3F80406AAA80
BF8040FFFE00
BF8041FFF800
FF8041FFD000
FF8041005555
FF8041014001
FF80410B4001
FF80412F4001
FF8041BF4101
FF8041FF4101
FF8040FF4101
FF8040150101
FF8040000101
FFC010000101
BFE005555501
BFF400000001
7FFE40000001
2FFFFFAAAAA9
1FFFFFFFFFE0
07FFFFFFFF80
006FFFFFFE00
ENDCHAR
STARTCHAR gbreve
ENCODING 287
SWIDTH 808 0
DWIDTH 26 0
BBX 24 36 1 -4
BITMAP
000055405550
000600418010
001E001B4010
007E04050510
01FF05000410
02FF01555000
02FF80000000
02FFF9001400
02FFE5555550
00FD00000010
006000000010
005000000010
01C005555410
078010000010
1F8040000010
3F80406AAA80
BF8040FFFE00
BF8041FFF800
FF8041FFD000
FF8041005555
FF8041014001
FF80410B4001
FF80412F4001
FF8041BF4101
FF8041FF4101
FF8040FF4101
FF8040150101
FF8040000101
FFC010000101
BFE005555501
BFF400000001
7FFE40000001
2FFFFFAAAAA9
1FFFFFFFFFE0
07FFFFFFFF80
006FFFFFFE00
ENDCHAR
STARTCHAR Gdotaccent
ENCODING 288
SWIDTH 808 0
DWIDTH 26 0
BBX 24 35 1 -4
BITMAP
000001555400
00000C000400
00007C000400
0002FC040400
0007FC040400
0007FC000400
0007FD001000
0007E5555550
000500000010
000000000010
005000000010
02C005555410
0B8010000010
2F8040000010
7F80406AAA80
BF8040FFFE00
BF8041FFF800
FF8041FFD000
FF8041005555
FF8041014001
FF80410B4001
FF80412F4001
FF8041BF4101
FF8041FF4101
FF8040FF4101
FF8040150101
FF8040000101
FFC010000101
BFE005555501
BFF400000001
7FFE40000001
2FFFFFAAAAA9
0FFFFFFFFFE0
07FFFFFFFF80
006FFFFFFE00
ENDCHAR
STARTCHAR gdotaccent
ENCODING 289
SWIDTH 808 0
DWIDTH 26 0
BBX 24 35 1 -4
BITMAP
000001555400
00000C000400
00007C000400
0002FC040400
0007FC040400
0007FC000400
0007FD001000
0007E5555550
000500000010
000000000010
005000000010
02C005555410
0B8010000010
2F8040000010
7F80406AAA80
BF8040FFFE00
BF8041FFF800
FF8041FFD000
FF8041005555
FF8041014001
FF80410B4001
FF80412F4001
FF8041BF4101
FF8041FF4101
FF8040FF4101
FF8040150101
FF8040000101
FFC010000101
BFE005555501
BFF400000001
7FFE40000001
2FFFFFAAAAA9
0FFFFFFFFFE0
07FFFFFFFF80
006FFFFFFE00
ENDCHAR
STARTCHAR Gcommaaccent
ENCODING 290
SWIDTH 808 0
DWIDTH 26 0
BBX 24 40 1 -16
BITMAP
000055555550
000500000010
002000000010
009000000010
02C005555410
0F8010000010
2F8040000010
7F80406AAA80
BF8040FFFE00
BF8041FFF800
FF8041FFD000
FF8041005555
FF8041014001
FF80410B4001
FF80412F4001
FF8041BF4101
FF8041FF4101
FF8040FF4101
FF8040150101
FFC040000101
FFD010000101
BFE005555501
BFF800000001
7FFF94000001
2FFFFFFFFFFD
0FFFFD555FE0
03FFFC000B80
006FFC000A00
0001FC154400
0007FC004400
000BFC004400
000BFD004400
000BFFF84400
000BFE510400
0007FD151000
0002FD004000
0002FFFE0000
0003FFF40000
0003FFD00000
000155000000
ENDCHAR
STARTCHAR gcommaaccent
ENCODING 291
SWIDTH 808 0
DWIDTH 26 0
BBX 24 40 1 -16
BITMAP
000055555550
000500000010
002000000010
009000000010
02C005555410
0F8010000010
2F8040000010
7F80406AAA80
BF8040FFFE00
BF8041FFF800
FF8041FFD000
FF8041005555
FF8041014001
FF80410B4001
FF80412F4001
FF8041BF4101
FF8041FF4101
FF8040FF4101
FF8040150101
FFC040000101
FFD010000101
BFE005555501
BFF800000001
7FFF94000001
2FFFFFFFFFFD
0FFFFD555FE0
03FFFC000B80
006FFC000A00
0001FC154400
0007FC004400
000BFC004400
000BFD004400
000BFFF84400
000BFE510400
0007FD151000
0002FD004000
0002FFFE0000
0003FFF40000
0003FFD00000
000155000000
ENDCHAR
STARTCHAR Hcircumflex
ENCODING 292
SWIDTH 859 0
DWIDTH 27 0
BBX 25 36 1 -4
BITMAP
00000015400000
00000540150000
00005000005000
00020015401000
001F0140141000
007F0000001000
01FF01AF901000
01FFAFFFFE9000
01D555FFF55540
01C000FFE00040
07C000AFE00040
1FC0004BE00040
7FC0406FE01040
BFC0407FE01040
BFC0407FE01040
BFC0407FE01040
BFC0406A901040
BFC04000001040
BFC04000001040
BFC04000001040
BFC05555555040
BFC04000001040
BFC04000001040
BFC04000001040
BFC040FFE01040
BFC040FFE01040
BFC040FFE01040
BFC040BFE01040
BFC0407FE01040
BFC0007FE00040
BFC0007FE00040
BFC0007FE00040
BFFAAA3FFEAA40
BFFFF83FFFFC00
BFFFD03FFFE000
7FFF402FFF8000
ENDCHAR
STARTCHAR hcircumflex
ENCODING 293
SWIDTH 859 0
DWIDTH 27 0
BBX 25 36 1 -4
BITMAP
00000015400000
00000540150000
00005000005000
00020015401000
001F0140141000
007F0000001000
01FF01AF901000
01FFAFFFFE9000
01D555FFF55540
01C000FFE00040
07C000AFE00040
1FC0004BE00040
7FC0406FE01040
BFC0407FE01040
BFC0407FE01040
BFC0407FE01040
BFC0406A901040
BFC04000001040
BFC04000001040
BFC04000001040
BFC05555555040
BFC04000001040
BFC04000001040
BFC04000001040
BFC040FFE01040
BFC040FFE01040
BFC040FFE01040
BFC040BFE01040
BFC0407FE01040
BFC0007FE00040
BFC0007FE00040
BFC0007FE00040
BFFAAA3FFEAA40
BFFFF83FFFFC00
BFFFD03FFFE000
7FFF402FFF8000
ENDCHAR
STARTCHAR Hbar
ENCODING 294
SWIDTH 879 0
DWIDTH 28 0
BBX 28 28 0 -4
BITMAP
00055550055550
003400101C0004
01F400107C0004
07F40011FC0004
0FE01016A80405
1F801000000401
1F801000000401
2F806555555941
7F801000000401
BF801000000401
BFE0101AA40405
BFF4102FFC0404
BFF4102FFC0404
BFF41000000404
2FF41000000404
1FF41000000404
1FF41555555404
1FF41000000404
1FF41000000404
1FF4102AA80404
1FF4102FFC0404
1FF4002FFC0004
1FF4002FFC0004
1FF4001BFC0004
1FFEAA8BFFAAA0
1FFFFE0BFFFF40
1FFFF40BFFFD00
0BFFD007FFE000
ENDCHAR
STARTCHAR hbar
ENCODING 295
SWIDTH 879 0
DWIDTH 28 0
BBX 28 28 0 -4
BITMAP
00055550055550
003400101C0004
01F400107C0004
07F40011FC0004
0FE01016A80405
1F801000000401
1F801000000401
2F806555555941
7F801000000401
BF801000000401
BFE0101AA40405
BFF4102FFC0404
BFF4102FFC0404
BFF41000000404
2FF41000000404
1FF41000000404
1FF41555555404
1FF41000000404
1FF41000000404
1FF4102AA80404
1FF4102FFC0404
1FF4002FFC0004
1FF4002FFC0004
1FF4001BFC0004
1FFEAA8BFFAAA0
1FFFFE0BFFFF40
1FFFF40BFFFD00
0BFFD007FFE000
ENDCHAR
STARTCHAR Itilde
ENCODING 296
SWIDTH 705 0
DWIDTH 23 0
BBX 21 35 1 -4
BITMAP
000155501400
001400154100
00A000000100
02E055400100
0BE000150100
2FE000000000
2FE5A9500000
2F9555555540
2F4000000040
2F4000000040
2F4000000040
7F4155554040
FF4000400040
FF9500401540
FFFF8040FD00
FFFF8040F400
FFFF80409000
6AFF80404000
00BF80404000
00BF80404000
00BF80404000
00BF80404000
00BF80404000
00BF80404000
00AA40405500
014000400040
0B4000400040
2F4000400040
BF4155554040
FF4000000040
FF4000000040
FFEAAAAAAA00
FFFFFFFFF800
FFFFFFFFD000
BFFFFFFF4000
ENDCHAR
STARTCHAR itilde
ENCODING 297
SWIDTH 705 0
DWIDTH 23 0
BBX 21 35 1 -4
BITMAP
000155501400
001400154100
00A000000100
02E055400100
0BE000150100
2FE000000000
2FE5A9500000
2F9555555540
2F4000000040
2F4000000040
2F4000000040
7F4155554040
FF4000400040
FF9500401540
FFFF8040FD00
FFFF8040F400
FFFF80409000
6AFF80404000
00BF80404000
00BF80404000
00BF80404000
00BF80404000
00BF80404000
00BF80404000
00AA40405500
014000400040
0B4000400040
2F4000400040
BF4155554040
FF4000000040
FF4000000040
FFEAAAAAAA00
FFFFFFFFF800
FFFFFFFFD000
BFFFFFFF4000
ENDCHAR
STARTCHAR Imacron
ENCODING 298
SWIDTH 705 0
DWIDTH 23 0
BBX 21 34 1 -4
BITMAP
001555555400
006000000100
01E000000100
0BE015550100
2FE000000100
2FE000000400
2FFFFFFFFF40
2F9555555580
2F4000000040
2F4000000040
7F4155554040
FF4000400040
FF9500401540
FFFF8040FD00
FFFF8040F400
FFFF80409000
6AFF80404000
00BF80404000
00BF80404000
00BF80404000
00BF80404000
00BF80404000
00BF80404000
00AA40405500
014000400040
0B4000400040
2F4000400040
BF4155554040
FF4000000040
FF4000000040
FFEAAAAAAA00
FFFFFFFFF800
FFFFFFFFD000
BFFFFFFF4000
ENDCHAR
STARTCHAR imacron
ENCODING 299
SWIDTH 705 0
DWIDTH 23 0
BBX 21 34 1 -4
BITMAP
001555555400
006000000100
01E000000100
0BE015550100
2FE000000100
2FE000000400
2FFFFFFFFF40
2F9555555580
2F4000000040
2F4000000040
7F4155554040
FF4000400040
FF9500401540
FFFF8040FD00
FFFF8040F400
FFFF80409000
6AFF80404000
00BF80404000
00BF80404000
00BF80404000
00BF80404000
00BF80404000
00BF80404000
00AA40405500
014000400040
0B4000400040
2F4000400040
BF4155554040
FF4000000040
FF4000000040
FFEAAAAAAA00
FFFFFFFFF800
FFFFFFFFD000
BFFFFFFF4000
ENDCHAR
STARTCHAR Ibreve
ENCODING 300
SWIDTH 705 0
DWIDTH 23 0
BBX 21 36 1 -4
BITMAP
001554055400
005004240100
02D005F40100
0BD041504100
2FE040014100
3FF015550000
3FF800000000
3FFF50014000
2F9555555540
1F4000000040
0B4000000040
2F4000000040
BF4155554040
FF4000400040
FF9500401540
FFFF8040FD00
FFFF8040F400
FFFF80409000
6AFF80404000
00BF80404000
00BF80404000
00BF80404000
00BF80404000
00BF80404000
00BF80404000
00AA40405500
014000400040
0B4000400040
2F4000400040
BF4155554040
FF4000000040
FF4000000040
FFEAAAAAAA00
FFFFFFFFF800
FFFFFFFFD000
BFFFFFFF4000
ENDCHAR
STARTCHAR ibreve
ENCODING 301
SWIDTH 705 0
DWIDTH 23 0
BBX 21 36 1 -4
BITMAP
001554055400
005004240100
02D005F40100
0BD041504100
2FE040014100
3FF015550000
3FF800000000
3FFF50014000
2F9555555540
1F4000000040
0B4000000040
2F4000000040
BF4155554040
FF4000400040
FF9500401540
FFFF8040FD00
FFFF8040F400
FFFF80409000
6AFF80404000
00BF80404000
00BF80404000
00BF80404000
00BF80404000
00BF80404000
00BF80404000
00AA40405500
014000400040
0B4000400040
2F4000400040
BF4155554040
FF4000000040
FF4000000040
FFEAAAAAAA00
FFFFFFFFF800
FFFFFFFFD000
BFFFFFFF4000
ENDCHAR
STARTCHAR Iogonek
ENCODING 302
SWIDTH 705 0
DWIDTH 23 0
BBX 21 34 1 -10
BITMAP
005555555540
024000000040
0F4000000040
7F4000000040
FF4155554040
FF4000400040
FF9500401540
FFFF8040FD00
FFFF8040F400
FFFF80409000
6AFF80404000
00BF80404000
00BF80404000
00BF80404000
00BF80404000
00BF80404000
00BF80404000
00AA40405500
014000400040
0B4000400040
2F4000400040
BF4155554040
FF4000010040
FF4000010040
FFEAAA810A00
FFFFFF810900
FFFFFF410040
BFFFFF414040
0000FF800040
0000FFD00040
0000FFFFFE00
0000FFFFF800
0000BFFFE000
00002FFF4000
ENDCHAR
STARTCHAR iogonek
ENCODING 303
SWIDTH 705 0
DWIDTH 23 0
BBX 21 34 1 -10
BITMAP
005555555540
024000000040
0F4000000040
7F4000000040
FF4155554040
FF4000400040
FF9500401540
FFFF8040FD00
FFFF8040F400
FFFF80409000
6AFF80404000
00BF80404000
00BF80404000
00BF80404000
00BF80404000
00BF80404000
00BF80404000
00AA40405500
014000400040
0B4000400040
2F4000400040
BF4155554040
FF4000010040
FF4000010040
FFEAAA810A00
FFFFFF810900
FFFFFF410040
BFFFFF414040
0000FF800040
0000FFD00040
0000FFFFFE00
0000FFFFF800
0000BFFFE000
00002FFF4000
ENDCHAR
STARTCHAR Idotaccent
ENCODING 304
SWIDTH 705 0
DWIDTH 23 0
BBX 21 35 1 -4
BITMAP
000055550000
000180004000
000B80004000
003F80404000
00BF80404000
00BF80004000
00BFC0010000
009555555540
024000000040
0B4000000040
7F4000000040
FF4155554040
FF4000400040
FF9500401540
FFFF8040FD00
FFFF8040F400
FFFF80409000
6AFF80404000
00BF80404000
00BF80404000
00BF80404000
00BF80404000
00BF80404000
00BF80404000
00AA40405500
014000400040
0B4000400040
2F4000400040
BF4155554040
FF4000000040
FF4000000040
FFEAAAAAAA00
FFFFFFFFF800
FFFFFFFFD000
BFFFFFFF4000
ENDCHAR
STARTCHAR dotlessi
ENCODING 305
SWIDTH 705 0
DWIDTH 23 0
BBX 21 28 1 -4
BITMAP
005555555540
024000000040
0F4000000040
7F4000000040
FF4155554040
FF4000400040
FF9500401540
FFFF8040FD00
FFFF8040F400
FFFF80409000
6AFF80404000
00BF80404000
00BF80404000
00BF80404000
00BF80404000
00BF80404000
00BF80404000
00AA40405500
014000400040
0B4000400040
2F4000400040
BF4155554040
FF4000000040
FF4000000040
FFEAAAAAAA00
FFFFFFFFF800
FFFFFFFFD000
BFFFFFFF4000
ENDCHAR
STARTCHAR IJ
ENCODING 306
SWIDTH 844 0
DWIDTH 27 0
BBX 25 28 1 -4
BITMAP
00555500155540
01C00040900040
0BC00042D00040
2FC0004BD00040
7FC0406FD04040
BFC040BFD04040
BFC040FFD04040
BFC040FFD04040
BFC040FFD04040
BFC040FFD04040
BFC040FFD04040
BFC000FFD04040
BFC000FFD04040
BFC000FFD04040
BFFFFEFFD04040
BFFFF4FFC04040
BFFFC0FFC04040
2AAA55AA404040
00800000004040
07C00000004040
1FC00000010100
7FC05555540100
BFC00000000400
BFC00000005000
BFFAAAAAAF8000
BFFFFFFFFD0000
BFFFFFFFF40000
7FFFFFFE400000
ENDCHAR
STARTCHAR ij
ENCODING 307
SWIDTH 844 0
DWIDTH 27 0
BBX 25 28 1 -4
BITMAP
00555500155540
01C00040900040
0BC00042D00040
2FC0004BD00040
7FC0406FD04040
BFC040BFD04040
BFC040FFD04040
BFC040FFD04040
BFC040FFD04040
BFC040FFD04040
BFC040FFD04040
BFC000FFD04040
BFC000FFD04040
BFC000FFD04040
BFFFFEFFD04040
BFFFF4FFC04040
BFFFC0FFC04040
2AAA55AA404040
00800000004040
07C00000004040
1FC00000010100
7FC05555540100
BFC00000000400
BFC00000005000
BFFAAAAAAF8000
BFFFFFFFFD0000
BFFFFFFFF40000
7FFFFFFE400000
ENDCHAR
STARTCHAR Jcircumflex
ENCODING 308
SWIDTH 788 0
DWIDTH 25 0
BBX 27 36 0 -4
BITMAP
00000000055000
00000001500500
00000014000014
00000080155004
000007C0400404
00001FC0000004
00007FC06BE404
00007FEBFFFFA4
00007FFFEAABE0
00007FFF400140
00007F9B400100
0000142F400100
000000FF410100
000000FF410100
000000FF410100
000000FF410100
000000FF410100
000000FF410100
000000FF410100
001555FF410100
008000FF410100
07C000FF410100
1FC000FF410100
7FC040FF410100
7FC040FF410100
7FC040FF010100
7FC04014010100
7FC05000010100
7FD01400040100
7FF00155500400
7FFD0000001000
3FFF9000068000
1FFFFFFBFE0000
0BFFFFFFF80000
01FFFFFFD00000
001AFFE9000000
ENDCHAR
STARTCHAR jcircumflex
ENCODING 309
SWIDTH 788 0
DWIDTH 25 0
BBX 27 36 0 -4
BITMAP
00000000055000
00000001500500
00000014000014
00000080155004
000007C0400404
00001FC0000004
00007FC06BE404
00007FEBFFFFA4
00007FFFEAABE0
00007FFF400140
00007F9B400100
0000142F400100
000000FF410100
000000FF410100
000000FF410100
000000FF410100
000000FF410100
000000FF410100
000000FF410100
001555FF410100
008000FF410100
07C000FF410100
1FC000FF410100
7FC040FF410100
7FC040FF410100
7FC040FF010100
7FC04014010100
7FC05000010100
7FD01400040100
7FF00155500400
7FFD0000001000
3FFF9000068000
1FFFFFFBFE0000
0BFFFFFFF80000
01FFFFFFD00000
001AFFE9000000
ENDCHAR
STARTCHAR Kcommaaccent
ENCODING 310
SWIDTH 846 0
DWIDTH 27 0
BBX 25 40 1 -16
BITMAP
00555500155540
01C00040800040
0BC00043400100
2FC0004F000100
7FC0407D010400
BFC040FC040400
BFC040F8040400
BFC040F4101000
BFC040F0101000
BFC04050101400
BFC04000400100
BFC04000400040
BFC05555550040
BFC04000004040
BFC04000004040
BFC04055404040
BFC040FFD01040
BFC040FFD01040
BFC040FFD01040
BFC040BFD01040
BFC0407FD01040
BFC0007FD00040
BFC0007FD00040
BFC0007FE00040
BFFAAA3FFAAA40
BFFFF96AAFF800
BFFFD8000BE000
7FFF7C000B8000
0001FC15440000
0007FC00440000
000BFC00440000
000BFC00440000
000BFFF8440000
000BFE51040000
0007FD15100000
0002FD00400000
0002FFFE000000
0007FFF4000000
0003FFD0000000
00015500000000
ENDCHAR
STARTCHAR kcommaaccent
ENCODING 311
SWIDTH 846 0
DWIDTH 27 0
BBX 25 40 1 -16
BITMAP
00555500155540
01C00040800040
0BC00043400100
2FC0004F000100
7FC0407D010400
BFC040FC040400
BFC040F8040400
BFC040F4101000
BFC040F0101000
BFC04050101400
BFC04000400100
BFC04000400040
BFC05555550040
BFC04000004040
BFC04000004040
BFC04055404040
BFC040FFD01040
BFC040FFD01040
BFC040FFD01040
BFC040BFD01040
BFC0407FD01040
BFC0007FD00040
BFC0007FD00040
BFC0007FE00040
BFFAAA3FFAAA40
BFFFF96AAFF800
BFFFD8000BE000
7FFF7C000B8000
0001FC15440000
0007FC00440000
000BFC00440000
000BFC00440000
000BFFF8440000
000BFE51040000
0007FD15100000
0002FD00400000
0002FFFE000000
0007FFF4000000
0003FFD0000000
00015500000000
ENDCHAR
STARTCHAR kgreenlandic
ENCODING 312
SWIDTH 846 0
DWIDTH 27 0
BBX 25 28 1 -4
BITMAP
00555500155540
01C00040800040
0BC00043400100
2FC0004F000100
7FC0407D010400
BFC040FC040400
BFC040F8040400
BFC040F4101000
BFC040F0101000
BFC04050101400
BFC04000400100
BFC04000400040
BFC05555550040
BFC04000004040
BFC04000004040
BFC04055404040
BFC040FFD01040
BFC040FFD01040
BFC040FFD01040
BFC040BFD01040
BFC0407FD01040
BFC0007FD00040
BFC0007FD00040
BFC0007FE00040
BFFAAA3FFAAA40
BFFFF83FFFF800
BFFFD03FFFE000
7FFF402FFF8000
ENDCHAR
STARTCHAR Lacute
ENCODING 313
SWIDTH 795 0
DWIDTH 25 0
BBX 24 35 1 -4
BITMAP
000001555400
001550000400
008000000400
03C055540400
1FC000000400
7FC000016400
BFD16AFFD000
BFFFFFFF0000
BFC000F80000
BFC000900000
7FC000400000
2FC040400000
7FC040400000
BFC040400000
BFC040400000
BFC040400000
BFC040400000
BFC040400000
BFC040405555
BFC040418001
BFC040478001
BFC0406F8001
BFC040BF8101
BFC040FF8101
BFC040FF8101
BFC040554101
BFC040000101
BFC040000101
BFC055555501
BFC000000001
BFC000000001
BFFAAAAAAAA8
BFFFFFFFFFE0
BFFFFFFFFF80
7FFFFFFFFD00
ENDCHAR
STARTCHAR lacute
ENCODING 314
SWIDTH 795 0
DWIDTH 25 0
BBX 24 35 1 -4
BITMAP
000001555400
001550000400
008000000400
03C055540400
1FC000000400
7FC000016400
BFD16AFFD000
BFFFFFFF0000
BFC000F80000
BFC000900000
7FC000400000
2FC040400000
7FC040400000
BFC040400000
BFC040400000
BFC040400000
BFC040400000
BFC040400000
BFC040405555
BFC040418001
BFC040478001
BFC0406F8001
BFC040BF8101
BFC040FF8101
BFC040FF8101
BFC040554101
BFC040000101
BFC040000101
BFC055555501
BFC000000001
BFC000000001
BFFAAAAAAAA8
BFFFFFFFFFE0
BFFFFFFFFF80
7FFFFFFFFD00
ENDCHAR
STARTCHAR Lcommaaccent
ENCODING 315
SWIDTH 795 0
DWIDTH 25 0
BBX 24 40 1 -16
BITMAP
005555400000
01C000400000
0BC000400000
2FC040400000
7FC040400000
BFC040400000
BFC040400000
BFC040400000
BFC040400000
BFC040400000
BFC040400000
BFC040405555
BFC040418001
BFC040478001
BFC0406F8001
BFC040BF8101
BFC040FF8101
BFC040FF8101
BFC040554101
BFC040000101
BFC040000101
BFC055555501
BFC000000001
BFD000000001
BFFFFFFFFFFC
BFFFFD555FE0
BFFFF8000F80
7FFFF8000D00
0002F8550400
000BF8004400
000BF8004400
000BF8004400
000BFFF50400
000BFD511000
000BFC541000
0006FC014000
0007FFFD0000
0007FFF40000
0007FF800000
000155000000
ENDCHAR
STARTCHAR lcommaaccent
ENCODING 316
SWIDTH 795 0
DWIDTH 25 0
BBX 24 40 1 -16
BITMAP
005555400000
01C000400000
0BC000400000
2FC040400000
7FC040400000
BFC040400000
BFC040400000
BFC040400000
BFC040400000
BFC040400000
BFC040400000
BFC040405555
BFC040418001
BFC040478001
BFC0406F8001
BFC040BF8101
BFC040FF8101
BFC040FF8101
BFC040554101
BFC040000101
BFC040000101
BFC055555501
BFC000000001
BFD000000001
BFFFFFFFFFFC
BFFFFD555FE0
BFFFF8000F80
7FFFF8000D00
0002F8550400
000BF8004400
000BF8004400
000BF8004400
000BFFF50400
000BFD511000
000BFC541000
0006FC014000
0007FFFD0000
0007FFF40000
0007FF800000
000155000000
ENDCHAR
STARTCHAR Lcaron
ENCODING 317
SWIDTH 795 0
DWIDTH 25 0
BBX 24 28 1 -4
BITMAP
005555405555
01C000428001
0BC0004B4001
2FC0406F4104
7FC040FF0104
BFC040FF0104
BFC040FE0004
BFC040FE0004
BFC040FE0010
BFC040FFAA90
BFC040FFFF40
BFC040FFEA55
BFC040FF8001
BFC040AF8001
BFC0406F8001
BFC040BF8101
BFC040FF8101
BFC040FF8101
BFC040554101
BFC040000101
BFC040000101
BFC055555501
BFC000000001
BFC000000001
BFFAAAAAAAA8
BFFFFFFFFFE0
BFFFFFFFFF80
7FFFFFFFFD00
ENDCHAR
STARTCHAR lcaron
ENCODING 318
SWIDTH 795 0
DWIDTH 25 0
BBX 24 28 1 -4
BITMAP
005555405555
01C000428001
0BC0004B4001
2FC0406F4104
7FC040FF0104
BFC040FF0104
BFC040FE0004
BFC040FE0004
BFC040FE0010
BFC040FFAA90
BFC040FFFF40
BFC040FFEA55
BFC040FF8001
BFC040AF8001
BFC0406F8001
BFC040BF8101
BFC040FF8101
BFC040FF8101
BFC040554101
BFC040000101
BFC040000101
BFC055555501
BFC000000001
BFC000000001
BFFAAAAAAAA8
BFFFFFFFFFE0
BFFFFFFFFF80
7FFFFFFFFD00
ENDCHAR
STARTCHAR Ldot
ENCODING 319
SWIDTH 795 0
DWIDTH 25 0
BBX 24 28 1 -4
BITMAP
005555000000
01C000400000
0BC000400000
2FC000400000
7FC040400000
BFC040405554
BFC040424001
BFC0404B4001
BFC0406F4101
BFC040FF4101
BFC040FF4001
BFC040FF4001
BFC040FFEAA8
BFC040FFFFE0
BFC040FFEA95
BFC040FF8001
BFC0405F8001
BFC0406F8001
BFC040554101
BFC040000101
BFC040000101
BFC055555501
BFC000000001
BFC000000001
BFFAAAAAAAA9
BFFFFFFFFFE0
BFFFFFFFFF80
7FFFFFFFFD00
ENDCHAR
STARTCHAR ldot
ENCODING 320
SWIDTH 795 0
DWIDTH 25 0
BBX 24 28 1 -4
BITMAP
005555000000
01C000400000
0BC000400000
2FC000400000
7FC040400000
BFC040405554
BFC040424001
BFC0404B4001
BFC0406F4101
BFC040FF4101
BFC040FF4001
BFC040FF4001
BFC040FFEAA8
BFC040FFFFE0
BFC040FFEA95
BFC040FF8001
BFC0405F8001
BFC0406F8001
BFC040554101
BFC040000101
BFC040000101
BFC055555501
BFC000000001
BFC000000001
BFFAAAAAAAA9
BFFFFFFFFFE0
BFFFFFFFFF80
7FFFFFFFFD00
ENDCHAR
STARTCHAR Lslash
ENCODING 321
SWIDTH 805 0
DWIDTH 26 0
BBX 25 28 0 -4
BITMAP
00055550000000
00340010000000
01F40010000000
07F41010000000
0FF41010000000
1FF41010000000
1FF41010000000
1FF41015400000
1FF41000400000
1F801000400000
1F401050400000
1F416500455540
7F401000600040
FF401016F00040
FF40102FF00040
FFF4102FF01040
FFF4102FF01040
FFF4102FF01040
FFF41015501040
1FF41000001040
1FF41000001040
1FF41555555040
1FF40000000040
1FF40000000040
1FFEAAAAAAAA40
1FFFFFFFFFFD00
1FFFFFFFFFE000
0BFFFFFFFF8000
ENDCHAR
STARTCHAR lslash
ENCODING 322
SWIDTH 805 0
DWIDTH 26 0
BBX 25 28 0 -4
BITMAP
00055550000000
00340010000000
01F40010000000
07F41010000000
0FF41010000000
1FF41010000000
1FF41010000000
1FF41015400000
1FF41000400000
1F801000400000
1F401050400000
1F416500455540
7F401000600040
FF401016F00040
FF40102FF00040
FFF4102FF01040
FFF4102FF01040
FFF4102FF01040
FFF41015501040
1FF41000001040
1FF41000001040
1FF41555555040
1FF40000000040
1FF40000000040
1FFEAAAAAAAA40
1FFFFFFFFFFD00
1FFFFFFFFFE000
0BFFFFFFFF8000
ENDCHAR
STARTCHAR Nacute
ENCODING 323
SWIDTH 853 0
DWIDTH 27 0
BBX 25 36 1 -4
BITMAP
00000000569000
000016BFA96000
0001E940001000
00074005541000
002F4150001000
00BF4000000000
00FF4000054000
00FF856BFE0000
00D55BFFF55540
01C002FFD00040
07C000A6D00040
1FC00007D00040
7FC0500FD01040
BFC05407D01040
BFC04402D01040
BFC04100901040
BFC04040101040
BFC04010001040
BFC04004001040
BFC04001001040
BFC04000401040
BFC04080501040
BFC040E0141040
BFC040F4041040
BFC040FD015040
BFC040FF005040
BFC040FFC01040
BFC040FFD01040
BFC040FFD01040
BFC000FFD00040
BFC000BFD00040
BFC0007FE00040
BFFAAA3FFEAA00
BFFFF43FFFF800
BFFFD03FFFE000
7FFE002FFF4000
ENDCHAR
STARTCHAR nacute
ENCODING 324
SWIDTH 853 0
DWIDTH 27 0
BBX 25 36 1 -4
BITMAP
00000000569000
000016BFA96000
0001E940001000
00074005541000
002F4150001000
00BF4000000000
00FF4000054000
00FF856BFE0000
00D55BFFF55540
01C002FFD00040
07C000A6D00040
1FC00007D00040
7FC0500FD01040
BFC05407D01040
BFC04402D01040
BFC04100901040
BFC04040101040
BFC04010001040
BFC04004001040
BFC04001001040
BFC04000401040
BFC04080501040
BFC040E0141040
BFC040F4041040
BFC040FD015040
BFC040FF005040
BFC040FFC01040
BFC040FFD01040
BFC040FFD01040
BFC000FFD00040
BFC000BFD00040
BFC0007FE00040
BFFAAA3FFEAA00
BFFFF43FFFF800
BFFFD03FFFE000
7FFE002FFF4000
ENDCHAR
STARTCHAR Ncommaaccent
ENCODING 325
SWIDTH 853 0
DWIDTH 27 0
BBX 25 40 1 -16
BITMAP
00555400155540
01C00100900040
0BC00042D00040
2FC00007D00040
7FC0500FD01040
BFC05407D01040
BFC04402D01040
BFC04100901040
BFC04040101040
BFC04010001040
BFC04004001040
BFC04001001040
BFC04000401040
BFC04080501040
BFC040E0141040
BFC040F4041040
BFC040FD015040
BFC040FF005040
BFC040FFC01040
BFC040FFD01040
BFC040FFD01040
BFC000FFD00040
BFC000BFD00040
BFC0007FE00040
BFFAAA3FFEAA00
BFFFF56AAFF800
BFFFD8000BE000
7FFE7C000B4000
0001FC15440000
0007FC00440000
0007FC00440000
0007FD00440000
0007FFFC440000
0007FE51440000
0007FD15000000
0002FE00400000
0002FFFE000000
0003FFF8000000
0003FFD0000000
00015500000000
ENDCHAR
STARTCHAR ncommaaccent
ENCODING 326
SWIDTH 853 0
DWIDTH 27 0
BBX 25 40 1 -16
BITMAP
00555400155540
01C00100900040
0BC00042D00040
2FC00007D00040
7FC0500FD01040
BFC05407D01040
BFC04402D01040
BFC04100901040
BFC04040101040
BFC04010001040
BFC04004001040
BFC04001001040
BFC04000401040
BFC04080501040
BFC040E0141040
BFC040F4041040
BFC040FD015040
BFC040FF005040
BFC040FFC01040
BFC040FFD01040
BFC040FFD01040
BFC000FFD00040
BFC000BFD00040
BFC0007FE00040
BFFAAA3FFEAA00
BFFFF56AAFF800
BFFFD8000BE000
7FFE7C000B4000
0001FC15440000
0007FC00440000
0007FC00440000
0007FD00440000
0007FFFC440000
0007FE51440000
0007FD15000000
0002FE00400000
0002FFFE000000
0003FFF8000000
0003FFD0000000
00015500000000
ENDCHAR
STARTCHAR Ncaron
ENCODING 327
SWIDTH 853 0
DWIDTH 27 0
BBX 25 37 1 -4
BITMAP
00004000000000
0003E400004000
001E5A40155000
007E0055401000
01FE0000001000
02FE0100501000
02FE0055001000
02FFE000064000
02FFFE41BD0000
02D55BFFF55540
01C002FFE00040
07C000A6D00040
1FC00007D00040
7FC0500FD01040
BFC05407D01040
BFC04402D01040
BFC04100901040
BFC04040101040
BFC04010001040
BFC04004001040
BFC04001001040
BFC04000401040
BFC04080501040
BFC040E0141040
BFC040F4041040
BFC040FD015040
BFC040FF005040
BFC040FFC01040
BFC040FFD01040
BFC040FFD01040
BFC000FFD00040
BFC000BFD00040
BFC0007FE00040
BFFAAA3FFEAA00
BFFFF43FFFF800
BFFFD03FFFE000
7FFE002FFF4000
ENDCHAR
STARTCHAR ncaron
ENCODING 328
SWIDTH 853 0
DWIDTH 27 0
BBX 25 37 1 -4
BITMAP
00004000000000
0003E400004000
001E5A40155000
007E0055401000
01FE0000001000
02FE0100501000
02FE0055001000
02FFE000064000
02FFFE41BD0000
02D55BFFF55540
01C002FFE00040
07C000A6D00040
1FC00007D00040
7FC0500FD01040
BFC05407D01040
BFC04402D01040
BFC04100901040
BFC04040101040
BFC04010001040
BFC04004001040
BFC04001001040
BFC04000401040
BFC04080501040
BFC040E0141040
BFC040F4041040
BFC040FD015040
BFC040FF005040
BFC040FFC01040
BFC040FFD01040
BFC040FFD01040
BFC000FFD00040
BFC000BFD00040
BFC0007FE00040
BFFAAA3FFEAA00
BFFFF43FFFF800
BFFFD03FFFE000
7FFE002FFF4000
ENDCHAR
STARTCHAR napostrophe
ENCODING 329
SWIDTH 853 0
DWIDTH 27 0
BBX 25 39 1 -4
BITMAP
00555500000000
01800140000000
0B400040000000
2F455040000000
BF401040000000
FF401040000000
FF801040000000
FFFF5000000000
FFD41000000000
FF854000000000
6FC00000000000
7FFFF8002FFF80
BFC00600A00080
BFC00142D00040
7FC00057D00040
3FC0501FD01040
BFC0540BD01040
BFC04402D01040
BFC04100D01040
BFC04040101040
BFC04010001040
BFC04004001040
BFC04001001040
BFC04000401040
BFC04080501040
BFC040E0141040
BFC040F4041040
BFC040FD015040
BFC040FF005040
BFC040FFC01040
BFC040FFD01040
BFC040FFD01040
BFC000FFD00040
BFC000BFD00040
BFC0007FE00040
BFFAAA3FFEAA00
BFFFF43FFFF800
BFFFD03FFFE000
7FFE002FFF4000
ENDCHAR
STARTCHAR Eng
ENCODING 330
SWIDTH 846 0
DWIDTH 27 0
BBX 25 31 1 -7
BITMAP
00001555554000
00014000001400
00140000000500
00600155500100
02C01400050040
0BC04000004040
2F804000004040
7F8040BF804040
7F8040FFC04040
BF8040FFD04040
BF8040FFD04040
BF8040BFD04040
BF80407FD04040
BF80407FD04040
BF80407FD04040
BF80407FD04040
BF80407FD04040
BF80407FD04040
BF80407FD04040
BF80407FC04040
BF80407F804040
BF800074004040
BF8000F0014040
BFC001F0150040
BFFAABF0000100
BFFFFFF0000400
BFFFEFF4016000
7FFE1FFFFF8000
00001FFFFE0000
00001FFFF40000
00000FFE400000
ENDCHAR
STARTCHAR eng
ENCODING 331
SWIDTH 846 0
DWIDTH 27 0
BBX 25 31 1 -7
BITMAP
00001555554000
00014000001400
00140000000500
00600155500100
02C01400050040
0BC04000004040
2F804000004040
7F8040BF804040
7F8040FFC04040
BF8040FFD04040
BF8040FFD04040
BF8040BFD04040
BF80407FD04040
BF80407FD04040
BF80407FD04040
BF80407FD04040
BF80407FD04040
BF80407FD04040
BF80407FD04040
BF80407FC04040
BF80407F804040
BF800074004040
BF8000F0014040
BFC001F0150040
BFFAABF0000100
BFFFFFF0000400
BFFFEFF4016000
7FFE1FFFFF8000
00001FFFFE0000
00001FFFF40000
00000FFE400000
ENDCHAR
STARTCHAR Omacron
ENCODING 332
SWIDTH 837 0
DWIDTH 27 0
BBX 25 35 1 -4
BITMAP
00005555554000
00060000001000
001E0000001000
007E0155501000
01FE0000001000
02FE0000001000
02FF0000001000
02FFFFFBFF4000
02FF9000015000
02F80000000400
00A00155500100
02C01400050040
0F804000004040
3F80406A404040
7F8040FFC04040
BF8041FFD04040
FF8041FFD04040
FF8041BFD04040
FF80417FD04040
FF80417FD04040
FF80417FD04040
FF80417FD04040
FF80417FD04040
FF80417FC04040
FF8040BF804040
FF804000004040
FF804000004040
FFC01400050040
BFE00155500100
BFF80000000800
7FFF900001A000
2FFFFFEAFF8000
0FFFFFFFFD0000
02FFFFFFE40000
001AFFF9000000
ENDCHAR
STARTCHAR omacron
ENCODING 333
SWIDTH 837 0
DWIDTH 27 0
BBX 25 35 1 -4
BITMAP
00005555554000
00060000001000
001E0000001000
007E0155501000
01FE0000001000
02FE0000001000
02FF0000001000
02FFFFFBFF4000
02FF9000015000
02F80000000400
00A00155500100
02C01400050040
0F804000004040
3F80406A404040
7F8040FFC04040
BF8041FFD04040
FF8041FFD04040
FF8041BFD04040
FF80417FD04040
FF80417FD04040
FF80417FD04040
FF80417FD04040
FF80417FD04040
FF80417FC04040
FF8040BF804040
FF804000004040
FF804000004040
FFC01400050040
BFE00155500100
BFF80000000800
7FFF900001A000
2FFFFFEAFF8000
0FFFFFFFFD0000
02FFFFFFE40000
001AFFF9000000
ENDCHAR
STARTCHAR Obreve
ENCODING 334
SWIDTH 837 0
DWIDTH 27 0
BBX 25 36 1 -4
BITMAP
00015540554000
00060042401000
002E005B401000
00BE0415041000
02FE0400041000
03FF0155501000
03FF8000004000
03FFF9001A0000
02FFFEAAA90000
01FF4000005000
00740000000400
00600155500100
02C01400050040
0B804000004040
2F80406A404040
7F8040FFC04040
BF8041FFD04040
FF8041FFD04040
FF8041BFD04040
FF80417FD04040
FF80417FD04040
FF80417FD04040
FF80417FD04040
FF80417FD04040
FF80417FC04040
FF8040BF804040
FF804000004040
FF804000004040
FFC01400050040
BFE00155500100
BFF80000000400
7FFF900001A000
2FFFFFEAFF8000
0FFFFFFFFD0000
02FFFFFFE00000
001AFFF9000000
ENDCHAR
STARTCHAR obreve
ENCODING 335
SWIDTH 837 0
DWIDTH 27 0
BBX 25 36 1 -4
BITMAP
00015540554000
00060042401000
002E005B401000
00BE0415041000
02FE0400041000
03FF0155501000
03FF8000004000
03FFF9001A0000
02FFFEAAA90000
01FF4000005000
00740000000400
00600155500100
02C01400050040
0B804000004040
2F80406A404040
7F8040FFC04040
BF8041FFD04040
FF8041FFD04040
FF8041BFD04040
FF80417FD04040
FF80417FD04040
FF80417FD04040
FF80417FD04040
FF80417FD04040
FF80417FC04040
FF8040BF804040
FF804000004040
FF804000004040
FFC01400050040
BFE00155500100
BFF80000000400
7FFF900001A000
2FFFFFEAFF8000
0FFFFFFFFD0000
02FFFFFFE00000
001AFFF9000000
ENDCHAR
STARTCHAR Ohungarumlaut
ENCODING 336
SWIDTH 837 0
DWIDTH 27 0
BBX 25 38 1 -4
BITMAP
00001554155400
00009004600100
0002C005D00100
001F800BC00400
003F410F810400
007F411F810400
00BF041F410400
00FE002F001000
01FE003E001000
01FE007F001000
02FFFFFBFF8000
03FF9000015000
03F80000000400
00E00155500100
02C01400050040
0F804000004040
3F80406A404040
7F8040FFC04040
BF8041FFD04040
FF8041FFD04040
FF8041BFD04040
FF80417FD04040
FF80417FD04040
FF80417FD04040
FF80417FD04040
FF80417FD04040
FF80417FC04040
FF8040BF804040
FF804000004040
FF804000004040
FFC01400050040
BFE00155500100
BFF80000000800
7FFF900001A000
2FFFFFEAFF8000
0FFFFFFFFD0000
02FFFFFFE40000
001AFFF9000000
ENDCHAR
STARTCHAR ohungarumlaut
ENCODING 337
SWIDTH 837 0
DWIDTH 27 0
BBX 25 38 1 -4
BITMAP
00001554155400
00009004600100
0002C005D00100
001F800BC00400
003F410F810400
007F411F810400
00BF041F410400
00FE002F001000
01FE003E001000
01FE007F001000
02FFFFFBFF8000
03FF9000015000
03F80000000400
00E00155500100
02C01400050040
0F804000004040
3F80406A404040
7F8040FFC04040
BF8041FFD04040
FF8041FFD04040
FF8041BFD04040
FF80417FD04040
FF80417FD04040
FF80417FD04040
FF80417FD04040
FF80417FD04040
FF80417FC04040
FF8040BF804040
FF804000004040
FF804000004040
FFC01400050040
BFE00155500100
BFF80000000800
7FFF900001A000
2FFFFFEAFF8000
0FFFFFFFFD0000
02FFFFFFE40000
001AFFF9000000
ENDCHAR
STARTCHAR OE
ENCODING 338
SWIDTH 1115 0
DWIDTH 36 0
BBX 34 28 1 -4
BITMAP
000055555555555550
000500000000000010
002000000000000010
009000000000000010
03C005555555555010
0F8010000040000010
3F8040154040000010
7F8040FF8040FFFF80
BF8041FF8040FFFE00
BF8041FF8040555800
FF8041FF8040000100
FF8041FF8040000100
FF8041FF8055550100
FF8041FF8040000100
FF8041FF8040000000
FF8041FF8040FFE400
FF8041FF8040FFD000
FF80406A8040AA5550
FF8040000040000010
FF8040000040000010
FFC010000040000010
BFE005555555555010
BFF400000000000010
7FFE40000000000010
3FFFFFAAAAAAAAAA80
1FFFFFFFFFFFFFFE00
07FFFFFFFFFFFFF800
006FFFFFFFFFFFD000
ENDCHAR
STARTCHAR oe
ENCODING 339
SWIDTH 1115 0
DWIDTH 36 0
BBX 34 28 1 -4
BITMAP
000055555555555550
000500000000000010
002000000000000010
009000000000000010
03C005555555555010
0F8010000040000010
3F8040154040000010
7F8040FF8040FFFF80
BF8041FF8040FFFE00
BF8041FF8040555800
FF8041FF8040000100
FF8041FF8040000100
FF8041FF8055550100
FF8041FF8040000100
FF8041FF8040000000
FF8041FF8040FFE400
FF8041FF8040FFD000
FF80406A8040AA5550
FF8040000040000010
FF8040000040000010
FFC010000040000010
BFE005555555555010
BFF400000000000010
7FFE40000000000010
3FFFFFAAAAAAAAAA80
1FFFFFFFFFFFFFFE00
07FFFFFFFFFFFFF800
006FFFFFFFFFFFD000
ENDCHAR
STARTCHAR Racute
ENCODING 340
SWIDTH 843 0
DWIDTH 27 0
BBX 26 35 1 -4
BITMAP
00000015554000
00005500001000
00060000001000
002E0155501000
00BE0000001000
02FE0000154000
03FE15ABFE0000
03FFFFFFF80000
03C00000014000
03C00000001000
0BC00000000400
2FC05555500400
7FC04000040100
BFC04000040100
BFC040FE010100
BFC040FF010100
BFC040FF010400
BFC040FE010400
BFC04000041400
BFC04000040100
BFC05555550040
BFC04000004040
BFC04000001010
BFC04000001010
BFC040FFE01010
BFC040FFE01010
BFC040FFE01010
BFC040BFE01010
BFC0006FE01010
BFC0006FE00010
BFC0006FF00010
BFFAAA2FFEAA80
BFFFF82FFFFD00
BFFFD02FFFF400
7FFE401FFF8000
ENDCHAR
STARTCHAR racute
ENCODING 341
SWIDTH 843 0
DWIDTH 27 0
BBX 26 35 1 -4
BITMAP
00000015554000
00005500001000
00060000001000
002E0155501000
00BE0000001000
02FE0000154000
03FE15ABFE0000
03FFFFFFF80000
03C00000014000
03C00000001000
0BC00000000400
2FC05555500400
7FC04000040100
BFC04000040100
BFC040FE010100
BFC040FF010100
BFC040FF010400
BFC040FE010400
BFC04000041400
BFC04000040100
BFC05555550040
BFC04000004040
BFC04000001010
BFC04000001010
BFC040FFE01010
BFC040FFE01010
BFC040FFE01010
BFC040BFE01010
BFC0006FE01010
BFC0006FE00010
BFC0006FF00010
BFFAAA2FFEAA80
BFFFF82FFFFD00
BFFFD02FFFF400
7FFE401FFF8000
ENDCHAR
STARTCHAR Rcommaaccent
ENCODING 342
SWIDTH 843 0
DWIDTH 27 0
BBX 26 40 1 -16
BITMAP
00555555554000
01C00000001000
0BC00000000400
2FC00000000400
7FC05555500400
BFC04000040100
BFC04000040100
BFC040FE010100
BFC040FF010100
BFC040FF010400
BFC040FE010400
BFC04000041400
BFC04000040100
BFC05555550040
BFC04000004040
BFC04000001010
BFC04000001010
BFC040FFE01010
BFC040FFE01010
BFC040FFE01010
BFC040BFE01010
BFC0006FE01010
BFC0006FE00010
BFC0006FF00010
BFFAAA2FFEAA80
BFFFF96AAFFD00
BFFFD90007F400
7FFE6C00078000
0001FC15440000
0003FC00440000
0007FC00440000
0007FD00440000
0007FFFC440000
0007FE50440000
0007FE15000000
0001FE00400000
0002FFFE000000
0003FFF8000000
0003FFD0000000
00015500000000
ENDCHAR
STARTCHAR rcommaaccent
ENCODING 343
SWIDTH 843 0
DWIDTH 27 0
BBX 26 40 1 -16
BITMAP
00555555554000
01C00000001000
0BC00000000400
2FC00000000400
7FC05555500400
BFC04000040100
BFC04000040100
BFC040FE010100
BFC040FF010100
BFC040FF010400
BFC040FE010400
BFC04000041400
BFC04000040100
BFC05555550040
BFC04000004040
BFC04000001010
BFC04000001010
BFC040FFE01010
BFC040FFE01010
BFC040FFE01010
BFC040BFE01010
BFC0006FE01010
BFC0006FE00010
BFC0006FF00010
BFFAAA2FFEAA80
BFFFF96AAFFD00
BFFFD90007F400
7FFE6C00078000
0001FC15440000
0003FC00440000
0007FC00440000
0007FD00440000
0007FFFC440000
0007FE50440000
0007FE15000000
0001FE00400000
0002FFFE000000
0003FFF8000000
0003FFD0000000
00015500000000
ENDCHAR
STARTCHAR Rcaron
ENCODING 344
SWIDTH 843 0
DWIDTH 27 0
BBX 26 36 1 -4
BITMAP
00005000004000
00075940155000
001E0055401000
007E0000001000
01FE0140101000
02FF0055401000
02FFE400068000
02FFFF917D0000
02FFFFFFF40000
01D00000154000
02C00000001000
0BC00000000400
2FC05555500400
7FC04000040100
BFC04000040100
BFC040FE010100
BFC040FF010100
BFC040FF010400
BFC040FE010400
BFC04000041400
BFC04000040100
BFC05555550040
BFC04000004040
BFC04000001010
BFC04000001010
BFC040FFE01010
BFC040FFE01010
BFC040FFE01010
BFC040BFE01010
BFC0006FE01010
BFC0006FE00010
BFC0006FF00010
BFFAAA2FFEAA80
BFFFF82FFFFD00
BFFFD02FFFF400
7FFE401FFF8000
ENDCHAR
STARTCHAR rcaron
ENCODING 345
SWIDTH 843 0
DWIDTH 27 0
BBX 26 36 1 -4
BITMAP
00005000004000
00075940155000
001E0055401000
007E0000001000
01FE0140101000
02FF0055401000
02FFE400068000
02FFFF917D0000
02FFFFFFF40000
01D00000154000
02C00000001000
0BC00000000400
2FC05555500400
7FC04000040100
BFC04000040100
BFC040FE010100
BFC040FF010100
BFC040FF010400
BFC040FE010400
BFC04000041400
BFC04000040100
BFC05555550040
BFC04000004040
BFC04000001010
BFC04000001010
BFC040FFE01010
BFC040FFE01010
BFC040FFE01010
BFC040BFE01010
BFC0006FE01010
BFC0006FE00010
BFC0006FF00010
BFFAAA2FFEAA80
BFFFF82FFFFD00
BFFFD02FFFF400
7FFE401FFF8000
ENDCHAR
STARTCHAR Sacute
ENCODING 346
SWIDTH 750 0
DWIDTH 24 0
BBX 23 36 1 -4
BITMAP
000000016A00
00016AFA9540
000A95000040
002800154040
01F805400040
07F800000000
0BF800001400
0BFC56AFF000
0BFF95555540
0BF800000010
0BD000000010
07C000000010
028015555010
0B4040000010
2F4040000000
7F4101FFFF40
FF4101FFFD00
FF410015A400
FF4040000140
FF8040000010
FFC015500010
FFE000055004
FFF900001404
FFFFE9500404
BFFFFFF80404
2FFFFFF80404
078000000404
074000000404
1F4000001004
BF4155554010
FF4000000040
FF4000000600
FFEAAAAAF800
FFFFFFFFE000
FFFFFFFF4000
BFFFFFE80000
ENDCHAR
STARTCHAR sacute
ENCODING 347
SWIDTH 750 0
DWIDTH 24 0
BBX 23 36 1 -4
BITMAP
000000016A00
00016AFA9540
000A95000040
002800154040
01F805400040
07F800000000
0BF800001400
0BFC56AFF000
0BFF95555540
0BF800000010
0BD000000010
07C000000010
028015555010
0B4040000010
2F4040000000
7F4101FFFF40
FF4101FFFD00
FF410015A400
FF4040000140
FF8040000010
FFC015500010
FFE000055004
FFF900001404
FFFFE9500404
BFFFFFF80404
2FFFFFF80404
078000000404
074000000404
1F4000001004
BF4155554010
FF4000000040
FF4000000600
FFEAAAAAF800
FFFFFFFFE000
FFFFFFFF4000
BFFFFFE80000
ENDCHAR
STARTCHAR Scircumflex
ENCODING 348
SWIDTH 750 0
DWIDTH 24 0
BBX 23 36 1 -4
BITMAP
000001540000
000014015000
000100000500
001401540100
00B414014100
02F400000100
0BF406F94100
0FFAFFFFF900
0FFF95555540
0FF800000010
0FD000000010
0F8000000010
028015555010
0B4040000010
2F4040000000
7F4101FFFF40
FF4101FFFD00
FF410015A400
FF4040000140
FF8040000010
FFC015500010
FFE000055004
FFF900001404
FFFFE9500404
BFFFFFF80404
2FFFFFF80404
078000000404
074000000404
1F4000001004
BF4155554010
FF4000000040
FF4000000600
FFEAAAAAF800
FFFFFFFFE000
FFFFFFFF4000
BFFFFFE80000
ENDCHAR
STARTCHAR scircumflex
ENCODING 349
SWIDTH 750 0
DWIDTH 24 0
BBX 23 36 1 -4
BITMAP
000001540000
000014015000
000100000500
001401540100
00B414014100
02F400000100
0BF406F94100
0FFAFFFFF900
0FFF95555540
0FF800000010
0FD000000010
0F8000000010
028015555010
0B4040000010
2F4040000000
7F4101FFFF40
FF4101FFFD00
FF410015A400
FF4040000140
FF8040000010
FFC015500010
FFE000055004
FFF900001404
FFFFE9500404
BFFFFFF80404
2FFFFFF80404
078000000404
074000000404
1F4000001004
BF4155554010
FF4000000040
FF4000000600
FFEAAAAAF800
FFFFFFFFE000
FFFFFFFF4000
BFFFFFE80000
ENDCHAR
STARTCHAR Scedilla
ENCODING 350
SWIDTH 750 0
DWIDTH 24 0
BBX 23 32 1 -8
BITMAP
000155555540
000400000010
005000000010
018000000010
078015555010
2F4040000010
7F4040000000
BF4101FFFF40
FF4101FFFD00
FF410016A800
FF4040000140
FF8040000010
FFC015500010
FFE000055004
FFF900001404
FFFFE9500404
BFFFFFF80404
2FFFFFF80404
078000000404
074000000404
1F4000001004
BF4155554010
FF4000100000
FF4000100100
FFEA9040A800
FFFFC001E000
FFFF80024000
BFFF40010000
007FFFE40000
00BFFFD00000
00FFFF000000
00BFF8000000
ENDCHAR
STARTCHAR scedilla
ENCODING 351
SWIDTH 750 0
DWIDTH 24 0
BBX 23 32 1 -8
BITMAP
000155555540
000400000010
005000000010
018000000010
078015555010
2F4040000010
7F4040000000
BF4101FFFF40
FF4101FFFD00
FF410016A800
FF4040000140
FF8040000010
FFC015500010
FFE000055004
FFF900001404
FFFFE9500404
BFFFFFF80404
2FFFFFF80404
078000000404
074000000404
1F4000001004
BF4155554010
FF4000100000
FF4000100100
FFEA9040A800
FFFFC001E000
FFFF80024000
BFFF40010000
007FFFE40000
00BFFFD00000
00FFFF000000
00BFF8000000
ENDCHAR
STARTCHAR Scaron
ENCODING 352
SWIDTH 750 0
DWIDTH 24 0
BBX 23 36 1 -4
BITMAP
000540000100
001964005540
00B801550040
02F800000040
0BF804014040
0BFC01540000
0BFF80001400
0BFFF906D000
0BFF95555540
07F800000010
005000000010
004000000010
028015555010
0F4040000010
3F4040000000
BF4101FFFF40
FF4101FFFD00
FF410015A400
FF4040000140
FF8040000010
FFC015500010
FFE000055004
FFF900001404
FFFFE9500404
BFFFFFF80404
2FFFFFF80404
078000000404
074000000404
1F4000001004
BF4155554010
FF4000000040
FF4000000600
FFEAAAAAF800
FFFFFFFFE000
FFFFFFFF4000
BFFFFFE80000
ENDCHAR
STARTCHAR scaron
ENCODING 353
SWIDTH 750 0
DWIDTH 24 0
BBX 23 36 1 -4
BITMAP
000540000100
001964005540
00B801550040
02F800000040
0BF804014040
0BFC01540000
0BFF80001400
0BFFF906D000
0BFF95555540
07F800000010
005000000010
004000000010
028015555010
0F4040000010
3F4040000000
BF4101FFFF40
FF4101FFFD00
FF410015A400
FF4040000140
FF8040000010
FFC015500010
FFE000055004
FFF900001404
FFFFE9500404
BFFFFFF80404
2FFFFFF80404
078000000404
074000000404
1F4000001004
BF4155554010
FF4000000040
FF4000000600
FFEAAAAAF800
FFFFFFFFE000
FFFFFFFF4000
BFFFFFE80000
ENDCHAR
STARTCHAR Tcommaaccent
ENCODING 354
SWIDTH 756 0
DWIDTH 24 0
BBX 24 40 0 -16
BITMAP
005555555555
028000000001
0B8000000001
2F8000000001
BF8155555541
FF8000040001
FF8000040001
FFFAA4040AA8
FFFFF4040FE0
FFFFF4040F80
BFFFF4040E00
000FF4040400
000FF4040400
000FF4040400
000FF4040400
000FF4040400
000FF4040400
000FF4040400
000FF4040400
000FF4040400
000FF4040400
000FF4000400
000FF4000400
000FF8001000
000FFFFFD000
000FF9555000
000FF4000400
000BF4000400
0003F4550400
000BF4010400
000FF4010400
000FF8010400
000FFFF51000
000FFD411000
000FF8540000
0006FC010000
0007FFFD0000
000BFFE00000
000BFF800000
000155000000
ENDCHAR
STARTCHAR tcommaaccent
ENCODING 355
SWIDTH 756 0
DWIDTH 24 0
BBX 24 40 0 -16
BITMAP
005555555555
028000000001
0B8000000001
2F8000000001
BF8155555541
FF8000040001
FF8000040001
FFFAA4040AA8
FFFFF4040FE0
FFFFF4040F80
BFFFF4040E00
000FF4040400
000FF4040400
000FF4040400
000FF4040400
000FF4040400
000FF4040400
000FF4040400
000FF4040400
000FF4040400
000FF4040400
000FF4000400
000FF4000400
000FF8001000
000FFFFFD000
000FF9555000
000FF4000400
000BF4000400
0003F4550400
000BF4010400
000FF4010400
000FF8010400
000FFFF51000
000FFD411000
000FF8540000
0006FC010000
0007FFFD0000
000BFFE00000
000BFF800000
000155000000
ENDCHAR
STARTCHAR Tcaron
ENCODING 356
SWIDTH 756 0
DWIDTH 24 0
BBX 24 36 0 -4
BITMAP
000140000040
000A59005540
002D00550010
01FD00000010
03FD05005000
03FE00550000
03FF90000500
03FFFE41B400
03D555555555
028000000001
0B8000000001
2F8000000001
BF8155555541
FF8000040001
FF8000040001
FFFAA4040AA8
FFFFF4040FE0
FFFFF4040F80
BFFFF4040E00
000FF4040400
000FF4040400
000FF4040400
000FF4040400
000FF4040400
000FF4040400
000FF4040400
000FF4040400
000FF4040400
000FF4040400
000FF4000400
000FF4000400
000FF8001000
000FFFAA9000
000FFFFF4000
000FFFFC0000
000BFFE00000
ENDCHAR
STARTCHAR tcaron
ENCODING 357
SWIDTH 756 0
DWIDTH 24 0
BBX 24 36 0 -4
BITMAP
000140000040
000A59005540
002D00550010
01FD00000010
03FD05005000
03FE00550000
03FF90000500
03FFFE41B400
03D555555555
028000000001
0B8000000001
2F8000000001
BF8155555541
FF8000040001
FF8000040001
FFFAA4040AA8
FFFFF4040FE0
FFFFF4040F80
BFFFF4040E00
000FF4040400
000FF4040400
000FF4040400
000FF4040400
000FF4040400
000FF4040400
000FF4040400
000FF4040400
000FF4040400
000FF4040400
000FF4000400
000FF4000400
000FF8001000
000FFFAA9000
000FFFFF4000
000FFFFC0000
000BFFE00000
ENDCHAR
STARTCHAR Tbar
ENCODING 358
SWIDTH 756 0
DWIDTH 24 0
BBX 24 28 0 -4
BITMAP
005555555555
028000000001
0B8000000001
2F8000000001
BF8155555541
FF8000040001
FF8000040001
FFD554040554
FFFFF4040FF4
FFFFF4040FD0
BFFFF4040F40
155EA4040950
001C00040010
007800040010
02F805595410
07F800040010
0BFC00040010
0BFFA4040A90
0BFFF4040E00
0BFFF4040800
07FFF4040400
000FF4000400
000FF4000400
000FF8001000
000FFFAA9000
000FFFFF4000
000FFFFD0000
000BFFE00000
ENDCHAR
STARTCHAR tbar
ENCODING 359
SWIDTH 756 0
DWIDTH 24 0
BBX 24 28 0 -4
BITMAP
005555555555
028000000001
0B8000000001
2F8000000001
BF8155555541
FF8000040001
FF8000040001
FFD554040554
FFFFF4040FF4
FFFFF4040FD0
BFFFF4040F40
155EA4040950
001C00040010
007800040010
02F805595410
07F800040010
0BFC00040010
0BFFA4040A90
0BFFF4040E00
0BFFF4040800
07FFF4040400
000FF4000400
000FF4000400
000FF8001000
000FFFAA9000
000FFFFF4000
000FFFFD0000
000BFFE00000
ENDCHAR
STARTCHAR Utilde
ENCODING 360
SWIDTH 846 0
DWIDTH 27 0
BBX 25 35 1 -4
BITMAP
00001555014000
00014000541000
00070000001000
002F0154001000
00FF0001501000
02FF0000000000
02FF5AA5010000
02D555FFE55540
028000FFD00040
0B8000FFD00040
2F80405FD00040
BF80407FD04040
BF80407FD04040
BF80407FD04040
BF80407FD04040
BF80407FD04040
BF80407FD04040
BF80407FD04040
BF80407FD04040
BF80407FD04040
BF80407FD04040
BF80407FD04040
BF80407FD04040
BF80407FD04040
BF80407FC04040
BF804005004040
BFC01000004040
BFD01400050040
BFE00155500100
7FF90000000400
3FFF900001A000
2FFFFFFAFF4000
0BFFFFFFFD0000
01FFFFFFE00000
001AFFF9000000
ENDCHAR
STARTCHAR utilde
ENCODING 361
SWIDTH 846 0
DWIDTH 27 0
BBX 25 35 1 -4
BITMAP
00001555014000
00014000541000
00070000001000
002F0154001000
00FF0001501000
02FF0000000000
02FF5AA5010000
02D555FFE55540
028000FFD00040
0B8000FFD00040
2F80405FD00040
BF80407FD04040
BF80407FD04040
BF80407FD04040
BF80407FD04040
BF80407FD04040
BF80407FD04040
BF80407FD04040
BF80407FD04040
BF80407FD04040
BF80407FD04040
BF80407FD04040
BF80407FD04040
BF80407FD04040
BF80407FC04040
BF804005004040
BFC01000004040
BFD01400050040
BFE00155500100
7FF90000000400
3FFF900001A000
2FFFFFFAFF4000
0BFFFFFFFD0000
01FFFFFFE00000
001AFFF9000000
ENDCHAR
STARTCHAR Umacron
ENCODING 362
SWIDTH 846 0
DWIDTH 27 0
BBX 25 35 1 -4
BITMAP
00005555554000
00020000001000
000B0000001000
003F0155501000
00FF0000001000
01FF0000001000
02FF4000004000
02FFFFFFFFFF40
02D555FFE55580
028000FFD00040
0B8000AFD00040
3F80405FD04040
BF80407FD04040
BF80407FD04040
BF80407FD04040
BF80407FD04040
BF80407FD04040
BF80407FD04040
BF80407FD04040
BF80407FD04040
BF80407FD04040
BF80407FD04040
BF80407FD04040
BF80407FD04040
BF80407FC04040
BF804015004040
BFC05000004040
BFD01400050040
BFE00155500100
7FF80000000400
3FFF900001A000
2FFFFFFAFF4000
0BFFFFFFFD0000
02FFFFFFE00000
001AFFF9000000
ENDCHAR
STARTCHAR umacron
ENCODING 363
SWIDTH 846 0
DWIDTH 27 0
BBX 25 35 1 -4
BITMAP
00005555554000
00020000001000
000B0000001000
003F0155501000
00FF0000001000
01FF0000001000
02FF4000004000
02FFFFFFFFFF40
02D555FFE55580
028000FFD00040
0B8000AFD00040
3F80405FD04040
BF80407FD04040
BF80407FD04040
BF80407FD04040
BF80407FD04040
BF80407FD04040
BF80407FD04040
BF80407FD04040
BF80407FD04040
BF80407FD04040
BF80407FD04040
BF80407FD04040
BF80407FD04040
BF80407FC04040
BF804015004040
BFC05000004040
BFD01400050040
BFE00155500100
7FF80000000400
3FFF900001A000
2FFFFFFAFF4000
0BFFFFFFFD0000
02FFFFFFE00000
001AFFF9000000
ENDCHAR
STARTCHAR Ubreve
ENCODING 364
SWIDTH 846 0
DWIDTH 27 0
BBX 25 36 1 -4
BITMAP
00005540555000
00060042801000
002E001B401000
00BE0405041000
02FE0500041000
02FF0155500000
02FF8000000000
02FFF900140000
01D555FFE55540
018000FFD00040
0B8000FFD00040
2F8000ABD00040
BF80405FD04040
BF80407FD04040
BF80407FD04040
BF80407FD04040
BF80407FD04040
BF80407FD04040
BF80407FD04040
BF80407FD04040
BF80407FD04040
BF80407FD04040
BF80407FD04040
BF80407FD04040
BF80407FD04040
BF80407FC04040
BF804015004040
BFC05000004040
BFD01400050040
BFE00155500100
7FF90000000400
3FFF900001A000
2FFFFFFAFF4000
0BFFFFFFFD0000
01FFFFFFE00000
001AFFF9000000
ENDCHAR
STARTCHAR ubreve
ENCODING 365
SWIDTH 846 0
DWIDTH 27 0
BBX 25 36 1 -4
BITMAP
00005540555000
00060042801000
002E001B401000
00BE0405041000
02FE0500041000
02FF0155500000
02FF8000000000
02FFF900140000
01D555FFE55540
018000FFD00040
0B8000FFD00040
2F8000ABD00040
BF80405FD04040
BF80407FD04040
BF80407FD04040
BF80407FD04040
BF80407FD04040
BF80407FD04040
BF80407FD04040
BF80407FD04040
BF80407FD04040
BF80407FD04040
BF80407FD04040
BF80407FD04040
BF80407FD04040
BF80407FC04040
BF804015004040
BFC05000004040
BFD01400050040
BFE00155500100
7FF90000000400
3FFF900001A000
2FFFFFFAFF4000
0BFFFFFFFD0000
01FFFFFFE00000
001AFFF9000000
ENDCHAR
STARTCHAR Uring
ENCODING 366
SWIDTH 846 0
DWIDTH 27 0
BBX 25 42 1 -4
BITMAP
00000155540000
00001400054000
00018000004000
00070055501000
001E0500041000
00BE042A041000
01FE043F801000
02FE043F811000
02FE042F401000
02FE0400041000
02FF0500040000
02FF4055500000
02FFC000000000
02FFF900140000
01D556FFE55540
028000FFD00040
0B8000FBD00040
2F80404FD00040
BF80407FD04040
BF80407FD04040
BF80407FD04040
BF80407FD04040
BF80407FD04040
BF80407FD04040
BF80407FD04040
BF80407FD04040
BF80407FD04040
BF80407FD04040
BF80407FD04040
BF80407FD04040
BF80407FD04040
BF80407FC04040
BF804015404040
BFC01000004040
BFD01400050040
BFE00155500100
7FF90000000400
3FFF900001A000
2FFFFFFAFF4000
0BFFFFFFFD0000
01FFFFFFE00000
001AFFF9000000
ENDCHAR
STARTCHAR uring
ENCODING 367
SWIDTH 846 0
DWIDTH 27 0
BBX 25 42 1 -4
BITMAP
00000155540000
00001400054000
00018000004000
00070055501000
001E0500041000
00BE042A041000
01FE043F801000
02FE043F811000
02FE042F401000
02FE0400041000
02FF0500040000
02FF4055500000
02FFC000000000
02FFF900140000
01D556FFE55540
028000FFD00040
0B8000FBD00040
2F80404FD00040
BF80407FD04040
BF80407FD04040
BF80407FD04040
BF80407FD04040
BF80407FD04040
BF80407FD04040
BF80407FD04040
BF80407FD04040
BF80407FD04040
BF80407FD04040
BF80407FD04040
BF80407FD04040
BF80407FD04040
BF80407FC04040
BF804015404040
BFC01000004040
BFD01400050040
BFE00155500100
7FF90000000400
3FFF900001A000
2FFFFFFAFF4000
0BFFFFFFFD0000
01FFFFFFE00000
001AFFF9000000
ENDCHAR
STARTCHAR Uhungarumlaut
ENCODING 368
SWIDTH 846 0
DWIDTH 27 0
BBX 25 38 1 -4
BITMAP
00001554055500
00006001200100
0002D005E00100
000BC007D00000
002F810BC10400
003F810FC10400
007F410F810400
00BF001F400000
00BE002F000000
00FE003F401000
01FFFFFFFFFF40
02D555FFE55580
028000FFD00040
0B8000AFD00040
3F80405FD04040
BF80407FD04040
BF80407FD04040
BF80407FD04040
BF80407FD04040
BF80407FD04040
BF80407FD04040
BF80407FD04040
BF80407FD04040
BF80407FD04040
BF80407FD04040
BF80407FD04040
BF80407FD04040
BF80407FC04040
BF804015004040
BFC05000004040
BFD01400050040
BFE00155500100
7FF80000000400
3FFF900001A000
2FFFFFFAFF4000
0BFFFFFFFD0000
02FFFFFFE00000
001AFFF9000000
ENDCHAR
STARTCHAR uhungarumlaut
ENCODING 369
SWIDTH 846 0
DWIDTH 27 0
BBX 25 38 1 -4
BITMAP
00001554055500
00006001200100
0002D005E00100
000BC007D00000
002F810BC10400
003F810FC10400
007F410F810400
00BF001F400000
00BE002F000000
00FE003F401000
01FFFFFFFFFF40
02D555FFE55580
028000FFD00040
0B8000AFD00040
3F80405FD04040
BF80407FD04040
BF80407FD04040
BF80407FD04040
BF80407FD04040
BF80407FD04040
BF80407FD04040
BF80407FD04040
BF80407FD04040
BF80407FD04040
BF80407FD04040
BF80407FD04040
BF80407FD04040
BF80407FC04040
BF804015004040
BFC05000004040
BFD01400050040
BFE00155500100
7FF80000000400
3FFF900001A000
2FFFFFFAFF4000
0BFFFFFFFD0000
02FFFFFFE00000
001AFFF9000000
ENDCHAR
STARTCHAR Uogonek
ENCODING 370
SWIDTH 846 0
DWIDTH 27 0
BBX 25 34 1 -10
BITMAP
00555500155540
02800040900040
0B800047D00040
2F80405FD00040
BF80407FD04040
BF80407FD04040
BF80407FD04040
BF80407FD04040
BF80407FD04040
BF80407FD04040
BF80407FD04040
BF80407FD04040
BF80407FD04040
BF80407FD04040
BF80407FD04040
BF80407FD04040
BF80407FD04040
BF80407FC04040
BF804005004040
BFC01000004040
BFC01400050040
BFE00155500100
7FF40004000400
3FFE4004005000
2FFFF9042B8000
0FFFFE042E0000
02FFFD04010000
006FFD05010000
0002FE00010000
0003FF40010000
0003FFFFF80000
0003FFFFE00000
0002FFFF800000
0000BFFD000000
ENDCHAR
STARTCHAR uogonek
ENCODING 371
SWIDTH 846 0
DWIDTH 27 0
BBX 25 34 1 -10
BITMAP
00555500155540
02800040900040
0B800047D00040
2F80405FD00040
BF80407FD04040
BF80407FD04040
BF80407FD04040
BF80407FD04040
BF80407FD04040
BF80407FD04040
BF80407FD04040
BF80407FD04040
BF80407FD04040
BF80407FD04040
BF80407FD04040
BF80407FD04040
BF80407FD04040
BF80407FC04040
BF804005004040
BFC01000004040
BFC01400050040
BFE00155500100
7FF40004000400
3FFE4004005000
2FFFF9042B8000
0FFFFE042E0000
02FFFD04010000
006FFD05010000
0002FE00010000
0003FF40010000
0003FFFFF80000
0003FFFFE00000
0002FFFF800000
0000BFFD000000
ENDCHAR
STARTCHAR Wcircumflex
ENCODING 372
SWIDTH 931 0
DWIDTH 30 0
BBX 28 36 1 -4
BITMAP
00000005500000
00000150054000
00001400001400
0000D005500400
0007D050050400
002FD000000400
003FD05BE40400
007FEBFFFFE400
009556FFFF9555
028001BFFF4001
1F800106FF4001
7F8041007F4101
BF804100FF4101
FF804101FF4101
FF804101FF4101
FF804101FF4101
FF804105BF4101
FF8041600B4101
FF8041D0074101
FF8041C0034101
FF804180014101
FF804141404101
FF804004100101
FF804010040101
FF804010040101
FFC04040010101
BFD04042810104
BFE04103C04104
BFF01107D04404
7FF4140BE01410
3FF8000FF00010
2FFC001FF40010
1FFFAABFFFAA40
0FFFFE2FFFFD00
0BFFF81FFFF000
03FFE00BFF8000
ENDCHAR
STARTCHAR wcircumflex
ENCODING 373
SWIDTH 931 0
DWIDTH 30 0
BBX 28 36 1 -4
BITMAP
00000005500000
00000150054000
00001400001400
0000D005500400
0007D050050400
002FD000000400
003FD05BE40400
007FEBFFFFE400
009556FFFF9555
028001BFFF4001
1F800106FF4001
7F8041007F4101
BF804100FF4101
FF804101FF4101
FF804101FF4101
FF804101FF4101
FF804105BF4101
FF8041600B4101
FF8041D0074101
FF8041C0034101
FF804180014101
FF804141404101
FF804004100101
FF804010040101
FF804010040101
FFC04040010101
BFD04042810104
BFE04103C04104
BFF01107D04404
7FF4140BE01410
3FF8000FF00010
2FFC001FF40010
1FFFAABFFFAA40
0FFFFE2FFFFD00
0BFFF81FFFF000
03FFE00BFF8000
ENDCHAR
STARTCHAR Ycircumflex
ENCODING 374
SWIDTH 805 0
DWIDTH 26 0
BBX 25 36 0 -4
BITMAP
00000015400000
00000540150000
00006400019000
00024015401000
001F4140141000
007F4000001000
00FF4005001000
01FF41BFE40000
01E505FFF51540
01C000BFE00040
07C0005BE00040
1FC0004BE00040
3FC0405FE01040
7FC0406FE01040
7FC0406FE01040
7FC0406FE01040
7FC0406FE01040
7FD0103FC04040
7FD0101F404040
7FF0040A010040
7FF80100040100
7FFD0100040400
3FFF0040101400
1FFF8015401000
0BFFE004004000
02FFF404010000
01FFFC04010000
007FFD04040000
002FFD04040000
000FFD00040000
0007FD00040000
0007FD00040000
0007FFAAA40000
0007FFFFC00000
0007FFFE000000
0002FFF8000000
ENDCHAR
STARTCHAR ycircumflex
ENCODING 375
SWIDTH 805 0
DWIDTH 26 0
BBX 25 36 0 -4
BITMAP
00000015400000
00000540150000
00006400019000
00024015401000
001F4140141000
007F4000001000
00FF4005001000
01FF41BFE40000
01E505FFF51540
01C000BFE00040
07C0005BE00040
1FC0004BE00040
3FC0405FE01040
7FC0406FE01040
7FC0406FE01040
7FC0406FE01040
7FC0406FE01040
7FD0103FC04040
7FD0101F404040
7FF0040A010040
7FF80100040100
7FFD0100040400
3FFF0040101400
1FFF8015401000
0BFFE004004000
02FFF404010000
01FFFC04010000
007FFD04040000
002FFD04040000
000FFD00040000
0007FD00040000
0007FD00040000
0007FFAAA40000
0007FFFFC00000
0007FFFE000000
0002FFF8000000
ENDCHAR
STARTCHAR Ydieresis
ENCODING 376
SWIDTH 805 0
DWIDTH 26 0
BBX 25 35 0 -4
BITMAP
00015550555000
0006000A000400
002D000E000400
00BD040E010400
02FD000E000400
03FD000E000400
03FE001F001000
03FFFFFFFFFF80
03E555FFF55580
03C000BFE00040
0BC000ABE00040
2FC0405FE01040
7FC0406FE01040
7FC0406FE01040
7FC0406FE01040
7FC0406FE01040
7FD0403FC05040
7FD0101F404040
7FE00405010000
7FF40500040000
7FFD0100040000
3FFF0040100000
1FFF8015401000
0BFFD004004000
03FFF404010000
01FFFC04010000
007FFD04040000
002FFD04040000
000FFD00040000
0007FD00040000
0007FD00040000
0007FFAAA40000
0007FFFFC00000
0007FFFE000000
0002FFF8000000
ENDCHAR
STARTCHAR Zacute
ENCODING 377
SWIDTH 760 0
DWIDTH 24 0
BBX 24 36 0 -4
BITMAP
000000005A80
00005ABEA550
0002A5400010
000B00055010
003F01500010
01FF00000000
02FF00000500
02FF45ABFD00
02F555555554
02E000000004
02E000000004
0BE000000004
2FE015555404
2FE000000104
2FF000000504
2FFEAA900404
2FFFFF801004
2FFFFE004010
1FFFFC014040
000074010100
0001D0040400
000780100400
000E00401000
002C01404000
00B401010000
01D004015554
07D010000001
0FC010000001
2FC040000001
7FC015555501
7FC000000001
7FD000000001
7FFAAAAAAAA8
7FFFFFFFFFE0
7FFFFFFFFF40
3FFFFFFFFD00
ENDCHAR
STARTCHAR zacute
ENCODING 378
SWIDTH 760 0
DWIDTH 24 0
BBX 24 36 0 -4
BITMAP
000000005A80
00005ABEA550
0002A5400010
000B00055010
003F01500010
01FF00000000
02FF00000500
02FF45ABFD00
02F555555554
02E000000004
02E000000004
0BE000000004
2FE015555404
2FE000000104
2FF000000504
2FFEAA900404
2FFFFF801004
2FFFFE004010
1FFFFC014040
000074010100
0001D0040400
000780100400
000E00401000
002C01404000
00B401010000
01D004015554
07D010000001
0FC010000001
2FC040000001
7FC015555501
7FC000000001
7FD000000001
7FFAAAAAAAA8
7FFFFFFFFFE0
7FFFFFFFFF40
3FFFFFFFFD00
ENDCHAR
STARTCHAR Zdotaccent
ENCODING 379
SWIDTH 760 0
DWIDTH 24 0
BBX 24 35 0 -4
BITMAP
000005555000
000028000400
0000B8000400
0007F8040400
000BF8040400
000FF8000400
000FF8001000
001555555554
006000000004
02E000000004
0BE000000004
2FE015555404
2FE000000104
2FF000000504
2FFEAA900404
2FFFFF801004
2FFFFE004010
1FFFFC014040
000074010100
0001D0040400
000780100400
000E00401000
002C01404000
00B401010000
01D004015554
07D010000001
0FC010000001
2FC040000001
7FC015555501
7FC000000001
7FD000000001
7FFAAAAAAAA8
7FFFFFFFFFE0
7FFFFFFFFF40
3FFFFFFFFD00
ENDCHAR
STARTCHAR zdotaccent
ENCODING 380
SWIDTH 760 0
DWIDTH 24 0
BBX 24 35 0 -4
BITMAP
000005555000
000028000400
0000B8000400
0007F8040400
000BF8040400
000FF8000400
000FF8001000
001555555554
006000000004
02E000000004
0BE000000004
2FE015555404
2FE000000104
2FF000000504
2FFEAA900404
2FFFFF801004
2FFFFE004010
1FFFFC014040
000074010100
0001D0040400
000780100400
000E00401000
002C01404000
00B401010000
01D004015554
07D010000001
0FC010000001
2FC040000001
7FC015555501
7FC000000001
7FD000000001
7FFAAAAAAAA8
7FFFFFFFFFE0
7FFFFFFFFF40
3FFFFFFFFD00
ENDCHAR
STARTCHAR Zcaron
ENCODING 381
SWIDTH 760 0
DWIDTH 24 0
BBX 24 36 0 -4
BITMAP
000140000040
000A59005540
002E00550010
00BE00000010
02FE05005010
03FE00550000
03FF90000500
03FFFE41B400
02F555555554
01A000000004
01E000000004
07E000000004
1FE015555404
2FE000000104
2FF000000504
2FFEAA900404
2FFFFF801004
2FFFFE004010
1FFFFC014040
000074010100
0001D0040400
000780100400
000E00401000
002C01404000
00B401010000
01D004015554
07D010000001
0FC010000001
2FC040000001
7FC015555501
7FC000000001
7FD000000001
7FFAAAAAAAA8
7FFFFFFFFFE0
7FFFFFFFFF40
3FFFFFFFFD00
ENDCHAR
STARTCHAR zcaron
ENCODING 382
SWIDTH 760 0
DWIDTH 24 0
BBX 24 36 0 -4
BITMAP
000140000040
000A59005540
002E00550010
00BE00000010
02FE05005010
03FE00550000
03FF90000500
03FFFE41B400
02F555555554
01A000000004
01E000000004
07E000000004
1FE015555404
2FE000000104
2FF000000504
2FFEAA900404
2FFFFF801004
2FFFFE004010
1FFFFC014040
000074010100
0001D0040400
000780100400
000E00401000
002C01404000
00B401010000
01D004015554
07D010000001
0FC010000001
2FC040000001
7FC015555501
7FC000000001
7FD000000001
7FFAAAAAAAA8
7FFFFFFFFFE0
7FFFFFFFFF40
3FFFFFFFFD00
ENDCHAR
STARTCHAR Schwa
ENCODING 399
SWIDTH 815 0
DWIDTH 26 0
BBX 25 28 1 -4
BITMAP
00055555554000
001C0000001000
007C0000000400
02FC0555500100
07FC0000050100
0BFC0000010040
0BFC0000004040
0BFFFFFF804040
0BFFFFFFC04040
0BEAAAAA804040
07400000004040
0B400000004040
2F415555554040
BF410000004040
FF410000004040
FF4101AA804040
FF4101FFC04040
FF4100BF404040
FF404000010040
FF805000050100
FFC00555500100
FFD00000000100
FFF80000001400
BFFF9000019000
7FFFFFEBFF0000
2FFFFFFFF80000
07FFFFFFD00000
006BFFE9000000
ENDCHAR
STARTCHAR florin
ENCODING 402
SWIDTH 674 0
DWIDTH 22 0
BBX 21 28 0 -4
BITMAP
000000555540
000001000040
000008000040
000070000040
0001E0015040
0007D0140040
000FD0100040
002FD0402A00
003FD0407800
003A80406540
00D000400040
07C000400040
1FC055955040
3FC000400040
7FC000400040
7FE540405540
7FFFD0407D00
7FFF80407400
7FD000404000
16C000404000
0BC001404000
2FC054010000
7FC000040000
7FD000600000
7FFABF800000
7FFFFE000000
7FFFF4000000
3FFE40000000
ENDCHAR
STARTCHAR Ohorn
ENCODING 416
SWIDTH 847 0
DWIDTH 27 0
BBX 27 31 1 -4
BITMAP
00000000005550
00000000018004
00000000078004
00005555550104
00050000000504
00140000001410
009000005A5050
02C00000024040
0F804000008040
3F80406A404040
7F8040FFC04040
BF8041FFD04040
FF8041FFD04040
FF8041BFD04040
FF80417FD04040
FF80417FD04040
FF80417FD04040
FF80417FD04040
FF80417FD04040
FF80417FC04040
FF8040BF804040
FF804000004040
FF804000004040
FFC01400050140
FFE00155500100
BFF80000000400
BFFF900001A000
7FFFFFEAFF4000
1FFFFFFFFD0000
07FFFFFFE00000
006BFFE9000000
ENDCHAR
STARTCHAR ohorn
ENCODING 417
SWIDTH 847 0
DWIDTH 27 0
BBX 27 31 1 -4
BITMAP
00000000005550
00000000018004
00000000078004
00005555550104
00050000000504
00140000001410
009000005A5050
02C00000024040
0F804000008040
3F80406A404040
7F8040FFC04040
BF8041FFD04040
FF8041FFD04040
FF8041BFD04040
FF80417FD04040
FF80417FD04040
FF80417FD04040
FF80417FD04040
FF80417FD04040
FF80417FC04040
FF8040BF804040
FF804000004040
FF804000004040
FFC01400050140
FFE00155500100
BFF80000000400
BFFF900001A000
7FFFFFEAFF4000
1FFFFFFFFD0000
07FFFFFFE00000
006BFFE9000000
ENDCHAR
STARTCHAR Uhorn
ENCODING 431
SWIDTH 856 0
DWIDTH 27 0
BBX 27 31 1 -4
BITMAP
00000000001554
00000000018004
00000000078004
00555500150104
02800040900104
0B800047D00404
2F80405FD01010
BF80407FD04040
BF80407FD04040
BF80407FD04040
BF80407FD04040
BF80407FD04040
BF80407FD04040
BF80407FD04040
BF80407FD04040
BF80407FD04040
BF80407FD04040
BF80407FD04040
BF80407FD04040
BF80407FD04040
BF80407FC04040
BF804005004040
BFC01000004040
BFD01400050040
BFE00155500100
BFF90000000400
7FFF900001A000
3FFFFFFAFF8000
1FFFFFFFFD0000
02FFFFFFE00000
001AFFF9000000
ENDCHAR
STARTCHAR uhorn
ENCODING 432
SWIDTH 856 0
DWIDTH 27 0
BBX 27 31 1 -4
BITMAP
00000000001554
00000000018004
00000000078004
00555500150104
02800040900104
0B800047D00404
2F80405FD01010
BF80407FD04040
BF80407FD04040
BF80407FD04040
BF80407FD04040
BF80407FD04040
BF80407FD04040
BF80407FD04040
BF80407FD04040
BF80407FD04040
BF80407FD04040
BF80407FD04040
BF80407FD04040
BF80407FD04040
BF80407FC04040
BF804005004040
BFC01000004040
BFD01400050040
BFE00155500100
BFF90000000400
7FFF900001A000
3FFFFFFAFF8000
1FFFFFFFFD0000
02FFFFFFE00000
001AFFF9000000
ENDCHAR
STARTCHAR Acaron
ENCODING 461
SWIDTH 830 0
DWIDTH 27 0
BBX 25 36 1 -4
BITMAP
00014000004000
00065900155000
002E0055401000
00BE0000001000
02FE0100501000
02FE0055000000
02FFD000050000
02FFFE41B40000
02FFD555550000
01FF4000004000
001B0000004000
000E0000001000
003D0155401000
00BC0500101000
01F80400040400
02F4042D040400
03E0103E040100
07D0107F010100
0BC040BF010100
1F8040FF404040
2F804055404040
3F404000004040
7F410000004040
BF415555558040
FF410000004040
FF410000004040
FF4101AA804040
FF4102FFC04040
FF4102FFC04040
FF4002FFC00040
FF40017FC00040
FF80017FD00040
FFFAA87FFAAA00
FFFFE07FFFF800
FFFF407FFFD000
BFFD003FFF4000
ENDCHAR
STARTCHAR acaron
ENCODING 462
SWIDTH 830 0
DWIDTH 27 0
BBX 25 36 1 -4
BITMAP
00014000004000
00065900155000
002E0055401000
00BE0000001000
02FE0100501000
02FE0055000000
02FFD000050000
02FFFE41B40000
02FFD555550000
01FF4000004000
001B0000004000
000E0000001000
003D0155401000
00BC0500101000
01F80400040400
02F4042D040400
03E0103E040100
07D0107F010100
0BC040BF010100
1F8040FF404040
2F804055404040
3F404000004040
7F410000004040
BF415555558040
FF410000004040
FF410000004040
FF4101AA804040
FF4102FFC04040
FF4102FFC04040
FF4002FFC00040
FF40017FC00040
FF80017FD00040
FFFAA87FFAAA00
FFFFE07FFFF800
FFFF407FFFD000
BFFD003FFF4000
ENDCHAR
STARTCHAR Icaron
ENCODING 463
SWIDTH 705 0
DWIDTH 23 0
BBX 21 36 1 -4
BITMAP
001500000400
006590015500
02E005540100
0BE000000100
2FE010050100
2FE005500000
2FFD00005000
2FFFE41B4000
2F9555555540
0B4000000040
0B4000000040
2F4000000040
BF4155554040
FF4000400040
FF9500401540
FFFF8040FD00
FFFF8040F400
FFFF80409000
6AFF80404000
00BF80404000
00BF80404000
00BF80404000
00BF80404000
00BF80404000
00BF80404000
00AA40405500
014000400040
0B4000400040
2F4000400040
BF4155554040
FF4000000040
FF4000000040
FFEAAAAAAA00
FFFFFFFFF800
FFFFFFFFD000
BFFFFFFF4000
ENDCHAR
STARTCHAR icaron
ENCODING 464
SWIDTH 705 0
DWIDTH 23 0
BBX 21 36 1 -4
BITMAP
001500000400
006590015500
02E005540100
0BE000000100
2FE010050100
2FE005500000
2FFD00005000
2FFFE41B4000
2F9555555540
0B4000000040
0B4000000040
2F4000000040
BF4155554040
FF4000400040
FF9500401540
FFFF8040FD00
FFFF8040F400
FFFF80409000
6AFF80404000
00BF80404000
00BF80404000
00BF80404000
00BF80404000
00BF80404000
00BF80404000
00AA40405500
014000400040
0B4000400040
2F4000400040
BF4155554040
FF4000000040
FF4000000040
FFEAAAAAAA00
FFFFFFFFF800
FFFFFFFFD000
BFFFFFFF4000
ENDCHAR
STARTCHAR Ocaron
ENCODING 465
SWIDTH 837 0
DWIDTH 27 0
BBX 25 37 1 -4
BITMAP
00000000004000
00010500155000
000A0055401000
002E0000001000
00FE0100501000
02FE0055001000
02FF4000004000
02FFE400064000
02FFFF91BD0000
02FFFAAAA50000
00BE4000005000
00140000000500
00900155500100
02C01400050040
0B804000004040
2F80406A404040
7F8040FFC04040
BF8041FFD04040
FF8041FFD04040
FF8041BFD04040
FF80417FD04040
FF80417FD04040
FF80417FD04040
FF80417FD04040
FF80417FD04040
FF80417FC04040
FF8040BF804040
FF804000004040
FF804000004040
FFC01400050040
BFE00155500100
BFF80000000400
7FFF900001A000
2FFFFFEAFF8000
0FFFFFFFFD0000
02FFFFFFE00000
001AFFF9000000
ENDCHAR
STARTCHAR ocaron
ENCODING 466
SWIDTH 837 0
DWIDTH 27 0
BBX 25 37 1 -4
BITMAP
00000000004000
00010500155000
000A0055401000
002E0000001000
00FE0100501000
02FE0055001000
02FF4000004000
02FFE400064000
02FFFF91BD0000
02FFFAAAA50000
00BE4000005000
00140000000500
00900155500100
02C01400050040
0B804000004040
2F80406A404040
7F8040FFC04040
BF8041FFD04040
FF8041FFD04040
FF8041BFD04040
FF80417FD04040
FF80417FD04040
FF80417FD04040
FF80417FD04040
FF80417FD04040
FF80417FC04040
FF8040BF804040
FF804000004040
FF804000004040
FFC01400050040
BFE00155500100
BFF80000000400
7FFF900001A000
2FFFFFEAFF8000
0FFFFFFFFD0000
02FFFFFFE00000
001AFFF9000000
ENDCHAR
STARTCHAR Ucaron
ENCODING 467
SWIDTH 846 0
DWIDTH 27 0
BBX 25 37 1 -4
BITMAP
00004000004000
00025500155000
000F0055401000
007F0000001000
01FF0140101000
02FF0015401000
02FF4000000000
02FFF400050000
02FFFF91B80000
01D555FFE55540
028000FED00040
0B800097D00040
2F80405FD00040
BF80407FD04040
BF80407FD04040
BF80407FD04040
BF80407FD04040
BF80407FD04040
BF80407FD04040
BF80407FD04040
BF80407FD04040
BF80407FD04040
BF80407FD04040
BF80407FD04040
BF80407FD04040
BF80407FD04040
BF80407FC04040
BF804005004040
BFC01000004040
BFD01400050040
BFE00155500100
7FF90000000400
3FFF900001A000
2FFFFFFAFF4000
0BFFFFFFFD0000
01FFFFFFE00000
001AFFF9000000
ENDCHAR
STARTCHAR ucaron
ENCODING 468
SWIDTH 846 0
DWIDTH 27 0
BBX 25 37 1 -4
BITMAP
00004000004000
00025500155000
000F0055401000
007F0000001000
01FF0140101000
02FF0015401000
02FF4000000000
02FFF400050000
02FFFF91B80000
01D555FFE55540
028000FED00040
0B800097D00040
2F80405FD00040
BF80407FD04040
BF80407FD04040
BF80407FD04040
BF80407FD04040
BF80407FD04040
BF80407FD04040
BF80407FD04040
BF80407FD04040
BF80407FD04040
BF80407FD04040
BF80407FD04040
BF80407FD04040
BF80407FD04040
BF80407FC04040
BF804005004040
BFC01000004040
BFD01400050040
BFE00155500100
7FF90000000400
3FFF900001A000
2FFFFFFAFF4000
0BFFFFFFFD0000
01FFFFFFE00000
001AFFF9000000
ENDCHAR
STARTCHAR Udieresismacron
ENCODING 469
SWIDTH 846 0
DWIDTH 27 0
BBX 25 42 1 -4
BITMAP
00005555554000
00060000001000
001E0000001000
007E0155501000
01FE0000001000
02FF0000001000
02FFFFFFFF8000
02FD002E001000
02FC001D000400
01FC001D000400
02FC041D040400
07FC001D000400
07FC001D000000
07FD002E001000
07FFFFFFFFFF40
07D555FFE55580
0B8000FFD00040
2F8000AFD00040
BF80405FD04040
BF80407FD04040
BF80407FD04040
BF80407FD04040
BF80407FD04040
BF80407FD04040
BF80407FD04040
BF80407FD04040
BF80407FD04040
BF80407FD04040
BF80407FD04040
BF80407FD04040
BF80407FD04040
BF80407FC04040
BF804015004040
BFC05000004040
BFD01400050040
BFE00155500100
7FF80000000400
3FFF900001A000
2FFFFFFAFF4000
0BFFFFFFFD0000
01FFFFFFE00000
001AFFF9000000
ENDCHAR
STARTCHAR udieresismacron
ENCODING 470
SWIDTH 846 0
DWIDTH 27 0
BBX 25 42 1 -4
BITMAP
00005555554000
00060000001000
001E0000001000
007E0155501000
01FE0000001000
02FF0000001000
02FFFFFFFF8000
02FD002E001000
02FC001D000400
01FC001D000400
02FC041D040400
07FC001D000400
07FC001D000000
07FD002E001000
07FFFFFFFFFF40
07D555FFE55580
0B8000FFD00040
2F8000AFD00040
BF80405FD04040
BF80407FD04040
BF80407FD04040
BF80407FD04040
BF80407FD04040
BF80407FD04040
BF80407FD04040
BF80407FD04040
BF80407FD04040
BF80407FD04040
BF80407FD04040
BF80407FD04040
BF80407FD04040
BF80407FC04040
BF804015004040
BFC05000004040
BFD01400050040
BFE00155500100
7FF80000000400
3FFF900001A000
2FFFFFFAFF4000
0BFFFFFFFD0000
01FFFFFFE00000
001AFFF9000000
ENDCHAR
STARTCHAR Udieresisacute
ENCODING 471
SWIDTH 846 0
DWIDTH 27 0
BBX 25 43 1 -4
BITMAP
00000000140000
00000015440000
00000140040000
00000740040000
00002F45040000
0000BF40040000
0001FF40140000
0001FF9BD00000
0001AABF955000
0009001D000400
003C001D000400
01FC041D040400
03FC001D000400
07FC001D000400
07FD002E001000
07FFFFFFFFFF40
07D555FFE55580
078000FFD00040
1F8000AFD00040
7F80405FD04040
BF80407FD04040
BF80407FD04040
BF80407FD04040
BF80407FD04040
BF80407FD04040
BF80407FD04040
BF80407FD04040
BF80407FD04040
BF80407FD04040
BF80407FD04040
BF80407FD04040
BF80407FD04040
BF80407FC04040
BF804015004040
BFC05000004040
BFD01400050040
BFE00155500100
7FF80000000400
3FFF900001A000
2FFFFFFAFF4000
0BFFFFFFFD0000
01FFFFFFE00000
001AFFF9000000
ENDCHAR
STARTCHAR udieresisacute
ENCODING 472
SWIDTH 846 0
DWIDTH 27 0
BBX 25 43 1 -4
BITMAP
00000000140000
00000015440000
00000140040000
00000740040000
00002F45040000
0000BF40040000
0001FF40140000
0001FF9BD00000
0001AABF955000
0009001D000400
003C001D000400
01FC041D040400
03FC001D000400
07FC001D000400
07FD002E001000
07FFFFFFFFFF40
07D555FFE55580
078000FFD00040
1F8000AFD00040
7F80405FD04040
BF80407FD04040
BF80407FD04040
BF80407FD04040
BF80407FD04040
BF80407FD04040
BF80407FD04040
BF80407FD04040
BF80407FD04040
BF80407FD04040
BF80407FD04040
BF80407FD04040
BF80407FD04040
BF80407FC04040
BF804015004040
BFC05000004040
BFD01400050040
BFE00155500100
7FF80000000400
3FFF900001A000
2FFFFFFAFF4000
0BFFFFFFFD0000
01FFFFFFE00000
001AFFF9000000
ENDCHAR
STARTCHAR Udieresiscaron
ENCODING 473
SWIDTH 846 0
DWIDTH 27 0
BBX 25 44 1 -4
BITMAP
00000000004000
00010000151000
00070055401000
002F0000001000
00BF0140101000
02FF0055401000
02FF8000005000
02FFF9001B4000
02FFFFD5BD0000
01FFAABFA55000
007D001D000400
007C001D000400
01FC041D040400
07FC001D000400
07FC001D000400
07FD002E001000
07FFFFFFFFFF40
07D555FFE55580
078000FFD00040
2F8000AFD00040
7F80405FD04040
BF80407FD04040
BF80407FD04040
BF80407FD04040
BF80407FD04040
BF80407FD04040
BF80407FD04040
BF80407FD04040
BF80407FD04040
BF80407FD04040
BF80407FD04040
BF80407FD04040
BF80407FD04040
BF80407FC04040
BF804015004040
BFC05000004040
BFD01400050040
BFE00155500100
7FF80000000400
3FFF900001A000
2FFFFFFAFF4000
0BFFFFFFFD0000
01FFFFFFE00000
001AFFF9000000
ENDCHAR
STARTCHAR udieresiscaron
ENCODING 474
SWIDTH 846 0
DWIDTH 27 0
BBX 25 44 1 -4
BITMAP
00000000004000
00010000151000
00070055401000
002F0000001000
00BF0140101000
02FF0055401000
02FF8000005000
02FFF9001B4000
02FFFFD5BD0000
01FFAABFA55000
007D001D000400
007C001D000400
01FC041D040400
07FC001D000400
07FC001D000400
07FD002E001000
07FFFFFFFFFF40
07D555FFE55580
078000FFD00040
2F8000AFD00040
7F80405FD04040
BF80407FD04040
BF80407FD04040
BF80407FD04040
BF80407FD04040
BF80407FD04040
BF80407FD04040
BF80407FD04040
BF80407FD04040
BF80407FD04040
BF80407FD04040
BF80407FD04040
BF80407FD04040
BF80407FC04040
BF804015004040
BFC05000004040
BFD01400050040
BFE00155500100
7FF80000000400
3FFF900001A000
2FFFFFFAFF4000
0BFFFFFFFD0000
01FFFFFFE00000
001AFFF9000000
ENDCHAR
STARTCHAR Udieresisgrave
ENCODING 475
SWIDTH 846 0
DWIDTH 27 0
BBX 25 43 1 -4
BITMAP
00000140000000
00000815400000
00002C00100000
0001FC00100000
0007FC15100000
000BFC00100000
000BFE40100000
000BFFFA500000
000BAABF955000
0009001D000400
003C001D000400
01FC041D040400
03FC001D000400
07FC001D000400
07FD002E001000
07FFFFFFFFFF40
07D555FFE55580
078000FFD00040
1F8000AFD00040
7F80405FD04040
BF80407FD04040
BF80407FD04040
BF80407FD04040
BF80407FD04040
BF80407FD04040
BF80407FD04040
BF80407FD04040
BF80407FD04040
BF80407FD04040
BF80407FD04040
BF80407FD04040
BF80407FD04040
BF80407FC04040
BF804015004040
BFC05000004040
BFD01400050040
BFE00155500100
7FF80000000400
3FFF900001A000
2FFFFFFAFF4000
0BFFFFFFFD0000
01FFFFFFE00000
001AFFF9000000
ENDCHAR
STARTCHAR udieresisgrave
ENCODING 476
SWIDTH 846 0
DWIDTH 27 0
BBX 25 43 1 -4
BITMAP
00000140000000
00000815400000
00002C00100000
0001FC00100000
0007FC15100000
000BFC00100000
000BFE40100000
000BFFFA500000
000BAABF955000
0009001D000400
003C001D000400
01FC041D040400
03FC001D000400
07FC001D000400
07FD002E001000
07FFFFFFFFFF40
07D555FFE55580
078000FFD00040
1F8000AFD00040
7F80405FD04040
BF80407FD04040
BF80407FD04040
BF80407FD04040
BF80407FD04040
BF80407FD04040
BF80407FD04040
BF80407FD04040
BF80407FD04040
BF80407FD04040
BF80407FD04040
BF80407FD04040
BF80407FD04040
BF80407FC04040
BF804015004040
BFC05000004040
BFD01400050040
BFE00155500100
7FF80000000400
3FFF900001A000
2FFFFFFAFF4000
0BFFFFFFFD0000
01FFFFFFE00000
001AFFF9000000
ENDCHAR
STARTCHAR Gcaron
ENCODING 486
SWIDTH 808 0
DWIDTH 26 0
BBX 24 36 1 -4
BITMAP
000140000000
000A59005540
002D00550040
01FD00000040
03FD05005040
03FD00550000
03FF90000500
03FFFE41A400
03FFE5555550
01FD00000010
001000000010
005000000010
01C005555410
0B8010000010
2F8040000010
3F80406AAA80
BF8040FFFE00
BF8041FFF800
FF8041FFD000
FF8041005555
FF8041014001
FF80410B4001
FF80412F4001
FF8041BF4101
FF8041FF4101
FF8040FF4101
FF8040150101
FF8040000101
FFC010000101
BFE005555501
BFF400000001
7FFE40000001
2FFFFFAAAAA9
1FFFFFFFFFE0
07FFFFFFFF80
006FFFFFFE00
ENDCHAR
STARTCHAR gcaron
ENCODING 487
SWIDTH 808 0
DWIDTH 26 0
BBX 24 36 1 -4
BITMAP
000140000000
000A59005540
002D00550040
01FD00000040
03FD05005040
03FD00550000
03FF90000500
03FFFE41A400
03FFE5555550
01FD00000010
001000000010
005000000010
01C005555410
0B8010000010
2F8040000010
3F80406AAA80
BF8040FFFE00
BF8041FFF800
FF8041FFD000
FF8041005555
FF8041014001
FF80410B4001
FF80412F4001
FF8041BF4101
FF8041FF4101
FF8040FF4101
FF8040150101
FF8040000101
FFC010000101
BFE005555501
BFF400000001
7FFE40000001
2FFFFFAAAAA9
1FFFFFFFFFE0
07FFFFFFFF80
006FFFFFFE00
ENDCHAR
STARTCHAR Scommaaccent
ENCODING 536
SWIDTH 750 0
DWIDTH 24 0
BBX 23 40 1 -16
BITMAP
000155555540
000400000010
005000000010
018000000010
078015555010
2F4040000010
7F4040000000
BF4101FFFF40
FF4101FFFD00
FF410005A400
FF4040000140
FF8040000010
FFC015500010
FFE000055004
FFF900001404
FFFFE9500404
BFFFFFF80404
2FFFFFF80404
078000000404
074000000404
1F4000001010
BF4155554010
FF4000000080
FF8000001A00
FFFFFFFFF800
FFFFF5556000
FFFFE0001000
BFFFE0001000
000BE0551000
002FE0011000
002FE0011000
002FF0011000
002FFFE11000
002FF5440000
002FF0504000
001BF4050000
000FFFF40000
001FFFD00000
001FFE000000
000554000000
ENDCHAR
STARTCHAR scommaaccent
ENCODING 537
SWIDTH 750 0
DWIDTH 24 0
BBX 23 40 1 -16
BITMAP
000155555540
000400000010
005000000010
018000000010
078015555010
2F4040000010
7F4040000000
BF4101FFFF40
FF4101FFFD00
FF410005A400
FF4040000140
FF8040000010
FFC015500010
FFE000055004
FFF900001404
FFFFE9500404
BFFFFFF80404
2FFFFFF80404
078000000404
074000000404
1F4000001010
BF4155554010
FF4000000080
FF8000001A00
FFFFFFFFF800
FFFFF5556000
FFFFE0001000
BFFFE0001000
000BE0551000
002FE0011000
002FE0011000
002FF0011000
002FFFE11000
002FF5440000
002FF0504000
001BF4050000
000FFFF40000
001FFFD00000
001FFE000000
000554000000
ENDCHAR
STARTCHAR uni021A
ENCODING 538
SWIDTH 756 0
DWIDTH 24 0
BBX 24 40 0 -16
BITMAP
005555555555
028000000001
0B8000000001
2F8000000001
BF8155555541
FF8000040001
FF8000040001
FFFAA4040AA8
FFFFF4040FE0
FFFFF4040F80
BFFFF4040E00
000FF4040400
000FF4040400
000FF4040400
000FF4040400
000FF4040400
000FF4040400
000FF4040400
000FF4040400
000FF4040400
000FF4040400
000FF4000400
000FF4000400
000FF8001000
000FFFFFD000
000FF9555000
000FF4000400
000BF4000400
0003F4550400
000BF4010400
000FF4010400
000FF8010400
000FFFF51000
000FFD411000
000FF8540000
0006FC010000
0007FFFD0000
000BFFE00000
000BFF800000
000155000000
ENDCHAR
STARTCHAR uni021B
ENCODING 539
SWIDTH 756 0
DWIDTH 24 0
BBX 24 40 0 -16
BITMAP
005555555555
028000000001
0B8000000001
2F8000000001
BF8155555541
FF8000040001
FF8000040001
FFFAA4040AA8
FFFFF4040FE0
FFFFF4040F80
BFFFF4040E00
000FF4040400
000FF4040400
000FF4040400
000FF4040400
000FF4040400
000FF4040400
000FF4040400
000FF4040400
000FF4040400
000FF4040400
000FF4000400
000FF4000400
000FF8001000
000FFFFFD000
000FF9555000
000FF4000400
000BF4000400
0003F4550400
000BF4010400
000FF4010400
000FF8010400
000FFFF51000
000FFD411000
000FF8540000
0006FC010000
0007FFFD0000
000BFFE00000
000BFF800000
000155000000
ENDCHAR
STARTCHAR dotlessj
ENCODING 567
SWIDTH 788 0
DWIDTH 25 0
BBX 24 28 0 -4
BITMAP
000000005555
000000024001
0000000F4001
0000007F4001
000000FF4101
000000FF4101
000000FF4101
000000FF4101
000000FF4101
000000FF4101
000000FF4101
001555FF4101
008000FF4101
07C000FF4101
1FC000FF4101
7FC040FF4101
7FC040FF4101
7FC040FF0101
7FC040140101
7FC050000101
7FD014000401
7FF001555004
7FFD00000010
3FFF90000680
1FFFFFFBFE00
0BFFFFFFF800
01FFFFFFD000
001AFFE90000
ENDCHAR
STARTCHAR ascript
ENCODING 593
SWIDTH 846 0
DWIDTH 27 0
BBX 25 28 1 -4
BITMAP
00005555550000
00050000005000
00140000000500
00900155500100
02C01400050040
0B804000014040
2F804015004040
7F8040FF804040
BF8041FFC04040
FF8041FFC04040
FF8041FFC04040
FF8041BFC04040
FF80417FC04040
FF80417FC04040
FF80417FC04040
FF80417FC04040
FF80417FC04040
FF8040BFC04040
FF804000004040
FF804000004040
FFC01000004040
FFE00555554040
BFF40000000040
BFFE4000000040
7FFFFFAAAAAA00
2FFFFFFFFFF800
0BFFFFFFFFD000
00AFFFFFFF4000
ENDCHAR
STARTCHAR schwa
ENCODING 601
SWIDTH 815 0
DWIDTH 26 0
BBX 25 28 1 -4
BITMAP
00055555554000
001C0000001000
007C0000000400
02FC0555500100
07FC0000050100
0BFC0000010040
0BFC0000004040
0BFFFFFF804040
0BFFFFFFC04040
0BEAAAAA804040
07400000004040
0B400000004040
2F415555554040
BF410000004040
FF410000004040
FF4101AA804040
FF4101FFC04040
FF4100BF404040
FF404000010040
FF805000050100
FFC00555500100
FFD00000000100
FFF80000001400
BFFF9000019000
7FFFFFEBFF0000
2FFFFFFFF80000
07FFFFFFD00000
006BFFE9000000
ENDCHAR
STARTCHAR gscript
ENCODING 609
SWIDTH 815 0
DWIDTH 26 0
BBX 26 30 0 -6
BITMAP
00001555554000
00014000001400
00080000000100
00200155540040
01E01400014040
07D01000005010
1FD0401A401010
2FD0407FE01010
3FD0407FE01010
3FD0407FE01010
3FD0407FE01010
7FD04000001010
7FD01000001010
7FE01400001010
3FF40555555010
3FFC0000001010
3FFF4000001010
2FFFFEAA901010
0FFFFFFFE01010
02FFFFFFD01010
006F0000001010
000F0000004040
007F0155550040
01FF0000000140
02FF0000000500
02FF0000016400
02FFFFFFFFD000
02FFFFFFFE0000
02FFFFFFF80000
01BFFFEA400000
ENDCHAR
STARTCHAR commaturnedmod
ENCODING 699
SWIDTH 600 0
DWIDTH 19 0
BBX 13 15 3 9
BITMAP
00055540
00105440
00910040
02C17E00
0FC41540
2FC40040
7FC40040
7FC15440
7FC00040
7FC00040
7FD00040
7FFFFD00
7FFFF400
7FFFD000
2AAA4000
ENDCHAR
STARTCHAR apostrophemod
ENCODING 700
SWIDTH 600 0
DWIDTH 19 0
BBX 13 15 3 9
BITMAP
00155540
00800040
07C00040
1FC15440
7FC00440
7FC00440
7FD00440
7FFFC440
7FE51040
7FD15100
2FD00500
2FFAB400
3FFFD000
3FFF0000
3FF80000
ENDCHAR
STARTCHAR ringhalfright
ENCODING 702
SWIDTH 412 0
DWIDTH 13 0
BBX 13 15 0 9
BITMAP
00555500
02800040
0F815040
7F800440
BFFE0440
BFFF0440
BFFE0440
BFD00440
03800440
0B815040
7F800100
BFFAB800
BFFFE000
BFFF8000
BFF90000
ENDCHAR
STARTCHAR ringhalfleft
ENCODING 703
SWIDTH 412 0
DWIDTH 13 0
BBX 13 15 0 9
BITMAP
00155540
00500040
02C05040
0B810040
2F810A40
7F812D00
BF812400
BF811540
BF810040
BFC05040
BFE00040
BFFFEA40
BFFFFD00
7FFFF400
1BFF8000
ENDCHAR
STARTCHAR circumflex
ENCODING 710
SWIDTH 600 0
DWIDTH 19 0
BBX 19 12 0 20
BITMAP
0000055000
0001500500
0014000050
0080055004
07C0500404
1FC0000004
7FC01A9004
7FD6FFFE54
7FFFFFFFE0
7FFFFFFF80
7FE46FFD00
6400006400
ENDCHAR
STARTCHAR caron
ENCODING 711
SWIDTH 600 0
DWIDTH 19 0
BBX 19 12 0 20
BITMAP
0014000010
00D6500554
07C0155004
1FC0000004
7FC0500404
7FC0055004
7FF9000060
7FFFE41B80
7FFFFFFD00
3FFFFFF400
06FFFE4000
001B900000
ENDCHAR
STARTCHAR verticallinemod
ENCODING 712
SWIDTH 456 0
DWIDTH 15 0
BBX 13 16 1 8
BITMAP
00555540
02800040
0F800040
7F804040
BF804040
BF804040
BF804040
BF804040
BF804040
BF800040
BF800040
BF800040
BFFAAA00
BFFFF800
BFFFD000
BFFF4000
ENDCHAR
STARTCHAR firsttonechinese
ENCODING 713
SWIDTH 600 0
DWIDTH 19 0
BBX 19 10 0 20
BITMAP
0015555550
0080000004
07C0000004
1FC0555404
7FC0000004
7FD0000004
7FFFFFFFE0
7FFFFFFF40
7FFFFFFD00
2AAAAAA400
ENDCHAR
STARTCHAR secondtonechinese
ENCODING 714
SWIDTH 600 0
DWIDTH 19 0
BBX 19 11 0 20
BITMAP
0000055554
0015500004
0080000004
07C0555404
1FC0000004
7FC0000154
7FD16AFFD0
7FFFFFFE00
7FFFFFF800
7FFFEA5000
2A50000000
ENDCHAR
STARTCHAR fourthtonechinese
ENCODING 715
SWIDTH 600 0
DWIDTH 19 0
BBX 19 11 0 20
BITMAP
0055554000
02C0001550
0BC0000004
2FC0555404
7FC0000004
7FE5400004
7FFFFEA544
7FFFFFFFE0
7FFFFFFF40
16AFFFFD00
000016A400
ENDCHAR
STARTCHAR verticallinelowmod
ENCODING 716
SWIDTH 456 0
DWIDTH 15 0
BBX 13 16 1 -8
BITMAP
00555540
02800040
0F800040
7F804040
BF804040
BF804040
BF804040
BF804040
BF804040
BF800040
BF800040
BF800040
BFFAAA00
BFFFF800
BFFFD000
BFFF4000
ENDCHAR
STARTCHAR breve
ENCODING 728
SWIDTH 600 0
DWIDTH 19 0
BBX 19 12 0 20
BITMAP
0015501554
0180046004
078006E004
1F81014044
7FC1400104
BFD0155404
BFF0000010
BFFE400580
BFFFFFFE00
3FFFFFF800
1FFFFFD000
01BFF90000
ENDCHAR
STARTCHAR dotaccent
ENCODING 729
SWIDTH 600 0
DWIDTH 19 0
BBX 13 11 3 20
BITMAP
00155540
00800040
07C00040
1FC04040
7FC04040
7FC00040
7FD00040
7FFFFE00
7FFFF800
7FFFD000
2AAA4000
ENDCHAR
STARTCHAR ring
ENCODING 730
SWIDTH 600 0
DWIDTH 19 0
BBX 19 17 0 20
BITMAP
0000555500
0005000050
0010155414
01C1400104
0781000104
2F810BD044
7F810FE044
BF810FE044
BF810A9104
BFC1400104
BFC0155404
BFE0000010
BFFE400580
BFFFFFFE00
7FFFFFF800
1FFFFFD000
01BFF90000
ENDCHAR
STARTCHAR ogonek
ENCODING 731
SWIDTH 600 0
DWIDTH 19 0
BBX 14 13 3 -10
BITMAP
00155500
00A04100
02E04100
0BD04400
2FD10540
2FC10010
3FC05010
3FD00010
7FF40010
7FFFFF80
7FFFFD00
3FFFF400
1BFFD000
ENDCHAR
STARTCHAR tilde
ENCODING 732
SWIDTH 600 0
DWIDTH 19 0
BBX 19 11 0 20
BITMAP
0005554050
0050001504
01C0000004
07C0550004
2FC0005404
7FC0000004
7FD6A94060
7FFFFFFF80
7FFFFFFE00
7FFFFFF800
6956BF9000
ENDCHAR
STARTCHAR hungarumlaut
ENCODING 733
SWIDTH 600 0
DWIDTH 19 0
BBX 21 14 -1 20
BITMAP
000555015500
001400580040
00B001740040
02F001F40100
0BE042F04100
0FD043E04100
1FD107E04100
2FC007D00000
3F800BC00400
3F800FC00400
7FFFFFFFE000
BFFFBFFF8000
BFFDBFFD0000
6AA06AA40000
ENDCHAR
STARTCHAR gravecmb
ENCODING 768
SWIDTH 100 0
DWIDTH 3 0
BBX 19 11 -8 20
BITMAP
0055554000
02C0001550
0BC0000004
2FC0555404
7FC0000004
7FE5400004
7FFFFEA544
7FFFFFFFE0
7FFFFFFF40
16AFFFFD00
000016A400
ENDCHAR
STARTCHAR acutecmb
ENCODING 769
SWIDTH 100 0
DWIDTH 3 0
BBX 19 11 -8 20
BITMAP
0000055554
0015500004
0080000004
07C0555404
1FC0000004
7FC0000154
7FD16AFFD0
7FFFFFFE00
7FFFFFF800
7FFFEA5000
2A50000000
ENDCHAR
STARTCHAR circumflexcmb
ENCODING 770
SWIDTH 100 0
DWIDTH 3 0
BBX 19 12 -8 20
BITMAP
0000055000
0001500500
0014000050
0080055004
07C0500404
1FC0000004
7FC01A9004
7FD6FFFE54
7FFFFFFFE0
7FFFFFFF80
7FE46FFD00
6400006400
ENDCHAR
STARTCHAR tildecmb
ENCODING 771
SWIDTH 100 0
DWIDTH 3 0
BBX 19 11 -8 20
BITMAP
0005554054
0050001504
01C0000004
07C0550004
1FC0005404
7FC0000004
7FD6A94060
7FFFFFFF80
7FFFFFFE00
7FFFFFF800
6956BF9000
ENDCHAR
STARTCHAR uni0304
ENCODING 772
SWIDTH 600 0
DWIDTH 19 0
BBX 19 10 0 20
BITMAP
0015555550
0080000004
07C0000004
1FC0555404
7FC0000004
7FD0000004
7FFFFFFFE0
7FFFFFFF40
7FFFFFFD00
2AAAAAA400
ENDCHAR
STARTCHAR brevecmb
ENCODING 774
SWIDTH 100 0
DWIDTH 3 0
BBX 19 12 -8 20
BITMAP
0015501554
0180046004
078006E004
1F81014044
7FC1400104
BFD0155404
BFF0000010
BFFE400580
BFFFFFFE00
3FFFFFF800
1FFFFFD000
01BFF90000
ENDCHAR
STARTCHAR dotaccentcmb
ENCODING 775
SWIDTH 100 0
DWIDTH 3 0
BBX 13 11 -5 20
BITMAP
00155500
00800040
07C00040
1FC04040
7FC04040
7FC00040
7FD00040
7FFFFE00
7FFFF400
7FFFD000
2AAA4000
ENDCHAR
STARTCHAR dieresiscmb
ENCODING 776
SWIDTH 100 0
DWIDTH 3 0
BBX 20 11 -8 20
BITMAP
0055545554
0240058001
0B40038001
2F41038101
FF40038001
FF40038001
FF40078001
FFFFFFFFF4
FFFFFFFFD0
FFFEFFFF00
AAA86AA800
ENDCHAR
STARTCHAR hookcmb
ENCODING 777
SWIDTH 100 0
DWIDTH 3 0
BBX 15 14 -5 20
BITMAP
00155540
01C00010
07C15504
1FC00044
7FEAA044
7FFE9044
7FF40144
7FF45404
07F80050
0FFEAF80
0FFFFD00
0FFFF400
0BFE8000
01400000
ENDCHAR
STARTCHAR ringcmb
ENCODING 778
SWIDTH 100 0
DWIDTH 3 0
BBX 19 17 -8 20
BITMAP
0000555500
0005000050
0010155414
01C1400104
0781000104
2F810BD044
7F810FE044
BF810FE044
BF810A9104
BFC1400104
BFC0155404
BFE0000010
BFFE400580
BFFFFFFE00
7FFFFFF800
1FFFFFD000
01BFF90000
ENDCHAR
STARTCHAR hungarumlautcmb
ENCODING 779
SWIDTH 100 0
DWIDTH 3 0
BBX 21 14 -8 20
BITMAP
000155015540
001800480040
007400780040
01F401F80040
07F041F41040
0FE042F04100
0FD043E04100
1FD007E00100
2FC007D00100
3FC00BD00400
3FFFFFFFF000
7FFFBFFF8000
BFFD7FFE0000
6AA42AA40000
ENDCHAR
STARTCHAR caroncmb
ENCODING 780
SWIDTH 100 0
DWIDTH 3 0
BBX 19 12 -8 20
BITMAP
0014000010
00D6500554
07C0155004
1FC0000004
7FC0500404
7FC0055004
7FF9000060
7FFFE41B80
7FFFFFFD00
3FFFFFF400
06FFFE4000
001B900000
ENDCHAR
STARTCHAR horncmb
ENCODING 795
SWIDTH 100 0
DWIDTH 3 0
BBX 12 12 -5 15
BITMAP
000555
002001
00F001
07D041
0F8041
1F8141
3F9504
BF8050
BFEB80
BFFE00
BFF400
BE4000
ENDCHAR
STARTCHAR dotbelowcmb
ENCODING 803
SWIDTH 100 0
DWIDTH 3 0
BBX 13 11 -5 -12
BITMAP
00155500
00800040
07C00040
1FC04040
7FC04040
7FC00040
7FD00040
7FFFFE00
7FFFF400
7FFFD000
2AAA4000
ENDCHAR
STARTCHAR dieresisbelowcmb
ENCODING 804
SWIDTH 100 0
DWIDTH 3 0
BBX 20 11 -8 -12
BITMAP
0055545554
0240058001
0B40038001
2F41038101
FF40038001
FF40038001
FF40078001
FFFFFFFFF4
FFFFFFFFD0
FFFEFFFF00
AAA86AA800
ENDCHAR
STARTCHAR commaaccent
ENCODING 806
SWIDTH 600 0
DWIDTH 19 0
BBX 13 15 3 -15
BITMAP
00155540
00800040
07C00040
1FC15440
7FC00440
7FC00440
7FD00440
7FFFC440
7FE51040
7FD15100
2FD00500
2FFAB400
3FFFD000
3FFF0000
3FF80000
ENDCHAR
STARTCHAR cedillacmb
ENCODING 807
SWIDTH 100 0
DWIDTH 3 0
BBX 14 14 -6 -8
BITMAP
00005000
00020540
000E0010
007D0410
01FC0410
02F41010
03F01040
07E00040
0BD00040
0FD00100
2FFFF900
3FFFE000
7FFF8000
3FFD0000
ENDCHAR
STARTCHAR ogonekcmb
ENCODING 808
SWIDTH 100 0
DWIDTH 3 0
BBX 13 13 -4 -10
BITMAP
00155400
00D10400
07D10400
1FC10400
3FC10540
3F810040
7F815040
BFC00040
BFE00040
BFFFFE40
BFFFFD00
7FFFE000
1BFF8000
ENDCHAR
STARTCHAR brevebelowcmb
ENCODING 814
SWIDTH 100 0
DWIDTH 3 0
BBX 19 12 -8 -13
BITMAP
0015501554
0180046004
078006E004
1F81014044
7FC1400104
BFD0155404
BFF0000010
BFFE400580
BFFFFFFE00
3FFFFFF800
1FFFFFD000
01BFF90000
ENDCHAR
STARTCHAR macronbelowcmb
ENCODING 817
SWIDTH 100 0
DWIDTH 3 0
BBX 19 10 -8 -11
BITMAP
0015555550
0080000004
07C0000004
1FC0555504
7FC0000004
7FD0000004
7FFFFFFFE0
7FFFFFFF40
7FFFFFFD00
2AAAAAA400
ENDCHAR
STARTCHAR uni0394
ENCODING 916
SWIDTH 830 0
DWIDTH 27 0
BBX 25 28 1 -4
BITMAP
00001555550000
00004000004000
00070000004000
001E0000001000
007E0155501000
01FD0400101000
02FC0400041000
02F80418040400
03F8102D040400
07F4103D040400
0BF0107E010400
0BE0107F010100
0FE040BF010100
1FD040FF410100
2FC040FF804100
3F8041FF804040
3F8042FFC04040
7F4042FFC04040
BF404000004040
BF404000004040
FF405555554040
FF400000000040
FF400000000040
FF800000000040
FFFFFFFFFFFE00
FFFFFFFFFFF400
FFFFFFFFFFD000
AAAAAAAAAA4000
ENDCHAR
STARTCHAR uni03A9
ENCODING 937
SWIDTH 877 0
DWIDTH 28 0
BBX 28 28 0 -4
BITMAP
00000155555000
00005400000500
00010000000040
00080015540010
00380140014010
01F40400001004
07F40401400404
0BF4101FF80404
0FF4102FF80404
1FF4102FF80404
1FF4102FF80404
1FF4101BF80404
1FF4101BF80404
1FF4101BF80404
1FF4101BF80404
1FF4101BF80404
1FF8101BF80410
1FFC041BF80414
1FC00407D01001
0F800142C05001
1F805542C15501
7F800002C00001
BF800002C00001
BFC00003D00001
BFFFFFFFFFFFF8
BFFFFFFFFFFFE0
BFFFFFBFFFFF40
6AAAA82AAAA900
ENDCHAR
STARTCHAR uni03BC
ENCODING 956
SWIDTH 813 0
DWIDTH 26 0
BBX 24 26 1 -7
BITMAP
005555005555
018001428001
0780004B8001
2F80407F8041
BF8040FF8041
BF8040FF8041
BF8040FF8041
BF8040FF8041
BF8040FF8041
BF8040FF8041
BF8040FF8041
BF8040FF8041
BF8040FF4041
BF8080590101
BF8080000101
BF8054000401
BF8041555004
BF8040000024
BF80004016D0
BF8000FFFE00
BF8000FFF800
BFD556FFD000
BFFFFFF90000
BFFFE0000000
BFFF40000000
155500000000
ENDCHAR
STARTCHAR pi
ENCODING 960
SWIDTH 821 0
DWIDTH 26 0
BBX 24 23 1 -4
BITMAP
001555555555
018000000001
078000000001
2F8055555501
BF8040000041
BF8040000041
BF8040550041
BF8040FF8041
BF8040FF8041
BF8040FF8041
BF8040FF8041
BF8040FF8041
BF8040FF8041
BF8040FF8041
BF8040FF8041
BF8040FF8041
BF8000FF8001
BF8000FF8001
BF8001FF8001
BFFFFDFFFFFD
BFFFF0FFFFE0
BFFF80FFFF80
6AAA006AA900
ENDCHAR
STARTCHAR Ddotbelow
ENCODING 7692
SWIDTH 846 0
DWIDTH 27 0
BBX 25 36 1 -12
BITMAP
00555555554000
01C00000001400
0BC00000000100
2FC00000000040
7FC05555540040
BFC04000014040
BFC04000004040
BFC040AA804040
BFC040FFD01040
BFC040FFD01040
BFC040FFD01040
BFC040BFD01040
BFC0407FD01040
BFC0407FD01040
BFC0407FD01040
BFC0407FD01040
BFC0407FD01040
BFC0406A801040
BFC04000004040
BFC04000004040
BFC04000014040
BFC05555540100
BFC00000000500
BFD0000001A400
BFFFFFFFFF8000
BFFFFD555E0000
BFFFFC00040000
7FFFFC00040000
0001FC04040000
0007FC04040000
000BFC00040000
000BFD00040000
000BFFFFE00000
000BFFFF400000
0007FFFD000000
0002AAA0000000
ENDCHAR
STARTCHAR ddotbelow
ENCODING 7693
SWIDTH 846 0
DWIDTH 27 0
BBX 25 36 1 -12
BITMAP
00555555554000
01C00000001400
0BC00000000100
2FC00000000040
7FC05555540040
BFC04000014040
BFC04000004040
BFC040AA804040
BFC040FFD01040
BFC040FFD01040
BFC040FFD01040
BFC040BFD01040
BFC0407FD01040
BFC0407FD01040
BFC0407FD01040
BFC0407FD01040
BFC0407FD01040
BFC0406A801040
BFC04000004040
BFC04000004040
BFC04000014040
BFC05555540100
BFC00000000500
BFD0000001A400
BFFFFFFFFF8000
BFFFFD555E0000
BFFFFC00040000
7FFFFC00040000
0001FC04040000
0007FC04040000
000BFC00040000
000BFD00040000
000BFFFFE00000
000BFFFF400000
0007FFFD000000
0002AAA0000000
ENDCHAR
STARTCHAR Dlinebelow
ENCODING 7694
SWIDTH 846 0
DWIDTH 27 0
BBX 25 35 1 -11
BITMAP
00555555554000
01C00000001400
0BC00000000100
2FC00000000040
7FC05555540040
BFC04000014040
BFC04000004040
BFC040AA804040
BFC040FFD01040
BFC040FFD01040
BFC040FFD01040
BFC040BFD01040
BFC0407FD01040
BFC0407FD01040
BFC0407FD01040
BFC0407FD01040
BFC0407FD01040
BFC0406A801040
BFC04000004040
BFC04000004040
BFC04000014040
BFC05555540100
BFC00000000500
BFC00000006400
BFFAAAAABF8000
BFFFFFFFFF4000
BFFF0000001000
7FFE0000001000
007E0155501000
01FE0000001000
02FF0000001000
02FFEAAAAA8000
02FFFFFFFE0000
02FFFFFFF40000
01FFFFFFD00000
ENDCHAR
STARTCHAR dlinebelow
ENCODING 7695
SWIDTH 846 0
DWIDTH 27 0
BBX 25 35 1 -11
BITMAP
00555555554000
01C00000001400
0BC00000000100
2FC00000000040
7FC05555540040
BFC04000014040
BFC04000004040
BFC040AA804040
BFC040FFD01040
BFC040FFD01040
BFC040FFD01040
BFC040BFD01040
BFC0407FD01040
BFC0407FD01040
BFC0407FD01040
BFC0407FD01040
BFC0407FD01040
BFC0406A801040
BFC04000004040
BFC04000004040
BFC04000014040
BFC05555540100
BFC00000000500
BFC00000006400
BFFAAAAABF8000
BFFFFFFFFF4000
BFFF0000001000
7FFE0000001000
007E0155501000
01FE0000001000
02FF0000001000
02FFEAAAAA8000
02FFFFFFFE0000
02FFFFFFF40000
01FFFFFFD00000
ENDCHAR
STARTCHAR Gmacron
ENCODING 7712
SWIDTH 808 0
DWIDTH 26 0
BBX 24 34 1 -4
BITMAP
000055555550
000240000010
000B00000010
003F01555410
00FF00000010
01FF40000010
01FFFFFFFFE0
01FFE5555560
01FD00000010
00E000000010
009005555410
03C010000010
1F8040000010
3F80406AAA80
7F8040FFFE00
BF8041FFF800
FF8041FFD000
FF8041005555
FF8041014001
FF80410B4001
FF80412F4001
FF8041BF4101
FF8041FF4101
FF8040FF4101
FF8040150101
FF8040000101
FFC010000101
BFE005555501
BFF400000001
7FFE40000001
3FFFFFAAAAA9
1FFFFFFFFFE0
07FFFFFFFF80
006FFFFFFE00
ENDCHAR
STARTCHAR gmacron
ENCODING 7713
SWIDTH 808 0
DWIDTH 26 0
BBX 24 34 1 -4
BITMAP
000055555550
000240000010
000B00000010
003F01555410
00FF00000010
01FF40000010
01FFFFFFFFE0
01FFE5555560
01FD00000010
00E000000010
009005555410
03C010000010
1F8040000010
3F80406AAA80
7F8040FFFE00
BF8041FFF800
FF8041FFD000
FF8041005555
FF8041014001
FF80410B4001
FF80412F4001
FF8041BF4101
FF8041FF4101
FF8040FF4101
FF8040150101
FF8040000101
FFC010000101
BFE005555501
BFF400000001
7FFE40000001
3FFFFFAAAAA9
1FFFFFFFFFE0
07FFFFFFFF80
006FFFFFFE00
ENDCHAR
STARTCHAR Hdotbelow
ENCODING 7716
SWIDTH 859 0
DWIDTH 27 0
BBX 25 36 1 -12
BITMAP
00555540155540
01C00040A00040
0BC00042E00040
2FC0004FE00040
7FC0406FE01040
BFC0407FE01040
BFC0407FE01040
BFC0407FE01040
BFC0406A901040
BFC04000001040
BFC04000001040
BFC04000001040
BFC05555555040
BFC04000001040
BFC04000001040
BFC04000001040
BFC040FFE01040
BFC040FFE01040
BFC040FFE01040
BFC040BFE01040
BFC0407FE01040
BFC0007FE00040
BFC0007FE00040
BFC0007FE00040
BFFAAA3FFEAA40
BFFFF96AAFFC00
BFFFD9000BE000
7FFF6C00078000
0001FC04040000
0003FC04040000
0007FC00040000
0007FD00040000
0007FFFFE00000
0007FFFF800000
0007FFFD000000
0002AAA4000000
ENDCHAR
ENDFONT
